<?xml version="1.0" encoding="UTF-8" standalone="no"?>
<!-- Generator: Adobe Illustrator 16.0.0, SVG Export Plug-In . SVG Version: 6.00 Build 0)  -->

<svg
   xmlns:dc="http://purl.org/dc/elements/1.1/"
   xmlns:cc="http://creativecommons.org/ns#"
   xmlns:rdf="http://www.w3.org/1999/02/22-rdf-syntax-ns#"
   xmlns:svg="http://www.w3.org/2000/svg"
   xmlns="http://www.w3.org/2000/svg"
   xmlns:xlink="http://www.w3.org/1999/xlink"
   xmlns:sodipodi="http://sodipodi.sourceforge.net/DTD/sodipodi-0.dtd"
   xmlns:inkscape="http://www.inkscape.org/namespaces/inkscape"
   version="1.1"
   id="Capa_1"
   x="0px"
   y="0px"
   width="552.055px"
   height="552.055px"
   viewBox="0 0 552.055 552.055"
   style="enable-background:new 0 0 552.055 552.055;"
   xml:space="preserve"
   sodipodi:docname="cloverEgg.svg"
   inkscape:version="0.92.2 5c3e80d, 2017-08-06"><metadata
     id="metadata43"><rdf:RDF><cc:Work
         rdf:about=""><dc:format>image/svg+xml</dc:format><dc:type
           rdf:resource="http://purl.org/dc/dcmitype/StillImage" /><dc:title></dc:title></cc:Work></rdf:RDF></metadata><defs
     id="defs41" /><sodipodi:namedview
     pagecolor="#ffffff"
     bordercolor="#666666"
     borderopacity="1"
     objecttolerance="10"
     gridtolerance="10"
     guidetolerance="10"
     inkscape:pageopacity="0"
     inkscape:pageshadow="2"
     inkscape:window-width="1060"
     inkscape:window-height="660"
     id="namedview39"
     showgrid="false"
     inkscape:zoom="0.85498729"
     inkscape:cx="276.0275"
     inkscape:cy="182.45885"
     inkscape:window-x="0"
     inkscape:window-y="0"
     inkscape:window-maximized="0"
     inkscape:current-layer="Capa_1" /><g
     id="g926"
     transform="translate(19.214769,-20.384023)"><g
       style="fill:#000000;fill-opacity:1;stroke:none;stroke-width:2.492275;stroke-opacity:1"
       transform="matrix(0,0.40123982,-0.40123982,0,242.74331,336.19555)"
       id="g6"><g
         style="fill:#000000;fill-opacity:1;stroke:none;stroke-width:2.492275;stroke-opacity:1"
         id="g4"><path
           d="m 276.02734,0 c -71.53,0 -125.28303,81.982703 -150.95703,130.8457 -36.474997,69.431 -60.984373,156.09792 -60.984372,215.66992 0,115.258 93.095452,205.53907 211.939452,205.53907 118.844,0 211.94336,-90.28107 211.94336,-205.53907 0,-59.572 -24.51033,-146.24492 -60.98633,-215.66992 C 401.31142,81.982703 347.55934,0 276.02734,0 Z m 32.42383,18.898438 c 15.031,6.004 32.53285,16.983515 51.33985,36.353515 -7.521,0.801 -14.0078,0.348656 -17.7168,-0.777344 -14.412,-4.388 -22.56403,1.248547 -28.20703,8.310547 -33.219,39.651004 -76.45761,9.235 -82.09961,0 -5.636,-9.235 -11.27883,-8.309734 -20.04883,-4.552734 -8.929,3.936 -17.78023,5.147219 -26.11523,4.199219 20.857,-23.355 40.3249,-36.261797 56.8789,-43.091797 17.938,6.071 40.71075,8.016593 65.96875,-0.441406 z M 370.28711,66.8125 c 4.518,5.3 9.09384,11.076156 13.71484,17.410156 -3.732,0.722 -7.65579,1.286938 -11.84179,1.585938 -26.953,0.63 -28.10385,0.904969 -41.33985,17.042966 -20.057,24.443 -75.00898,30.4896 -103.20898,11.0586 -15.037,-11.904 -20.27408,-18.077269 -40.33008,-16.822269 -5.551,0.349 -14.99933,-0.564204 -25.61133,-3.783203 4.327,-6.358001 8.622,-12.207719 12.875,-17.636719 5.404,1.292 10.78328,1.791281 15.86328,1.363281 29.456,-2.509 25.06638,2.509156 40.10938,11.910156 15.043,9.401 58.91156,23.819004 82.10156,0 23.188,-23.819 23.81223,-19.430687 41.36524,-20.054687 3.99599,-0.141 9.79073,-0.685219 16.30273,-2.074219 z m 25.64844,34.88281 c 5.025,7.815 10.08001,16.27352 15.16601,25.47852 -14.21,-6.494 -30.97237,-17.3253 -24.85937,-23.0293 2.889,-2.699 6.40836,-2.67522 9.69336,-2.44922 z m -218.05469,14.19922 c 15.667,0.312 18.48878,29.14261 18.80078,57.97461 0,0 18.79958,-46.69623 29.14258,-41.36523 10.343,5.331 5.94989,17.23486 9.71289,24.75586 3.763,7.521 24.75409,17.85798 21.62109,31.33398 -3.133,13.477 -50.76562,1.57813 -50.76562,1.57813 0,0 37.91956,24.11867 36.97656,32.88867 -1.566,15.043 -22.24422,15.04383 -28.19922,16.29883 -5.955,1.25399 -10.967,24.7544 -24.125,25.0664 -25.386,1.567 -5.33203,-62.35547 -5.33203,-62.35547 0,0 -24.12516,37.91307 -36.03516,37.28907 -11.91,-0.625 -13.16346,-18.49005 -14.73046,-21.62305 -1.566,-3.133 -10.34397,-3.7567 -15.66797,-12.22071 -9.711,-19.12399 52.01562,-18.49414 52.01562,-18.49414 0,0 -37.28873,-19.11306 -41.05273,-37.28906 -0.123,-0.582 -0.14213,-1.07833 -0.20313,-1.61133 1.744,-3.537 3.51417,-7.03614 5.32617,-10.49414 6.53,-2.828 17.06744,-1.31014 21.52344,-3.24414 7.209,-3.133 5.32419,-18.80128 20.99219,-18.48828 z m 217.10156,9.68164 c 4.74889,0.17769 10.18772,0.73914 16.19922,1.74414 1.658,3.005 3.31575,6.06466 4.96875,9.22266 5.986,11.39 11.60405,23.27458 16.87305,35.39258 -4.418,5.753 -8.07808,15.82603 -15.33008,12.58203 -9.664,-4.315 -4.52344,-42.34375 -4.52344,-42.34375 0,0 -13.97861,28.98347 -23.22461,23.23047 -9.248,-5.753 -3.91194,-19.11733 -5.96093,-22.61133 -2.05701,-3.495 -8.43422,-3.69722 -10.07422,-10.07422 -1.22475,-4.755 6.82559,-7.67564 21.07226,-7.14258 z m -62.30859,4.72461 c 4.504,0 8.14453,3.64734 8.14453,8.15234 0,4.498 -3.64653,8.14649 -8.14453,8.14649 -4.498,0 -8.14649,-3.64849 -8.14649,-8.14649 0,-4.50399 3.64849,-8.15234 8.14649,-8.15234 z m 16.60351,43.56836 c 6.267,1.879 6.57825,6.8917 10.03125,13.4707 3.445,6.579 20.05496,-0.62553 22.87696,14.73047 4.699,18.176 -39.48152,28.51367 -37.60352,28.51367 1.874,-0.007 44.18214,2.81475 43.86914,14.71875 -0.312,11.91 -10.96687,8.1453 -16.29687,10.6543 -5.33,2.503 -4.0763,10.65488 -11.2793,16.92188 -7.209,6.267 -20.36677,-6.26605 -26.63477,-24.74805 1.256,11.597 -10.33618,36.0332 -19.74218,36.0332 -9.4,0 -10.33797,-12.84597 -15.04297,-15.04297 -4.707,-2.197 -17.23445,6.58088 -23.18946,-5.95312 -9.39999,-20.055 41.36524,-27.25977 41.36524,-27.25977 0,0 -46.06405,-8.14509 -44.49805,-22.24609 1.567,-14.1 12.84519,-11.27861 19.74219,-14.72461 6.898,-3.445 3.44497,-16.60887 15.04297,-16.29688 11.592,0.31201 19.31419,21.67546 20.99219,45.43946 -1.254,-35.41 14.10018,-56.08994 20.36718,-54.21094 z m 104.80469,54.22266 c 2.547,8.005 4.87867,15.97386 7.01367,23.88086 -1.939,1.512 -4.28879,2.42187 -6.84179,2.42187 -6.578,0 -11.91016,-5.8942 -11.91016,-13.1582 0,-7.208 5.24628,-13.04653 11.73828,-13.14453 z m -340.68164,20.03711 c 5.838,0 10.57422,4.35189 10.57422,9.71289 0,5.367 -4.73622,9.71093 -10.57422,9.71093 -5.838,0 -10.57617,-4.35093 -10.57617,-9.71093 0,-5.366 4.73817,-9.71289 10.57617,-9.71289 z m 352.45117,22.70507 c 1.022,4.443 1.97071,8.84418 2.84571,13.20118 -192.107,80.233 -314.28775,39.68832 -386.093754,3.86132 0.899,-4.693 1.874171,-9.43832 2.951172,-14.23632 68.538002,28.966 215.369872,68.12282 380.296872,-2.82618 z m 5.9375,30.47266 c 1.871,11.91 3.13921,23.33967 3.65821,34.01367 -1.994,2.16 -3.8874,3.75188 -5.52539,4.29688 -9.4,3.134 -35.72315,-15.04307 -43.24415,-13.16407 -7.521,1.87901 -21.93584,38.85429 -33.21484,41.98829 -11.277,3.134 -39.47895,-25.6973 -46.37695,-25.6543 -6.891,0.037 -23.81821,31.92189 -37.28321,33.21289 -13.469,1.286 -37.29335,-26.35358 -47.31835,-27.14258 -10.02401,-0.783 -26.32333,25.85633 -40.73633,27.11133 -14.418,1.255 -33.8411,-32.58966 -44.4961,-36.34766 -10.655,-3.764 -29.45623,23.18869 -41.36523,21.30469 -11.91,-1.879 -13.79027,-32.5892 -27.57227,-36.6582 -13.781997,-4.076 -18.806934,16.60861 -30.085934,14.72461 -0.569,-0.099 -1.132313,-0.33078 -1.695313,-0.55078 0.404,-11.255 1.623031,-23.35946 3.582031,-36.06446 32.839996,14.749 100.844676,39.11914 191.763676,39.11914 106.275,0 165.88215,-21.65845 199.91015,-40.18945 z m -365.96484,33.46289 c 0.79662,0.0729 1.62495,0.23158 2.48633,0.48633 13.776,4.075 15.66131,34.77725 27.57031,36.65625 11.91,1.879 30.70828,-25.06559 41.36328,-21.30859 10.655,3.757 30.081,37.6007 44.5,36.3457 14.418,-1.255 30.70938,-27.89438 40.73438,-27.10938 10.024,0.789 33.85031,28.42563 47.32031,27.14063 13.47,-1.285 30.39125,-33.16989 37.28125,-33.21289 6.891,-0.037 35.09195,28.79625 46.37695,25.65625 11.285,-3.134 25.70084,-40.11124 33.21485,-41.99024 7.521,-1.879 33.84218,16.29707 43.24218,13.16407 1.715,-0.569 3.70483,-2.29443 5.79883,-4.60743 0.005,0.169 0.0156,0.35925 0.0156,0.53125 0,3.109 -0.0924,6.19277 -0.23243,9.25977 -185.088,94.799 -330.96995,33.02898 -398.876949,1.33398 -0.135,-2.559 -0.18275,-5.14651 -0.21875,-7.72851 0.605,0.245 1.211218,0.48875 1.824218,0.59375 10.574063,1.76156 15.650224,-16.30437 27.599611,-15.21094 z m -28.214845,33.89258 c 32.509995,18.164 98.238185,46.69531 190.742185,46.69531 96.304,0 170.68233,-27.7843 205.73633,-43.9043 -0.843,6.628 -2.02558,13.13944 -3.51758,19.52344 -56.678,23.727 -221.83765,77.89507 -390.847654,-8.33594 -0.863,-4.603 -1.580281,-9.26051 -2.113281,-13.97851 z m 386.021485,41.23437 c 0.48661,0.0704 0.92398,0.21829 1.30273,0.45704 -11.383,32.454 -31.26723,60.75245 -57.24023,82.56445 2.424,-6.347 7.19106,-13.80111 15.53906,-21.78711 -15.209,10.453 -32.90751,15.66544 -36.97851,9.39844 -4.068,-6.267 2.19067,-15.6671 3.76367,-22.2461 1.566,-6.579 -2.19702,-24.13109 8.45898,-21.62109 10.654,2.503 31.02099,19.43173 30.70899,17.55273 -0.311,-1.879 -13.78746,-31.34101 -2.81446,-36.66601 10.967,-5.324 18.17586,-1.24831 24.13086,-3.44531 3.96813,-1.46213 9.72266,-4.70003 13.12891,-4.20704 z m -355.32227,10.57813 c 4.847,0 8.77735,4.9138 8.77735,10.9668 0,6.053 -3.93035,10.96679 -8.77735,10.96679 -4.847,0 -8.775387,-4.90779 -8.775387,-10.96679 0,-6.059 3.928387,-10.9668 8.775387,-10.9668 z m 75.64649,20.1582 c 0.86119,-0.006 1.75128,0.14542 2.6914,0.49805 7.521,2.821 10.3428,23.46317 10.9668,41.95117 0,0 8.77164,-37.30833 20.05664,-34.48633 11.279,2.821 12.2207,20.67383 12.2207,20.67383 0,0 16.92238,10.9616 17.23438,23.18359 0.322,12.20801 -37.28516,5.31836 -37.28516,5.31836 0,0 32.58899,15.036 31.33399,23.5 -1.261,8.465 -18.48945,6.89158 -23.18945,5.64258 -2.809,-0.746 -5.64411,0.73461 -9.78711,1.84961 -5.63,-1.909 -11.12615,-4.07059 -16.49415,-6.43359 -0.85099,-7.204 2.14844,-17.03711 2.14844,-17.03711 0,0 -4.43653,7.93033 -10.26953,13.23633 -7.527,-3.728 -14.76873,-7.8828 -21.67773,-12.4668 -1.481,-0.985 -2.91214,-2.02973 -4.36914,-3.05273 -4.633,-3.629 -9.74219,-8.21444 -9.74219,-12.77344 0,-6.12 36.0332,0 36.0332,0 0,0 -43.24478,-21.61503 -42.92578,-32.58203 0.318,-10.967 11.90409,-9.86474 22.87109,-9.55274 9.59613,0.273 14.15529,-7.42889 20.1836,-7.46875 z m 125.8418,1.77539 c 5.367,0 9.71289,5.0503 9.71289,11.2793 0,6.23 -4.34589,11.2793 -9.71289,11.2793 -5.36701,0 -9.7129,-5.0493 -9.7129,-11.2793 0,-6.229 4.34589,-11.2793 9.7129,-11.2793 z m 0.002,47.52344 c 9.4,0.312 17.54669,1.87745 20.67969,1.56445 3.133,-0.313 10.97256,-3.75732 13.47656,4.38868 2.504,8.146 -12.85156,31.33593 -12.85156,31.33593 0,0 25.69725,-16.92248 33.53125,-8.77148 0.453,0.472 0.82429,0.93162 1.15429,1.39062 -23.306,11.101 -49.31439,17.95546 -77.02539,19.56446 0.164,-1.469 0.41602,-2.52816 0.66602,-2.78516 0.943,-0.942 -5.95483,-16.60242 4.07617,-17.23242 10.031,-0.63 24.4375,5.95508 24.4375,5.95508 -8.146,-9.088 -17.54553,-35.72316 -8.14453,-35.41016 z"
           id="path856"
           style="fill:none;fill-opacity:1;stroke:none;stroke-width:2.492275;stroke-opacity:1"
           xlink:href="#path2"
           inkscape:original="M 276.02734 0 C 204.49734 0 150.74431 81.982703 125.07031 130.8457 C 88.595313 200.2767 64.085937 286.94362 64.085938 346.51562 C 64.085938 461.77362 157.18139 552.05469 276.02539 552.05469 C 394.86939 552.05469 487.96875 461.77362 487.96875 346.51562 C 487.96875 286.94362 463.45842 200.2707 426.98242 130.8457 C 401.31142 81.982703 347.55934 -9.4739031e-15 276.02734 0 z M 308.45117 18.898438 C 323.48217 24.902438 340.98402 35.881953 359.79102 55.251953 C 352.27002 56.052953 345.78322 55.600609 342.07422 54.474609 C 327.66222 50.086609 319.51019 55.723156 313.86719 62.785156 C 280.64819 102.43616 237.40958 72.020156 231.76758 62.785156 C 226.13158 53.550156 220.48875 54.475422 211.71875 58.232422 C 202.78975 62.168422 193.93852 63.379641 185.60352 62.431641 C 206.46052 39.076641 225.92842 26.169844 242.48242 19.339844 C 260.42042 25.410844 283.19317 27.356437 308.45117 18.898438 z M 370.28711 66.8125 C 374.80511 72.1125 379.38095 77.888656 384.00195 84.222656 C 380.26995 84.944656 376.34616 85.509594 372.16016 85.808594 C 345.20716 86.438594 344.05631 86.713563 330.82031 102.85156 C 310.76331 127.29456 255.81133 133.34116 227.61133 113.91016 C 212.57433 102.00616 207.33725 95.832891 187.28125 97.087891 C 181.73025 97.436891 172.28192 96.523687 161.66992 93.304688 C 165.99692 86.946687 170.29192 81.096969 174.54492 75.667969 C 179.94892 76.959969 185.3282 77.45925 190.4082 77.03125 C 219.8642 74.52225 215.47458 79.540406 230.51758 88.941406 C 245.56058 98.342406 289.42914 112.76041 312.61914 88.941406 C 335.80714 65.122406 336.43137 69.510719 353.98438 68.886719 C 357.98037 68.745719 363.77511 68.2015 370.28711 66.8125 z M 395.93555 101.69531 C 400.96055 109.51031 406.01556 117.96883 411.10156 127.17383 C 396.89156 120.67983 380.12919 109.84853 386.24219 104.14453 C 389.13119 101.44553 392.65055 101.46931 395.93555 101.69531 z M 177.88086 115.89453 C 193.54786 116.20653 196.36964 145.03714 196.68164 173.86914 C 196.68164 173.86914 215.48122 127.17291 225.82422 132.50391 C 236.16722 137.83491 231.77411 149.73877 235.53711 157.25977 C 239.30011 164.78077 260.2912 175.11775 257.1582 188.59375 C 254.0252 202.07075 206.39258 190.17188 206.39258 190.17188 C 206.39258 190.17188 244.31214 214.29055 243.36914 223.06055 C 241.80314 238.10355 221.12492 238.10438 215.16992 239.35938 C 209.21492 240.61337 204.20292 264.11378 191.04492 264.42578 C 165.65892 265.99278 185.71289 202.07031 185.71289 202.07031 C 185.71289 202.07031 161.58773 239.98338 149.67773 239.35938 C 137.76773 238.73438 136.51427 220.86933 134.94727 217.73633 C 133.38127 214.60333 124.6033 213.97963 119.2793 205.51562 C 109.5683 186.39163 171.29492 187.02148 171.29492 187.02148 C 171.29492 187.02148 134.00619 167.90842 130.24219 149.73242 C 130.11919 149.15042 130.10006 148.65409 130.03906 148.12109 C 131.78306 144.58409 133.55323 141.08495 135.36523 137.62695 C 141.89523 134.79895 152.43267 136.31681 156.88867 134.38281 C 164.09767 131.24981 162.21286 115.58153 177.88086 115.89453 z M 394.98242 125.57617 C 399.73131 125.75386 405.17014 126.31531 411.18164 127.32031 C 412.83964 130.32531 414.49739 133.38497 416.15039 136.54297 C 422.13639 147.93297 427.75444 159.81755 433.02344 171.93555 C 428.60544 177.68855 424.94536 187.76158 417.69336 184.51758 C 408.02936 180.20258 413.16992 142.17383 413.16992 142.17383 C 413.16992 142.17383 399.19131 171.1573 389.94531 165.4043 C 380.69731 159.6513 386.03337 146.28697 383.98438 142.79297 C 381.92737 139.29797 375.55016 139.09575 373.91016 132.71875 C 372.68541 127.96375 380.73575 125.04311 394.98242 125.57617 z M 332.67383 130.30078 C 337.17783 130.30078 340.81836 133.94812 340.81836 138.45312 C 340.81836 142.95112 337.17183 146.59961 332.67383 146.59961 C 328.17583 146.59961 324.52734 142.95112 324.52734 138.45312 C 324.52734 133.94913 328.17583 130.30078 332.67383 130.30078 z M 349.27734 173.86914 C 355.54434 175.74814 355.85559 180.76084 359.30859 187.33984 C 362.75359 193.91884 379.36355 186.71431 382.18555 202.07031 C 386.88455 220.24631 342.70403 230.58398 344.58203 230.58398 C 346.45603 230.57698 388.76417 233.39873 388.45117 245.30273 C 388.13917 257.21273 377.4843 253.44803 372.1543 255.95703 C 366.8243 258.46003 368.078 266.61191 360.875 272.87891 C 353.666 279.14591 340.50823 266.61286 334.24023 248.13086 C 335.49623 259.72786 323.90405 284.16406 314.49805 284.16406 C 305.09805 284.16406 304.16008 271.31809 299.45508 269.12109 C 294.74808 266.92409 282.22063 275.70197 276.26562 263.16797 C 266.86563 243.11297 317.63086 235.9082 317.63086 235.9082 C 317.63086 235.9082 271.56681 227.76311 273.13281 213.66211 C 274.69981 199.56211 285.978 202.3835 292.875 198.9375 C 299.773 195.4925 296.31997 182.32863 307.91797 182.64062 C 319.50997 182.95263 327.23216 204.31608 328.91016 228.08008 C 327.65616 192.67008 343.01034 171.99014 349.27734 173.86914 z M 454.08203 228.0918 C 456.62903 236.0968 458.9607 244.06566 461.0957 251.97266 C 459.1567 253.48466 456.80691 254.39453 454.25391 254.39453 C 447.67591 254.39453 442.34375 248.50033 442.34375 241.23633 C 442.34375 234.02833 447.59003 228.1898 454.08203 228.0918 z M 113.40039 248.12891 C 119.23839 248.12891 123.97461 252.4808 123.97461 257.8418 C 123.97461 263.2088 119.23839 267.55273 113.40039 267.55273 C 107.56239 267.55273 102.82422 263.2018 102.82422 257.8418 C 102.82422 252.4758 107.56239 248.12891 113.40039 248.12891 z M 465.85156 270.83398 C 466.87356 275.27698 467.82227 279.67816 468.69727 284.03516 C 276.59027 364.26816 154.40952 323.72348 82.603516 287.89648 C 83.502516 283.20348 84.477687 278.45816 85.554688 273.66016 C 154.09269 302.62616 300.92456 341.78298 465.85156 270.83398 z M 471.78906 301.30664 C 473.66006 313.21664 474.92827 324.64631 475.44727 335.32031 C 473.45327 337.48031 471.55987 339.07219 469.92188 339.61719 C 460.52188 342.75119 434.19873 324.57412 426.67773 326.45312 C 419.15673 328.33213 404.74189 365.30741 393.46289 368.44141 C 382.18589 371.57541 353.98394 342.74411 347.08594 342.78711 C 340.19494 342.82411 323.26773 374.709 309.80273 376 C 296.33373 377.286 272.50938 349.64642 262.48438 348.85742 C 252.46037 348.07442 236.16105 374.71375 221.74805 375.96875 C 207.33005 377.22375 187.90695 343.37909 177.25195 339.62109 C 166.59695 335.85709 147.79572 362.80978 135.88672 360.92578 C 123.97672 359.04678 122.09645 328.33658 108.31445 324.26758 C 94.532453 320.19158 89.507516 340.87619 78.228516 338.99219 C 77.659516 338.89319 77.096203 338.66141 76.533203 338.44141 C 76.937203 327.18641 78.156234 315.08195 80.115234 302.37695 C 112.95523 317.12595 180.95991 341.49609 271.87891 341.49609 C 378.15391 341.49609 437.76106 319.83764 471.78906 301.30664 z M 105.82422 334.76953 C 106.62084 334.84243 107.44917 335.00111 108.31055 335.25586 C 122.08655 339.33086 123.97186 370.03311 135.88086 371.91211 C 147.79086 373.79111 166.58914 346.84652 177.24414 350.60352 C 187.89914 354.36052 207.32514 388.20422 221.74414 386.94922 C 236.16214 385.69422 252.45352 359.05484 262.47852 359.83984 C 272.50252 360.62884 296.32883 388.26547 309.79883 386.98047 C 323.26883 385.69547 340.19008 353.81058 347.08008 353.76758 C 353.97108 353.73058 382.17203 382.56383 393.45703 379.42383 C 404.74203 376.28983 419.15787 339.31259 426.67188 337.43359 C 434.19288 335.55459 460.51406 353.73066 469.91406 350.59766 C 471.62906 350.02866 473.61889 348.30323 475.71289 345.99023 C 475.71789 346.15923 475.72852 346.34948 475.72852 346.52148 C 475.72852 349.63048 475.63609 352.71425 475.49609 355.78125 C 290.40809 450.58025 144.52614 388.81023 76.619141 357.11523 C 76.484141 354.55623 76.436391 351.96872 76.400391 349.38672 C 77.005391 349.63172 77.611609 349.87547 78.224609 349.98047 C 88.798672 351.74203 93.874833 333.6761 105.82422 334.76953 z M 77.609375 368.66211 C 110.11937 386.82611 175.84756 415.35742 268.35156 415.35742 C 364.65556 415.35742 439.03389 387.57312 474.08789 371.45312 C 473.24489 378.08112 472.06231 384.59256 470.57031 390.97656 C 413.89231 414.70356 248.73266 468.87163 79.722656 382.64062 C 78.859656 378.03762 78.142375 373.38011 77.609375 368.66211 z M 463.63086 409.89648 C 464.11747 409.96691 464.55484 410.11477 464.93359 410.35352 C 453.55059 442.80752 433.66636 471.10597 407.69336 492.91797 C 410.11736 486.57097 414.88442 479.11686 423.23242 471.13086 C 408.02342 481.58386 390.32491 486.7963 386.25391 480.5293 C 382.18591 474.2623 388.44458 464.8622 390.01758 458.2832 C 391.58358 451.7042 387.82056 434.15211 398.47656 436.66211 C 409.13056 439.16511 429.49755 456.09384 429.18555 454.21484 C 428.87455 452.33584 415.39809 422.87383 426.37109 417.54883 C 437.33809 412.22483 444.54695 416.30052 450.50195 414.10352 C 454.47008 412.64139 460.22461 409.40349 463.63086 409.89648 z M 108.30859 420.47461 C 113.15559 420.47461 117.08594 425.38841 117.08594 431.44141 C 117.08594 437.49441 113.15559 442.4082 108.30859 442.4082 C 103.46159 442.4082 99.533203 437.50041 99.533203 431.44141 C 99.533203 425.38241 103.46159 420.47461 108.30859 420.47461 z M 183.95508 440.63281 C 184.81627 440.62712 185.70636 440.77823 186.64648 441.13086 C 194.16748 443.95186 196.98928 464.59403 197.61328 483.08203 C 197.61328 483.08203 206.38492 445.7737 217.66992 448.5957 C 228.94892 451.4167 229.89062 469.26953 229.89062 469.26953 C 229.89062 469.26953 246.813 480.23113 247.125 492.45312 C 247.447 504.66113 209.83984 497.77148 209.83984 497.77148 C 209.83984 497.77148 242.42883 512.80748 241.17383 521.27148 C 239.91283 529.73648 222.68438 528.16306 217.98438 526.91406 C 215.17538 526.16806 212.34027 527.64867 208.19727 528.76367 C 202.56727 526.85467 197.07112 524.69308 191.70312 522.33008 C 190.85213 515.12608 193.85156 505.29297 193.85156 505.29297 C 193.85156 505.29297 189.41503 513.2233 183.58203 518.5293 C 176.05503 514.8013 168.8133 510.6465 161.9043 506.0625 C 160.4233 505.0775 158.99216 504.03277 157.53516 503.00977 C 152.90216 499.38077 147.79297 494.79533 147.79297 490.23633 C 147.79297 484.11633 183.82617 490.23633 183.82617 490.23633 C 183.82617 490.23633 140.58139 468.6213 140.90039 457.6543 C 141.21839 446.6873 152.80448 447.78956 163.77148 448.10156 C 173.36761 448.37456 177.92677 440.67267 183.95508 440.63281 z M 309.79688 442.4082 C 315.16388 442.4082 319.50977 447.4585 319.50977 453.6875 C 319.50977 459.9175 315.16388 464.9668 309.79688 464.9668 C 304.42987 464.9668 300.08398 459.9175 300.08398 453.6875 C 300.08398 447.4585 304.42987 442.4082 309.79688 442.4082 z M 309.79883 489.93164 C 319.19883 490.24364 327.34552 491.80909 330.47852 491.49609 C 333.61152 491.18309 341.45108 487.73877 343.95508 495.88477 C 346.45908 504.03077 331.10352 527.2207 331.10352 527.2207 C 331.10352 527.2207 356.80077 510.29822 364.63477 518.44922 C 365.08777 518.92122 365.45906 519.38084 365.78906 519.83984 C 342.48306 530.94084 316.47467 537.7953 288.76367 539.4043 C 288.92767 537.9353 289.17969 536.87614 289.42969 536.61914 C 290.37269 535.67714 283.47486 520.01672 293.50586 519.38672 C 303.53686 518.75672 317.94336 525.3418 317.94336 525.3418 C 309.79736 516.2538 300.39783 489.61864 309.79883 489.93164 z "
           inkscape:radius="0"
           sodipodi:type="inkscape:offset" /><path
           sodipodi:type="inkscape:offset"
           inkscape:radius="32.190586"
           inkscape:original="M 276.0293 -0.001953125 C 204.49929 -0.001953125 150.7443 81.984656 125.07031 130.84766 C 88.595315 200.27865 64.087891 286.94558 64.087891 346.51758 C 64.087891 461.77558 157.17943 552.05664 276.02344 552.05664 C 394.86743 552.05664 487.96875 461.77558 487.96875 346.51758 C 487.96875 286.94558 463.45841 200.27267 426.98242 130.84766 C 401.31141 81.984656 347.56131 -0.001953125 276.0293 -0.001953125 z "
           xlink:href="#path899"
           style="fill:none;fill-opacity:1;stroke:#ed0000;stroke-width:2.492275;stroke-opacity:1"
           id="path1100"
           d="m 276.0293,-32.193359 c -48.06379,0 -86.91635,26.8669114 -115.87696,56.976562 -28.9606,30.109651 -49.88651,65.033773 -63.578121,91.091797 a 32.193805,32.193805 0 0 0 -0.002,0.002 c -38.843309,73.93913 -64.675782,162.24 -64.675782,230.64063 0,132.59112 108.980336,237.73047 244.126956,237.73047 135.14659,0 244.13672,-105.13753 244.13672,-237.73047 0,-68.40168 -25.83644,-156.70822 -64.68164,-230.64258 C 441.7884,89.817068 420.86293,54.894335 391.9043,24.785156 362.94486,-5.3248549 324.09374,-32.193359 276.0293,-32.193359 Z" /></g></g></g><g
     id="g8" /><g
     id="g10" /><g
     id="g12" /><g
     id="g14" /><g
     id="g16" /><g
     id="g18" /><g
     id="g20" /><g
     id="g22" /><g
     id="g24" /><g
     id="g26" /><g
     id="g28" /><g
     id="g30" /><g
     id="g32" /><g
     id="g34" /><g
     id="g36" /><g
     style="stroke-width:2.492275"
     transform="matrix(0,0.40123982,-0.40123982,0,261.95814,315.81226)"
     id="g854"><g
       style="stroke-width:2.492275"
       id="g852"><path
         style="stroke-width:2.492275"
         inkscape:connector-curvature="0"
         id="path850"
         d="M 276.027,0 C 204.497,0 150.745,81.983 125.071,130.846 88.596,200.277 64.085,286.943 64.085,346.515 c 0,115.258 93.097,205.54 211.941,205.54 118.844,0 211.942,-90.282 211.942,-205.54 0,-59.572 -24.51,-146.244 -60.986,-215.669 C 401.311,81.983 347.559,0 276.027,0 Z m 110.215,104.144 c 2.889,-2.699 6.408,-2.674 9.693,-2.448 5.025,7.815 10.08,16.273 15.166,25.478 -14.21,-6.494 -30.972,-17.326 -24.859,-23.03 z M 242.483,19.339 c 17.938,6.071 40.71,8.018 65.968,-0.44 15.031,6.004 32.533,16.983 51.34,36.353 -7.521,0.801 -14.008,0.349 -17.717,-0.777 -14.412,-4.388 -22.564,1.249 -28.207,8.311 -33.219,39.651 -76.458,9.235 -82.1,0 -5.636,-9.235 -11.279,-8.311 -20.049,-4.554 -8.929,3.936 -17.779,5.147 -26.114,4.199 20.857,-23.355 40.325,-36.262 56.879,-43.092 z m -67.938,56.328 c 5.404,1.292 10.783,1.793 15.863,1.365 29.456,-2.509 25.067,2.509 40.11,11.91 15.043,9.401 58.911,23.819 82.101,0 23.188,-23.819 23.812,-19.431 41.365,-20.055 3.996,-0.141 9.791,-0.686 16.303,-2.075 4.518,5.3 9.094,11.077 13.715,17.411 -3.732,0.722 -7.656,1.286 -11.842,1.585 -26.953,0.63 -28.104,0.906 -41.34,17.044 -20.057,24.443 -75.008,30.49 -103.208,11.059 -15.037,-11.904 -20.275,-18.079 -40.331,-16.824 -5.551,0.349 -15,-0.563 -25.612,-3.782 4.327,-6.358 8.623,-12.209 12.876,-17.638 z m 213.906,169.635 c -0.312,11.91 -10.967,8.146 -16.297,10.655 -5.33,2.503 -4.076,10.655 -11.279,16.922 -7.209,6.267 -20.367,-6.267 -26.635,-24.749 1.256,11.597 -10.336,36.035 -19.742,36.035 -9.4,0 -10.338,-12.846 -15.043,-15.043 -4.707,-2.197 -17.234,6.579 -23.189,-5.955 -9.4,-20.055 41.365,-27.258 41.365,-27.258 0,0 -46.065,-8.146 -44.499,-22.247 1.567,-14.1 12.846,-11.279 19.743,-14.725 6.898,-3.445 3.445,-16.609 15.043,-16.297 11.592,0.312 19.314,21.677 20.992,45.441 -1.254,-35.41 14.1,-56.09 20.367,-54.211 6.267,1.879 6.578,6.891 10.031,13.47 3.445,6.579 20.055,-0.625 22.877,14.731 4.699,18.176 -39.48,28.513 -37.602,28.513 1.874,-0.007 44.181,2.814 43.868,14.718 z M 324.527,138.453 c 0,-4.504 3.648,-8.152 8.146,-8.152 4.504,0 8.146,3.647 8.146,8.152 0,4.498 -3.648,8.146 -8.146,8.146 -4.498,0 -8.146,-3.648 -8.146,-8.146 z m -153.232,48.568 c 0,0 -37.289,-19.113 -41.053,-37.289 -0.123,-0.582 -0.141,-1.077 -0.202,-1.61 1.744,-3.537 3.513,-7.038 5.325,-10.496 6.53,-2.828 17.068,-1.31 21.524,-3.244 7.209,-3.133 5.324,-18.801 20.992,-18.488 15.667,0.312 18.488,29.143 18.8,57.975 0,0 18.801,-46.696 29.144,-41.365 10.343,5.331 5.949,17.234 9.712,24.755 3.763,7.521 24.755,17.858 21.622,31.334 -3.133,13.477 -50.766,1.579 -50.766,1.579 0,0 37.92,24.119 36.977,32.889 -1.566,15.043 -22.246,15.043 -28.201,16.298 -5.955,1.254 -10.967,24.755 -24.125,25.067 -25.386,1.567 -5.331,-62.356 -5.331,-62.356 0,0 -24.125,37.913 -36.035,37.289 -11.91,-0.625 -13.164,-18.489 -14.731,-21.622 -1.566,-3.133 -10.343,-3.758 -15.667,-12.222 -9.711,-19.124 52.015,-18.494 52.015,-18.494 z M 113.4,248.129 c 5.838,0 10.575,4.351 10.575,9.712 0,5.367 -4.737,9.712 -10.575,9.712 -5.838,0 -10.575,-4.352 -10.575,-9.712 0,-5.366 4.737,-9.712 10.575,-9.712 z m -5.091,194.279 c -4.847,0 -8.776,-4.908 -8.776,-10.967 0,-6.059 3.929,-10.967 8.776,-10.967 4.847,0 8.776,4.914 8.776,10.967 0,6.053 -3.929,10.967 -8.776,10.967 z m 101.53,55.363 c 0,0 32.589,15.036 31.334,23.5 -1.261,8.465 -18.489,6.892 -23.189,5.643 -2.809,-0.746 -5.643,0.734 -9.786,1.849 v 0 c -5.63,-1.909 -11.126,-4.069 -16.494,-6.432 -0.851,-7.204 2.148,-17.038 2.148,-17.038 0,0 -4.437,7.931 -10.27,13.237 -7.527,-3.728 -14.768,-7.883 -21.677,-12.467 -1.481,-0.985 -2.913,-2.031 -4.37,-3.054 -4.633,-3.629 -9.743,-8.213 -9.743,-12.772 0,-6.12 36.034,0 36.034,0 0,0 -43.244,-21.616 -42.925,-32.583 0.318,-10.967 11.903,-9.865 22.87,-9.553 10.967,0.312 15.355,-9.792 22.876,-6.971 7.521,2.821 10.343,23.464 10.967,41.952 0,0 8.77,-37.308 20.055,-34.486 11.279,2.821 12.222,20.674 12.222,20.674 0,0 16.922,10.961 17.234,23.183 0.322,12.208 -37.286,5.318 -37.286,5.318 z m 78.925,41.633 c 0.164,-1.469 0.416,-2.527 0.666,-2.784 0.943,-0.942 -5.955,-16.604 4.076,-17.234 10.031,-0.63 24.438,5.955 24.438,5.955 -8.146,-9.088 -17.547,-35.723 -8.146,-35.41 9.4,0.312 17.547,1.879 20.68,1.566 3.133,-0.313 10.973,-3.758 13.477,4.388 2.504,8.146 -12.852,31.335 -12.852,31.335 0,0 25.697,-16.922 33.531,-8.771 0.453,0.472 0.826,0.931 1.156,1.39 -23.306,11.101 -49.315,17.956 -77.026,19.565 z m 11.32,-85.716 c 0,-6.229 4.346,-11.279 9.713,-11.279 5.367,0 9.713,5.05 9.713,11.279 0,6.23 -4.346,11.279 -9.713,11.279 -5.367,0 -9.713,-5.049 -9.713,-11.279 z m 107.609,39.229 c 2.424,-6.347 7.191,-13.801 15.539,-21.787 -15.209,10.453 -32.908,15.667 -36.979,9.4 -4.068,-6.267 2.191,-15.667 3.764,-22.246 1.566,-6.579 -2.197,-24.132 8.459,-21.622 10.654,2.503 31.021,19.431 30.709,17.552 -0.311,-1.879 -13.787,-31.34 -2.814,-36.665 10.967,-5.324 18.176,-1.248 24.131,-3.445 4.535,-1.671 11.402,-5.661 14.432,-3.751 -11.383,32.454 -31.268,60.752 -57.241,82.564 z m 62.877,-101.94 c -56.678,23.727 -221.838,77.895 -390.848,-8.336 -0.863,-4.603 -1.579,-9.26 -2.112,-13.978 32.51,18.164 98.238,46.695 190.742,46.695 96.304,0 170.681,-27.785 205.735,-43.905 -0.843,6.628 -2.025,13.14 -3.517,19.524 z m 5.159,-44.456 c 0,3.109 -0.092,6.193 -0.232,9.26 -185.088,94.799 -330.97,33.029 -398.877,1.334 -0.135,-2.559 -0.184,-5.147 -0.22,-7.729 0.605,0.245 1.211,0.489 1.824,0.594 11.279,1.879 16.304,-18.801 30.086,-14.725 13.776,4.075 15.661,34.779 27.57,36.658 11.91,1.879 30.71,-25.067 41.365,-21.31 10.655,3.757 30.08,37.602 44.499,36.347 14.418,-1.255 30.71,-27.896 40.735,-27.111 10.024,0.789 33.849,28.427 47.319,27.142 13.47,-1.285 30.393,-33.17 37.283,-33.213 6.891,-0.037 35.092,28.795 46.377,25.655 11.285,-3.134 25.699,-40.11 33.213,-41.989 7.521,-1.879 33.844,16.297 43.244,13.164 1.715,-0.569 3.703,-2.295 5.797,-4.608 0.005,0.169 0.017,0.359 0.017,0.531 z m -0.282,-11.2 c -1.994,2.16 -3.887,3.751 -5.525,4.296 -9.4,3.134 -35.723,-15.043 -43.244,-13.164 -7.521,1.879 -21.936,38.855 -33.215,41.989 -11.277,3.134 -39.479,-25.698 -46.377,-25.655 -6.891,0.037 -23.818,31.922 -37.283,33.213 -13.469,1.286 -37.294,-26.353 -47.319,-27.142 -10.024,-0.783 -26.322,25.856 -40.735,27.111 -14.418,1.255 -33.843,-32.589 -44.498,-36.347 -10.655,-3.764 -29.456,23.188 -41.365,21.304 -11.91,-1.879 -13.789,-32.589 -27.571,-36.658 -13.782,-4.076 -18.807,16.609 -30.086,14.725 -0.569,-0.099 -1.132,-0.331 -1.695,-0.551 0.404,-11.255 1.622,-23.36 3.581,-36.065 32.84,14.749 100.845,39.119 191.764,39.119 106.275,0 165.882,-21.659 199.91,-40.19 1.871,11.91 3.139,23.341 3.658,34.015 z m -6.75,-51.286 c -192.107,80.233 -314.287,39.688 -386.093,3.861 0.899,-4.693 1.873,-9.437 2.95,-14.235 68.538,28.966 215.37,68.122 380.297,-2.827 1.022,4.443 1.971,8.844 2.846,13.201 z m -14.615,-55.943 c 2.547,8.005 4.879,15.973 7.014,23.88 -1.939,1.512 -4.289,2.423 -6.842,2.423 -6.578,0 -11.91,-5.894 -11.91,-13.158 0,-7.208 5.246,-13.047 11.738,-13.145 z m -36.389,-43.574 c -9.664,-4.315 -4.523,-42.344 -4.523,-42.344 0,0 -13.979,28.984 -23.225,23.231 -9.248,-5.753 -3.912,-19.119 -5.961,-22.613 -2.057,-3.495 -8.434,-3.697 -10.074,-10.074 -1.633,-6.34 13.225,-9.418 37.271,-5.398 1.658,3.005 3.316,6.065 4.969,9.223 5.986,11.39 11.604,23.274 16.873,35.392 -4.418,5.753 -8.078,15.827 -15.33,12.583 z" /></g></g></svg>