<?xml version="1.0" encoding="UTF-8" standalone="no"?>
<!-- Generator: Adobe Illustrator 16.0.0, SVG Export Plug-In . SVG Version: 6.00 Build 0)  -->

<svg
   xmlns:dc="http://purl.org/dc/elements/1.1/"
   xmlns:cc="http://creativecommons.org/ns#"
   xmlns:rdf="http://www.w3.org/1999/02/22-rdf-syntax-ns#"
   xmlns:svg="http://www.w3.org/2000/svg"
   xmlns="http://www.w3.org/2000/svg"
   xmlns:xlink="http://www.w3.org/1999/xlink"
   xmlns:sodipodi="http://sodipodi.sourceforge.net/DTD/sodipodi-0.dtd"
   xmlns:inkscape="http://www.inkscape.org/namespaces/inkscape"
   version="1.1"
   id="Capa_1"
   x="0px"
   y="0px"
   width="544.975px"
   height="544.975px"
   viewBox="0 0 544.975 544.975"
   style="enable-background:new 0 0 544.975 544.975;"
   xml:space="preserve"
   sodipodi:docname="EasterBunnyEgg.svg"
   inkscape:version="0.92.2 5c3e80d, 2017-08-06"><metadata
     id="metadata3125"><rdf:RDF><cc:Work
         rdf:about=""><dc:format>image/svg+xml</dc:format><dc:type
           rdf:resource="http://purl.org/dc/dcmitype/StillImage" /><dc:title /></cc:Work></rdf:RDF></metadata><defs
     id="defs3123"><inkscape:perspective
       sodipodi:type="inkscape:persp3d"
       inkscape:vp_x="0 : 272.4875 : 1"
       inkscape:vp_y="0 : 1000 : 0"
       inkscape:vp_z="544.975 : 272.4875 : 1"
       inkscape:persp3d-origin="272.4875 : 181.65833 : 1"
       id="perspective1028" /></defs><sodipodi:namedview
     pagecolor="#ffffff"
     bordercolor="#666666"
     borderopacity="1"
     objecttolerance="10"
     gridtolerance="10"
     guidetolerance="10"
     inkscape:pageopacity="0"
     inkscape:pageshadow="2"
     inkscape:window-width="1363"
     inkscape:window-height="776"
     id="namedview3121"
     showgrid="false"
     inkscape:zoom="1.034834"
     inkscape:cx="360.82199"
     inkscape:cy="120.59954"
     inkscape:window-x="0"
     inkscape:window-y="0"
     inkscape:window-maximized="0"
     inkscape:current-layer="Capa_1" /><g
     id="g3088"
     transform="matrix(0,0.1073828,-0.1073828,0,140.46554,468.64603)"
     style="stroke-width:9.31247807" /><g
     id="g3090" /><g
     id="g3092" /><g
     id="g3094" /><g
     id="g3096" /><g
     id="g3098"
     style="display:inline" /><g
     id="g3100" /><g
     id="g3102" /><g
     id="g3104" /><g
     id="g3106" /><g
     id="g3108" /><g
     id="g3110" /><g
     id="g3112" /><g
     id="g3114" /><g
     id="g3116" /><g
     id="g3118" /><g
     style="stroke-width:9.31247807"
     transform="matrix(0,0.1073828,-0.1073828,0,102.89913,444.0044)"
     id="g922"><g
       style="stroke-width:9.31247807"
       id="g920"><path
         style="stroke-width:9.31247807"
         inkscape:connector-curvature="0"
         id="path906"
         d="m 190.183,526.613 c 0.006,0 0.012,0 0.019,0 -5.729,-6.119 -11.359,-5.82 -16.873,-9.148 5.513,3.322 11.131,3.029 16.854,9.148 z" /><path
         style="stroke-width:9.31247807"
         inkscape:connector-curvature="0"
         id="path908"
         d="m 411.769,105.986 c 0,0 -0.006,0.012 -0.006,0.006 0.043,0.061 0.086,0.116 0.129,0.177 -0.038,-0.066 -0.08,-0.122 -0.123,-0.183 z" /><path
         style="stroke-width:9.31247807"
         inkscape:connector-curvature="0"
         id="path910"
         d="m 266.371,0.171 c 1.242,-0.042 2.485,-0.141 3.727,-0.146 -0.245,0 -0.532,-0.025 -0.771,-0.025 -2.167,0 -3.825,0.062 -5.557,0.184 0.862,-0.018 1.731,-0.018 2.601,-0.013 z" /><path
         style="stroke-width:9.31247807"
         inkscape:connector-curvature="0"
         id="path914"
         d="m 299.675,541.045 c 0.031,-0.012 0.074,-0.031 0.104,-0.043 0,0 -0.006,0 -0.013,0 -0.024,0.012 -0.06,0.031 -0.091,0.043 z" /><path
         style="stroke-width:9.31247807"
         inkscape:connector-curvature="0"
         id="path916"
         d="m 281.187,532.146 c 0.067,-0.006 0.129,0.031 0.196,0.037 0,0 0,-0.012 0.006,-0.012 -0.074,0.099 -0.135,-0.116 -0.202,-0.025 z" /><path
         style="stroke-width:9.31247807"
         inkscape:connector-curvature="0"
         id="path918"
         d="m 284.234,531.062 c -0.013,0 -0.03,0 -0.043,0.006 -0.073,0.092 -0.122,0.203 -0.202,0.289 -0.343,0.422 -0.624,0.746 -0.948,1.131 0.03,0.014 0.067,0.014 0.098,0.02 0.312,-0.416 0.557,-0.766 0.918,-1.242 0.048,-0.063 0.129,-0.135 0.177,-0.204 z" /></g></g><g
     style="stroke-width:9.31247807"
     transform="matrix(0,0.1073828,-0.1073828,0,97.1011,437.7232)"
     id="g949"><g
       style="stroke-width:9.31247807"
       id="g947"><path
         style="stroke-width:9.31247807"
         inkscape:connector-curvature="0"
         id="path933"
         d="m 190.183,526.613 c 0.006,0 0.012,0 0.019,0 -5.729,-6.119 -11.359,-5.82 -16.873,-9.148 5.513,3.322 11.131,3.029 16.854,9.148 z" /><path
         style="stroke-width:9.31247807"
         inkscape:connector-curvature="0"
         id="path935"
         d="m 411.769,105.986 c 0,0 -0.006,0.012 -0.006,0.006 0.043,0.061 0.086,0.116 0.129,0.177 -0.038,-0.066 -0.08,-0.122 -0.123,-0.183 z" /><path
         style="stroke-width:9.31247807"
         inkscape:connector-curvature="0"
         id="path937"
         d="m 266.371,0.171 c 1.242,-0.042 2.485,-0.141 3.727,-0.146 -0.245,0 -0.532,-0.025 -0.771,-0.025 -2.167,0 -3.825,0.062 -5.557,0.184 0.862,-0.018 1.731,-0.018 2.601,-0.013 z" /><path
         style="stroke-width:9.31247807"
         inkscape:connector-curvature="0"
         id="path941"
         d="m 299.675,541.045 c 0.031,-0.012 0.074,-0.031 0.104,-0.043 0,0 -0.006,0 -0.013,0 -0.024,0.012 -0.06,0.031 -0.091,0.043 z" /><path
         style="stroke-width:9.31247807"
         inkscape:connector-curvature="0"
         id="path943"
         d="m 281.187,532.146 c 0.067,-0.006 0.129,0.031 0.196,0.037 0,0 0,-0.012 0.006,-0.012 -0.074,0.099 -0.135,-0.116 -0.202,-0.025 z" /><path
         style="stroke-width:9.31247807"
         inkscape:connector-curvature="0"
         id="path945"
         d="m 284.234,531.062 c -0.013,0 -0.03,0 -0.043,0.006 -0.073,0.092 -0.122,0.203 -0.202,0.289 -0.343,0.422 -0.624,0.746 -0.948,1.131 0.03,0.014 0.067,0.014 0.098,0.02 0.312,-0.416 0.557,-0.766 0.918,-1.242 0.048,-0.063 0.129,-0.135 0.177,-0.204 z" /></g></g><g
     style="stroke-width:9.31247807"
     transform="matrix(0,0.1073828,-0.1073828,0,68.714904,480.48368)"
     id="g976"><g
       style="stroke-width:9.31247807"
       id="g974"><path
         style="stroke-width:9.31247807"
         inkscape:connector-curvature="0"
         id="path960"
         d="m 190.183,526.613 c 0.006,0 0.012,0 0.019,0 -5.729,-6.119 -11.359,-5.82 -16.873,-9.148 5.513,3.322 11.131,3.029 16.854,9.148 z" /><path
         style="stroke-width:9.31247807"
         inkscape:connector-curvature="0"
         id="path962"
         d="m 411.769,105.986 c 0,0 -0.006,0.012 -0.006,0.006 0.043,0.061 0.086,0.116 0.129,0.177 -0.038,-0.066 -0.08,-0.122 -0.123,-0.183 z" /><path
         style="stroke-width:9.31247807"
         inkscape:connector-curvature="0"
         id="path964"
         d="m 266.371,0.171 c 1.242,-0.042 2.485,-0.141 3.727,-0.146 -0.245,0 -0.532,-0.025 -0.771,-0.025 -2.167,0 -3.825,0.062 -5.557,0.184 0.862,-0.018 1.731,-0.018 2.601,-0.013 z" /><path
         style="stroke-width:9.31247807"
         inkscape:connector-curvature="0"
         id="path968"
         d="m 299.675,541.045 c 0.031,-0.012 0.074,-0.031 0.104,-0.043 0,0 -0.006,0 -0.013,0 -0.024,0.012 -0.06,0.031 -0.091,0.043 z" /><path
         style="stroke-width:9.31247807"
         inkscape:connector-curvature="0"
         id="path970"
         d="m 281.187,532.146 c 0.067,-0.006 0.129,0.031 0.196,0.037 0,0 0,-0.012 0.006,-0.012 -0.074,0.099 -0.135,-0.116 -0.202,-0.025 z" /><path
         style="stroke-width:9.31247807"
         inkscape:connector-curvature="0"
         id="path972"
         d="m 284.234,531.062 c -0.013,0 -0.03,0 -0.043,0.006 -0.073,0.092 -0.122,0.203 -0.202,0.289 -0.343,0.422 -0.624,0.746 -0.948,1.131 0.03,0.014 0.067,0.014 0.098,0.02 0.312,-0.416 0.557,-0.766 0.918,-1.242 0.048,-0.063 0.129,-0.135 0.177,-0.204 z" /></g></g><g
     style="stroke-width:9.31247807"
     transform="matrix(0,0.1073828,-0.1073828,0,113.16002,448.28361)"
     id="g994"><g
       style="stroke-width:9.31247807"
       id="g992" /></g><g
     style="stroke-width:2.46392632"
     transform="matrix(0,0.40585627,-0.40585627,0,236.55595,333.70379)"
     id="g1024"><g
       style="stroke-width:2.46392632"
       id="g1022"><path
         style="stroke-width:2.46392632"
         inkscape:connector-curvature="0"
         id="path1008"
         d="m 190.183,526.613 c 0.006,0 0.012,0 0.019,0 -5.729,-6.119 -11.359,-5.82 -16.873,-9.148 5.513,3.322 11.131,3.029 16.854,9.148 z" /><path
         style="stroke-width:2.46392632"
         inkscape:connector-curvature="0"
         id="path1010"
         d="m 411.769,105.986 c 0,0 -0.006,0.012 -0.006,0.006 0.043,0.061 0.086,0.116 0.129,0.177 -0.038,-0.066 -0.08,-0.122 -0.123,-0.183 z" /><path
         style="stroke-width:2.46392632"
         inkscape:connector-curvature="0"
         id="path1012"
         d="m 266.371,0.171 c 1.242,-0.042 2.485,-0.141 3.727,-0.146 -0.245,0 -0.532,-0.025 -0.771,-0.025 -2.167,0 -3.825,0.062 -5.557,0.184 0.862,-0.018 1.731,-0.018 2.601,-0.013 z" /><path
         style="stroke-width:2.46392632"
         inkscape:connector-curvature="0"
         id="path1014"
         d="m 371.989,41.769 c 2.846,2.301 5.673,4.651 8.458,7.234 -2.797,-2.595 -5.637,-4.963 -8.501,-7.271 -0.661,-0.557 -1.267,-1.175 -1.94,-1.72 -2.687,-2.209 -5.465,-4.314 -8.286,-6.377 -1.15,-0.906 -2.295,-1.805 -3.458,-2.742 -0.006,0 -0.006,0 -0.012,0 1.126,0.912 2.246,1.787 3.372,2.668 -27.712,-20.25 -61.286,-33.187 -95.251,-33.39 -1.683,0.055 -3.36,0.067 -5.043,0.202 0.863,-0.08 1.659,-0.141 2.442,-0.196 -5,0.067 -10.006,0.379 -14.994,1.022 3.476,-0.123 6.953,-0.239 10.435,-0.361 -40,3.997 -76.971,25.417 -104.835,54.389 -27.864,28.972 -47.308,65.111 -62.014,102.522 -25.123,63.923 -37.228,134.456 -23.948,201.838 13.801,69.975 56.818,133.789 121.794,165.195 4.253,2.057 8.556,3.955 12.852,5.674 8.176,3.268 16.494,5.955 24.835,8.029 0.734,0.184 1.463,0.367 2.289,0.57 0.08,0.018 0.153,0.035 0.232,0.055 -0.024,-0.006 -1.573,-0.02 -1.597,-0.025 3.072,0.734 7.735,1.377 7.735,1.947 6.12,0.029 1.861,0.066 2.026,0.098 -0.006,-0.006 0.759,-0.006 0.753,-0.012 1.952,0.348 4.284,0.654 6.242,0.936 5.343,0.777 10.563,1.23 15.643,1.523 2.417,0.16 5,0.264 7.54,0.301 0.331,0 0.673,0.037 1.004,0.037 0.171,0 0.367,-0.008 0.539,-0.014 0.312,0 0.63,0.02 0.942,0.02 0.624,0 1.175,-0.062 1.787,-0.068 1.945,-0.037 3.873,0.766 5.808,0.656 1.934,-0.092 3.837,0.465 5.667,0.465 h 4.957 c -0.116,0 -0.239,-1.133 -0.361,-1.115 0.08,0.025 0.006,-0.537 0.264,-0.537 0.152,0 0.36,-0.301 0.587,-0.318 0.116,0.006 0.208,-0.117 0.349,-0.117 0.649,0 1.653,-0.227 3.207,-0.594 0.423,-0.098 0.888,-0.256 1.401,-0.391 1.635,-0.232 3.231,-0.613 4.859,-0.889 1.714,-0.686 3.728,-1.555 6.23,-2.564 2.43,-0.801 5.208,-1.736 8.47,-2.852 -6.628,2.338 -11.529,4.145 -14.693,5.404 7.784,-1.309 15.471,-2.969 22.925,-5.207 0.331,-0.08 0.631,-0.16 0.967,-0.24 1.524,-0.361 3.072,-0.764 4.731,-1.199 7.313,-2.424 14.535,-5.342 21.609,-8.646 3.023,-1.408 6.022,-2.889 9.033,-4.463 15.453,-3.432 34.584,-21.676 45.918,-32.203 13.722,-12.742 25.711,-27.295 35.852,-43.023 20.697,-32.1 33.764,-69.051 38.728,-106.879 8.653,-65.906 -5.992,-133.453 -33.55,-193.943 C 428.269,106.292 404.657,69.285 371.989,41.769 Z m 53.697,87.431 c 6.359,11.671 12.186,24.015 17.351,37.026 0.11,0.288 0.221,0.569 0.33,0.857 -5.293,-13.452 -11.304,-26.182 -17.87,-38.201 0.066,0.11 0.128,0.207 0.189,0.318 z m -0.808,-1.341 c -0.881,-1.665 -1.75,-3.372 -2.649,-5.006 0.905,0.6 1.768,3.017 2.649,5.006 z M 384.223,83.22 c 1.609,-1.8 4.106,-2.632 6.377,-2.399 1.2,0.11 2.351,0.483 3.409,1.034 1.414,1.708 2.834,3.397 4.217,5.159 -0.006,-0.012 -0.006,-0.024 -0.013,-0.037 2.289,2.907 4.498,5.967 6.702,9.033 0.049,0.08 0.104,0.153 0.152,0.232 -2.252,-3.133 -4.51,-6.254 -6.848,-9.229 0.343,0.9 0.654,1.818 0.838,2.791 0.184,1.065 0.294,2.185 -0.019,3.317 -0.269,1.132 -1.242,2.203 -2.404,2.454 -1.139,0.294 -2.24,0.11 -3.263,-0.147 -1.034,-0.275 -2.007,-0.63 -2.919,-1.249 -0.899,-0.563 -1.622,-1.701 -1.328,-2.803 0.238,-1.065 0.937,-1.91 1.683,-2.589 -0.691,0.747 -1.285,1.652 -1.407,2.632 -0.141,1.003 0.483,1.86 1.328,2.338 1.683,0.887 3.904,1.432 5.637,0.936 1.812,-0.557 1.909,-2.815 1.456,-4.651 -0.22,-0.949 -0.557,-1.879 -0.967,-2.785 -0.403,-0.912 -0.845,-1.781 -1.469,-2.417 -2.509,-2.693 -7.399,-2.974 -9.627,-0.245 -2.246,2.68 -1.958,7.24 -0.856,10.716 1.242,3.604 4.015,6.561 7.35,8.647 3.317,2.154 7.124,3.599 10.992,4.762 3.886,1.163 7.9,1.958 11.946,2.515 0.024,0.006 0.043,0.006 0.067,0.006 -1.139,-1.806 -2.345,-3.507 -3.507,-5.27 0,0 0,-0.006 0,0 -0.013,-0.019 -0.024,-0.031 -0.037,-0.049 -1.964,-2.975 -3.941,-5.931 -5.973,-8.789 -0.049,-0.073 -0.092,-0.141 -0.141,-0.208 2.099,2.938 4.131,5.973 6.156,9.039 0.049,0.031 0.098,-0.257 0.146,-0.189 1.133,1.713 2.289,4.676 3.385,4.676 -0.006,0 -0.013,0 -0.019,0 0.245,0 0.496,1.181 0.74,1.573 -4.437,-0.288 -8.861,-0.704 -13.225,-1.738 -4.046,-0.991 -8.042,-2.332 -11.689,-4.565 -3.604,-2.222 -6.903,-5.465 -8.323,-9.719 -0.354,-1.059 -0.588,-2.099 -0.729,-3.213 -0.135,-0.973 -0.202,-2.16 -0.159,-3.237 0.107,-2.177 0.701,-4.545 2.341,-6.332 z M 367.479,72.253 c 2.84,2.148 5.178,5.067 6.279,8.507 0.557,1.708 0.746,3.549 0.508,5.324 -0.245,1.769 -0.869,3.611 -2.393,4.75 -1.506,1.132 -3.464,1.193 -5.159,0.887 -1.732,-0.318 -3.366,-0.961 -4.891,-1.787 1.567,0.728 3.238,1.267 4.934,1.469 1.67,0.208 3.494,0.043 4.755,-1.022 1.285,-1.016 1.793,-2.778 1.952,-4.388 0.159,-1.658 -0.073,-3.348 -0.648,-4.914 -1.157,-3.14 -3.403,-5.838 -6.108,-7.785 -2.698,-1.94 -6.003,-3.226 -9.223,-2.987 -3.256,0.184 -5.979,2.393 -7.276,5.374 -1.377,2.962 -1.726,6.389 -1.763,9.749 -0.006,1.708 0.08,3.354 0.251,5.092 0.141,1.555 0.697,3.072 1.523,4.449 1.671,2.767 4.291,4.97 7.081,6.836 2.81,1.867 5.869,3.397 8.997,4.774 3.114,1.401 6.327,2.625 9.577,3.739 6.512,2.222 13.183,4.002 19.908,5.563 6.702,1.634 13.482,3.029 20.294,4.253 1.695,0.318 3.409,0.863 5.104,1.157 0.092,0.159 0.184,0.44 0.275,0.716 -8.745,-1.064 -17.454,-2.466 -26.102,-4.241 -6.787,-1.494 -13.538,-3.219 -20.166,-5.392 -6.615,-2.191 -13.194,-4.773 -19.101,-8.764 -2.919,-2.001 -5.74,-4.376 -7.644,-7.589 -0.937,-1.604 -1.585,-3.421 -1.744,-5.331 -0.153,-1.701 -0.245,-3.525 -0.221,-5.275 0.056,-3.525 0.509,-7.172 2.13,-10.496 0.809,-1.652 1.971,-3.188 3.513,-4.303 1.53,-1.12 3.409,-1.731 5.264,-1.83 3.741,-0.177 7.248,1.341 10.094,3.465 z M 272.503,12.301 c -0.012,0 -0.024,0 -0.031,0 -0.019,-0.153 -0.037,-0.269 -0.061,-0.416 0.03,0.147 0.061,0.263 0.092,0.416 z m -0.245,-1.119 c 0.037,0.238 0.067,0.489 0.104,0.752 -0.643,-2.931 -1.236,-5.049 -1.824,-6.505 0.147,0.269 0.294,0.514 0.441,0.79 0.41,1.278 0.832,2.937 1.279,4.963 z m -1.916,-6.671 c 0.067,0.147 0.135,0.349 0.202,0.52 -0.073,-0.141 -0.147,-0.281 -0.22,-0.44 0.006,-0.031 0.012,-0.056 0.018,-0.08 z m -14.822,8.88 c 0.006,0 0.012,0 0.018,0 -1.145,1.885 -2.289,3.935 -3.299,5.9 0.043,-0.092 0.08,-0.171 0.123,-0.27 0.998,-2.081 1.818,-3.929 2.497,-5.551 0.22,-0.03 0.44,-0.049 0.661,-0.079 z m -56.347,34.571 c 0.098,-0.159 7.313,-11.457 17.161,-22.234 1.873,-0.906 3.746,-1.775 5.624,-2.588 -7.534,7.497 -14.002,16.102 -17.656,21.31 8.464,-5.698 25.851,-17.944 34.15,-27.326 0.061,-0.019 0.128,-0.031 0.189,-0.049 1.267,-0.367 2.54,-0.71 3.807,-1.035 0.031,-0.006 0.055,-0.018 0.086,-0.024 -0.349,0.392 -0.661,0.734 -1.022,1.145 -8.403,9.106 -14.253,23.868 -16.781,31.102 6.524,-6.316 20.918,-20.918 25.404,-30.955 0.575,-1.2 1.089,-2.289 1.554,-3.292 0.067,-0.012 0.135,-0.031 0.202,-0.043 0.845,-0.147 1.689,-0.312 2.534,-0.44 -0.624,1.383 -1.334,2.907 -2.191,4.694 -0.006,0.018 -0.012,0.031 -0.019,0.043 -0.012,0.03 -0.03,0.061 -0.049,0.092 -5.336,9.761 -6.267,25.202 -6.401,32.246 0.024,-0.043 0.067,-0.104 0.092,-0.147 4.308,-6.616 13.623,-21.897 14.816,-32.075 0.012,-0.055 0.019,-0.11 0.024,-0.166 v -0.006 c 0.128,-0.704 0.239,-1.242 0.361,-1.879 0.049,-0.275 0.104,-0.545 0.153,-0.808 0.141,-1.077 0.245,-2.014 0.331,-2.852 0.08,-0.006 0.165,-0.024 0.245,-0.031 0.067,-0.006 0.135,-0.019 0.202,-0.024 0.587,-0.049 1.169,-0.055 1.756,-0.092 0.135,-0.006 0.269,-0.006 0.404,-0.019 -0.379,1.757 -0.783,3.807 -1.199,6.145 -2.148,10.171 2.105,25.949 4.204,32.754 2.099,-6.805 6.359,-22.577 4.21,-32.717 -0.44,-2.467 -0.863,-4.596 -1.267,-6.426 0.147,0 0.288,-0.018 0.435,-0.018 0.073,0 0.141,-0.006 0.214,-0.006 0.551,0 1.114,0.061 1.665,0.067 0.012,0.085 0.024,0.141 0.03,0.226 0.019,0 0.031,0 0.049,0 0.355,1.659 0.722,3.477 1.125,5.716 0.331,1.555 0.514,3.225 0.587,4.958 -0.061,-1.646 -0.25,-3.207 -0.525,-4.67 -0.013,-0.08 -0.043,-0.177 -0.049,-0.257 -0.043,-0.282 -0.067,-0.496 -0.104,-0.765 -0.354,-1.971 -0.691,-3.678 -1.009,-5.208 0.116,0 0.232,0.012 0.349,0.012 0.159,1.457 0.374,3.17 0.667,5.196 0.031,0.184 0.062,0.324 0.099,0.514 0.03,0.159 0.03,0.349 0.061,0.508 1.298,10.275 10.631,25.557 14.872,32.062 -0.135,-7.062 -1.071,-22.552 -6.427,-32.283 -0.942,-1.83 -1.995,-3.855 -3.054,-5.765 0.123,0.006 0.251,-0.019 0.386,-0.019 0.019,0 0.043,0 0.062,0 0.771,0 1.548,0.239 2.319,0.318 0.092,0.012 0.869,0.043 0.967,0.049 0.575,1.279 2.699,2.674 2.699,4.327 v 0.006 c 0,0.013 -0.674,0.031 -0.661,0.043 4.511,10.062 18.55,24.651 25.073,30.967 -2.515,-7.209 -8.519,-21.897 -16.86,-30.998 -0.037,-0.049 -0.171,-0.098 -0.208,-0.141 -0.013,-0.012 -0.062,-0.024 -0.073,-0.037 -0.967,-1.096 -1.897,-2.105 -2.754,-3.06 0.073,0.012 0.128,0.031 0.202,0.043 1.175,0.208 2.344,0.465 3.519,0.71 0.019,0.006 0.037,0.006 0.062,0.012 0.232,0.275 0.422,0.508 0.667,0.795 0.019,0.019 0.03,0.037 0.049,0.055 0.03,0.037 0.062,0.073 0.092,0.11 7.741,9.535 26.53,22.729 35.397,28.703 -4.474,-6.377 -13.151,-17.846 -22.864,-26.126 0.178,0.062 0.355,0.135 0.539,0.19 1.646,0.544 3.292,1.145 4.938,1.763 1.787,0.667 3.568,1.383 5.35,2.129 9.015,5.417 19.406,10.827 27.136,14.658 3.696,2.448 7.356,5.043 10.979,7.821 l -0.734,-0.336 c -1.157,-0.539 -22.118,-10.233 -38.568,-20.141 10.465,11.145 18.25,23.391 18.354,23.556 l 2.742,4.345 -4.321,-2.772 c -0.954,-0.606 -18.372,-11.818 -31.114,-22.828 6.77,11.708 10.527,24.456 10.735,25.171 l 1.144,3.917 -3.011,-2.754 c -0.734,-0.673 -14.29,-13.158 -23.151,-25.019 3.072,12.259 2.705,25.649 2.68,26.384 l -0.109,3.427 -1.971,-2.803 c -0.508,-0.716 -9.799,-14.039 -14.64,-26.426 -0.825,12.503 -5.624,26.139 -5.887,26.873 l -1.089,3.029 -1.077,-3.017 c -0.263,-0.734 -5.055,-14.357 -5.881,-26.873 -4.841,12.369 -14.137,25.71 -14.645,26.426 l -1.971,2.803 -0.11,-3.428 c -0.025,-0.734 -0.392,-14.112 2.68,-26.377 -8.849,11.854 -22.411,24.339 -23.146,25.013 l -3.011,2.754 1.138,-3.917 c 0.208,-0.71 3.966,-13.452 10.735,-25.171 -12.736,11.003 -30.166,22.222 -31.114,22.828 l -4.321,2.772 z m 30.361,91.629 c -0.63,0.336 -1.365,0.202 -1.64,-0.312 -0.269,-0.514 0.019,-1.206 0.649,-1.542 0.636,-0.331 1.371,-0.196 1.64,0.318 0.275,0.508 -0.018,1.194 -0.649,1.536 z m 0.41,10.325 c -0.098,0.435 -0.661,0.68 -1.261,0.545 -0.606,-0.135 -1.016,-0.594 -0.912,-1.028 0.092,-0.428 0.655,-0.679 1.261,-0.544 0.606,0.139 1.01,0.598 0.912,1.027 z m -11.726,-5.888 c -0.232,2.167 -5.74,5.128 -5.74,5.128 3.017,-1.003 7.075,3.06 7.075,3.06 0,0 1.579,1.634 0.44,0.985 -1.138,-0.655 -3.452,-1.542 -5.655,-0.704 -3.446,1.31 -11.536,3.794 -14.296,-2.546 -2.76,-6.334 10.08,-10.863 10.08,-10.863 2.02,-0.783 2.105,-5.771 2.105,-5.771 2.362,1.787 1.444,8.396 -1.188,9.865 4.352,-1.185 7.179,0.846 7.179,0.846 z m 0.068,-5.869 c 0.655,-0.942 1.083,-1.885 1.065,-3.225 0.44,0.502 0.637,1.218 0.587,1.928 -0.037,0.716 -0.336,1.383 -0.71,1.946 -0.795,1.107 -1.916,1.909 -3.219,2.197 0.826,-1.034 1.646,-1.891 2.277,-2.846 z m -0.563,-6.603 c 0.061,-0.82 0.686,-1.438 1.389,-1.383 0.71,0.049 1.23,0.759 1.169,1.573 -0.061,0.814 -0.686,1.438 -1.389,1.389 -0.71,-0.055 -1.23,-0.759 -1.169,-1.579 z m 4.804,9.779 c 0.502,-0.202 0.998,-0.398 1.524,-0.526 0.52,-0.147 1.059,-0.232 1.622,-0.318 -0.343,0.502 -0.814,0.808 -1.261,1.12 -0.453,0.318 -0.942,0.545 -1.432,0.771 -1.004,0.398 -2.038,0.722 -3.201,0.722 0.826,-0.82 1.775,-1.334 2.748,-1.769 z m -4.278,5.882 c 1.316,-0.655 2.791,-0.808 4.235,-0.667 0.722,0.098 1.444,0.263 2.118,0.587 0.667,0.318 1.297,0.759 1.713,1.371 -1.377,-0.465 -2.625,-0.673 -3.959,-0.82 -1.335,-0.171 -2.675,-0.239 -4.107,-0.471 z m -87.198,-42.1 c 1.512,0.618 3.005,1.292 4.56,1.781 5,1.542 10.196,2.497 15.379,2.234 1.285,-0.062 2.595,-0.19 3.837,-0.392 1.315,-0.226 2.625,-0.471 3.88,-0.752 2.552,-0.569 5.073,-1.298 7.528,-2.185 4.914,-1.738 9.639,-4.106 13.739,-7.289 4.088,-3.164 7.631,-7.185 9.48,-11.94 0.887,-2.35 1.328,-4.951 0.704,-7.319 -0.618,-2.362 -2.546,-4.248 -4.902,-5.141 -2.338,-0.936 -5.067,-1.077 -7.528,-0.293 -2.448,0.752 -4.633,2.711 -5.208,5.367 0.184,-1.322 0.747,-2.607 1.634,-3.647 0.906,-1.028 2.087,-1.799 3.36,-2.308 2.558,-1.003 5.471,-1.083 8.14,-0.208 2.644,0.863 5.062,2.975 5.924,5.802 0.863,2.785 0.44,5.734 -0.429,8.354 -1.805,5.331 -5.661,9.572 -9.877,12.974 -4.278,3.409 -9.162,5.961 -14.272,7.797 -2.564,0.894 -5.184,1.604 -7.839,2.161 -1.347,0.288 -2.663,0.508 -3.972,0.722 -1.389,0.202 -2.735,0.324 -4.113,0.373 -5.477,0.19 -10.936,-0.808 -16.022,-2.656 -1.659,-0.606 -3.244,-1.377 -4.841,-2.105 0.287,-0.448 0.557,-0.895 0.838,-1.33 z M 93.267,189.8 c 0.893,1.775 1.199,3.152 1.414,4.859 0.336,3.415 0.416,6.64 -0.263,10.012 -0.416,1.713 -0.667,3.183 -1.567,4.664 -0.906,1.401 -3.176,2.821 -3.176,3.017 v -0.232 c 0,-0.337 1.818,-1.836 2.509,-3.231 0.679,-1.451 0.379,-3.066 0.649,-4.608 0.428,-3.188 0.238,-6.53 -0.184,-9.719 -0.129,-0.808 -0.031,-1.609 -0.153,-2.375 0.251,-0.985 0.331,-2.179 0.612,-2.179 h -0.227 c 0.116,0.006 0.306,-0.355 0.386,-0.208 z m -15.735,80.747 c 0.734,-8.66 1.695,-17.234 2.938,-25.679 0.153,-1.047 0.796,-2.081 0.955,-3.121 2.02,-13.018 2.129,-25.753 8.25,-38.152 0,-0.006 0,-0.006 0,-0.012 0,-0.453 0.086,-0.875 0.123,-1.31 -0.037,0.453 -0.123,0.906 -0.123,1.358 0,0.006 0,0.006 0,0.012 -6.12,12.393 -6.224,25.135 -8.237,38.146 0.6,5.398 1.218,10.771 2.423,16.071 1.457,6.487 3.28,12.852 5.147,19.223 2.13,7.368 4.302,14.706 6.573,22.038 -0.826,-4.082 -1.493,-8.207 -1.879,-12.369 -1.762,-17.759 -0.771,-35.783 2.883,-53.28 3.739,-17.448 10.006,-34.56 19.89,-49.609 4.938,-7.497 10.777,-14.498 17.766,-20.275 6.983,-5.716 15.233,-10.184 24.241,-11.922 4.511,-0.863 9.021,-1.016 13.562,-0.881 4.523,0.208 9.113,0.924 13.391,2.699 4.253,1.738 8.213,4.779 10.398,8.972 2.222,4.162 2.631,9.058 1.75,13.55 -0.912,4.474 -2.907,8.855 -6.432,11.971 -0.875,0.759 -1.94,1.414 -3.011,1.817 -1.041,0.429 -2.13,0.814 -3.213,1.132 -2.179,0.637 -4.431,1.028 -6.714,1.089 -4.522,0.135 -9.247,-1.157 -12.662,-4.235 -1.683,-1.524 -3.011,-3.525 -3.476,-5.771 -0.49,-2.246 0.073,-4.651 1.407,-6.469 l 0.184,0.128 c -1.242,1.818 -1.689,4.131 -1.157,6.243 0.508,2.118 1.824,3.972 3.47,5.374 3.348,2.827 7.876,3.88 12.191,3.666 2.167,-0.104 4.327,-0.514 6.408,-1.163 2.069,-0.71 4.192,-1.365 5.716,-2.797 3.14,-2.864 4.994,-7.069 5.752,-11.273 0.753,-4.229 0.257,-8.715 -1.812,-12.399 -2.032,-3.721 -5.605,-6.389 -9.578,-7.931 -3.99,-1.579 -8.36,-2.154 -12.705,-2.32 -4.345,-0.116 -8.788,0.055 -13.023,0.888 -8.537,1.677 -16.42,5.955 -23.152,11.505 -6.793,5.533 -12.564,12.295 -17.473,19.608 -9.755,14.713 -16.426,31.426 -20.429,48.679 -4.002,17.265 -5.367,35.239 -3.452,52.907 1.695,17.742 8.293,34.566 16.279,50.332 0.41,0.82 0.881,1.609 1.304,2.424 -0.324,-0.906 -0.722,-1.781 -1.022,-2.693 -1.812,-5.771 -3.25,-11.715 -3.69,-17.791 -0.435,-6.07 0,-12.18 1.193,-18.109 1.169,-5.93 3.207,-11.713 6.353,-16.953 3.091,-5.17 6.75,-10.177 11.604,-14.063 2.417,-1.928 5.141,-3.58 8.176,-4.565 3.017,-1.004 6.359,-1.206 9.511,-0.526 3.139,0.716 6.059,2.215 8.452,4.296 1.193,1.059 2.276,2.185 3.188,3.587 0.924,1.413 1.353,3.127 1.383,4.754 0.037,3.287 -1.328,6.377 -3.464,8.697 -1.083,1.145 -2.43,2.08 -3.959,2.521 -1.518,0.477 -3.188,0.312 -4.572,-0.33 l 0.086,-0.215 c 1.42,0.436 2.931,0.41 4.241,-0.158 1.328,-0.527 2.43,-1.494 3.335,-2.59 1.781,-2.215 2.711,-5.135 2.54,-7.852 -0.092,-1.365 -0.49,-2.662 -1.261,-3.739 -0.771,-1.083 -1.83,-2.112 -2.932,-2.987 -2.228,-1.75 -4.804,-3.06 -7.546,-3.604 -5.508,-1.212 -11.285,0.863 -15.857,4.4 -4.626,3.543 -8.452,8.17 -11.873,13.053 -3.378,4.859 -5.655,10.533 -6.671,16.402 -1.01,5.9 -0.777,11.916 -0.031,17.791 1.175,9.871 3.77,19.553 7.265,28.953 2.369,4.199 4.823,8.348 7.369,12.436 4.669,7.547 9.657,14.902 14.877,22.088 5.239,7.172 10.594,14.266 16.23,21.145 5.643,6.867 11.316,13.732 17.442,20.178 l -0.159,0.164 c -12.699,-12.508 -24.241,-26.168 -34.939,-40.445 -10.625,-14.322 -20.398,-29.371 -28.238,-45.447 -4.198,-8.729 -7.852,-17.791 -10.6,-27.1 -4.584,-10.754 -8.366,-21.844 -11.396,-33.141 -1.683,-6.462 -2.95,-13.023 -4.235,-19.559 -0.832,-4.364 -1.609,-8.74 -2.332,-13.127 -1.242,8.452 -2.197,17.032 -2.932,25.698 0.79,4.358 0.894,8.335 0.894,8.335 0.159,3.262 5.637,5.644 5.637,5.644 -1.714,1.578 -4.963,0.574 -7.412,-1.457 -0.006,-0.006 -0.012,-0.006 -0.012,-0.012 0.235,-4.19 0.529,-8.375 0.884,-12.543 z m 83.214,74.23 c 0.991,-0.275 2.068,0.488 2.411,1.707 0.343,1.223 -0.184,2.441 -1.169,2.717 -0.991,0.281 -2.068,-0.49 -2.411,-1.713 -0.343,-1.218 0.183,-2.435 1.169,-2.711 z m -2.357,-6.99 c -0.293,-0.912 -0.489,-1.854 -0.673,-2.785 -0.325,-1.877 -0.557,-3.775 -0.441,-5.727 0.759,1.799 1.193,3.652 1.567,5.52 0.159,0.936 0.318,1.873 0.41,2.82 0.11,0.943 0.141,1.904 0.25,2.854 -0.562,-0.826 -0.813,-1.77 -1.113,-2.682 z m 3.96,-14.205 c 1.156,1.93 2.276,3.783 3.715,5.318 1.419,1.561 3.207,2.67 5.489,2.791 -1.065,0.387 -2.301,0.355 -3.421,-0.037 -1.132,-0.385 -2.105,-1.119 -2.901,-1.963 -0.783,-0.863 -1.426,-1.83 -1.897,-2.865 -0.477,-1.039 -0.851,-2.111 -0.985,-3.244 z m -1.849,-9.461 c 0.38,7.992 -4.229,12.094 -4.229,12.094 -3.654,-1.236 -6.653,-11.904 -6.653,-11.904 0.576,5.607 -8.011,11.047 -8.011,11.047 0,0 -3.434,2.094 -1.873,0.373 1.567,-1.713 3.997,-5.367 3.397,-9.51 -0.937,-6.457 -2.1,-21.396 9.926,-23.721 12.02,-2.32 14.878,21.615 14.878,21.615 0.575,3.795 9.162,5.863 9.162,5.863 -4.001,3.409 -15.073,-0.728 -16.597,-5.857 z m -9.736,10.906 c 0.166,1.248 0.092,2.51 -0.055,3.758 -0.134,1.248 -0.447,2.479 -0.844,3.678 -0.429,1.193 -0.967,2.355 -1.714,3.396 -0.734,1.041 -1.634,1.982 -2.735,2.602 1.579,-1.939 2.576,-4.102 3.366,-6.377 0.801,-2.272 1.37,-4.627 1.982,-7.057 z m -7.075,17.998 c -0.459,0.986 -1.408,1.52 -2.124,1.182 -0.716,-0.33 -0.912,-1.395 -0.453,-2.387 0.459,-0.984 1.408,-1.518 2.124,-1.182 0.71,0.333 0.918,1.403 0.453,2.387 z m 5.881,-130.801 c -4.174,6.824 -10.288,7.631 -10.288,7.631 -2.332,-3.078 1.187,-13.58 1.187,-13.58 -2.674,4.957 -12.833,4.633 -12.833,4.633 0,0 -4.021,-0.196 -1.763,-0.734 2.258,-0.538 6.322,-2.197 8.152,-5.961 2.852,-5.863 10.288,-18.88 21.537,-14.052 11.249,4.835 0.165,26.243 0.165,26.243 -1.659,3.458 4.284,10 4.284,10 -5.233,0.562 -12.062,-9.076 -10.441,-14.18 z m 5.362,26.603 c -0.979,0.79 -2.503,0.514 -3.421,-0.618 -0.912,-1.132 -0.856,-2.687 0.116,-3.47 0.973,-0.79 2.503,-0.514 3.415,0.618 0.917,1.132 0.863,2.681 -0.11,3.47 z m -9.07,-11.243 c 0.293,2.081 1.15,4.009 2.974,5.386 -1.102,-0.275 -2.105,-0.998 -2.809,-1.952 -0.716,-0.955 -1.114,-2.111 -1.292,-3.256 -0.165,-1.15 -0.159,-2.313 0.043,-3.439 0.184,-1.114 0.478,-2.222 1.004,-3.231 -0.128,2.239 -0.251,4.406 0.08,6.492 z m -15.404,-6.168 c -1.022,0.747 -2.124,1.408 -3.323,1.854 -1.193,0.447 -2.472,0.722 -3.727,0.612 2.399,-0.709 4.437,-1.946 6.371,-3.384 1.94,-1.426 3.733,-3.06 5.6,-4.725 -0.569,1.126 -1.328,2.13 -2.148,3.079 -0.821,0.954 -1.764,1.799 -2.773,2.564 z m 3.127,19.082 c -0.41,1.206 -1.524,1.909 -2.497,1.585 -0.973,-0.325 -1.438,-1.567 -1.028,-2.766 0.398,-1.206 1.518,-1.916 2.497,-1.591 0.967,0.33 1.426,1.566 1.028,2.772 z m 0.942,-9.878 c 0.27,-0.918 0.637,-1.805 1.004,-2.681 0.783,-1.738 1.658,-3.439 2.852,-4.988 -0.379,1.916 -1.059,3.697 -1.799,5.447 -0.392,0.863 -0.783,1.726 -1.248,2.564 -0.435,0.851 -0.943,1.652 -1.396,2.503 0,-1.003 0.318,-1.927 0.587,-2.845 z m 40.325,100.968 c 0.361,-1.199 1.781,-1.83 3.176,-1.408 1.396,0.424 2.222,1.738 1.854,2.938 -0.361,1.201 -1.787,1.83 -3.176,1.408 -1.389,-0.428 -2.221,-1.739 -1.854,-2.938 z M 119.423,226.697 c -0.93,0.557 -2.02,0.459 -2.424,-0.214 -0.404,-0.673 0.031,-1.677 0.961,-2.234 0.937,-0.557 2.02,-0.465 2.424,0.214 0.404,0.674 -0.03,1.671 -0.961,2.234 z m -34.284,69.217 c -0.306,0.992 -1.267,1.42 -2.148,0.961 -0.881,-0.459 -1.346,-1.633 -1.04,-2.625 0.306,-0.992 1.267,-1.42 2.148,-0.961 0.881,0.459 1.346,1.635 1.04,2.625 z m -7.962,-2.283 c -0.385,-0.256 -0.716,-0.574 -1.01,-0.918 -0.006,-0.006 -0.012,-0.012 -0.018,-0.018 0.024,-0.66 0.073,-1.316 0.098,-1.977 0.006,0.012 0.006,0.018 0.012,0.031 0.049,0.092 0.086,0.201 0.141,0.287 0.777,1.389 1.659,2.693 3.391,3.053 -0.833,0.307 -1.849,0.075 -2.614,-0.458 z m 88.587,203.215 c -0.146,-0.109 -0.3,-0.213 -0.447,-0.324 -0.153,-0.115 -0.312,-0.221 -0.459,-0.33 -0.275,-0.207 -0.563,-0.398 -0.838,-0.605 -35.379,-26.953 -61.169,-66.463 -75.411,-109.678 -0.459,-1.395 -0.899,-2.789 -1.334,-4.191 0.019,0.025 0.037,0.049 0.049,0.068 1.487,2.049 3.176,4.65 4.89,6.42 1.824,1.859 3.745,3.678 5.752,5.311 l 1.518,1.256 c 0.251,0.184 0.508,0.537 0.747,0.691 l 0.324,0.537 c 0.086,-0.035 0.178,-0.422 0.275,-0.477 0.208,-0.115 0.416,-0.434 0.618,-0.611 0.398,-0.344 0.771,-0.852 1.089,-1.322 1.316,-1.904 1.885,-4.438 2.148,-6.928 0.257,-2.51 0.159,-5.117 -0.116,-7.682 -0.587,-5.146 -1.769,-10.281 -3.176,-15.348 -0.734,-2.521 -1.493,-5.055 -2.43,-7.516 -0.912,-2.473 -1.842,-4.945 -3.054,-7.271 -1.212,-2.312 -2.631,-4.564 -4.468,-6.309 -0.912,-0.857 -1.952,-1.58 -3.042,-1.861 -1.089,-0.299 -2.172,-0.072 -3.152,0.484 -1.989,1.15 -3.5,3.316 -4.841,5.459 -0.404,0.66 -0.673,1.414 -1.041,2.1 -0.006,0.012 -0.012,0.023 -0.018,0.035 -0.19,-1.137 -0.337,-2.275 -0.514,-3.414 0.006,-0.012 0.012,-0.02 0.018,-0.031 1.328,-2.227 2.932,-4.473 5.514,-5.844 1.34,-0.691 3.079,-0.857 4.511,-0.318 1.444,0.514 2.552,1.48 3.476,2.502 1.83,2.082 3.06,4.475 4.223,6.867 2.252,4.828 4.144,9.75 6.016,14.725 1.842,4.982 3.366,10.117 4.113,15.453 0.367,2.668 0.557,5.387 0.361,8.146 -0.22,2.729 -0.826,5.588 -2.527,8.072 -0.435,0.611 -0.949,1.188 -1.561,1.689 -0.312,0.25 -0.637,0.488 -1.016,0.691 -0.19,0.098 -0.386,0.213 -0.606,0.287 -0.116,0.043 -0.232,0.129 -0.367,0.166 l -0.123,0.072 c -0.08,-0.031 -0.177,-0.066 -0.293,-0.115 0.104,-0.387 0.245,-0.949 0.11,-0.961 -0.11,-0.025 -0.104,0 -0.098,0.018 -0.031,0.049 -0.067,0.533 -0.086,0.912 -0.006,0 -0.012,-0.006 -0.018,-0.006 -0.27,-0.117 -0.563,-0.252 -0.655,-0.318 -0.171,-0.104 -0.533,-0.238 -0.68,-0.344 -0.312,-0.207 -0.673,-0.471 -0.948,-0.686 -0.551,-0.416 -1.096,-0.984 -1.61,-1.432 -2.001,-1.811 -3.88,-3.947 -5.655,-5.947 -0.783,-0.895 -1.536,-1.93 -2.258,-2.975 14.241,43.182 40.013,82.668 75.362,109.609 1.867,-3.758 3.568,-7.564 4.914,-11.477 1.181,-3.396 2.173,-7.006 1.677,-10.617 -0.459,-3.623 -2.999,-6.732 -6.298,-8.109 -3.317,-1.297 -6.983,-2.197 -10.428,-2.191 -1.72,0.031 -3.409,0.393 -4.712,1.242 -1.292,0.84 -2.197,2.137 -2.503,3.68 -0.655,3.035 0.691,6.805 3.47,8.445 1.451,0.703 3.262,1.469 4.755,1.156 1.536,-0.264 2.124,-2.338 1.983,-4.107 l 0.22,-0.055 c 0.263,0.918 0.367,1.891 0.166,2.895 -0.159,0.986 -0.918,2.045 -2.001,2.406 -1.041,0.391 -2.118,0.342 -3.097,0.189 -1.022,-0.178 -1.891,-0.398 -2.882,-0.857 -3.813,-1.922 -5.796,-6.389 -5.013,-10.582 0.41,-2.098 1.763,-4.131 3.666,-5.189 1.879,-1.102 3.984,-1.395 5.955,-1.352 3.978,0.164 7.589,1.443 10.973,3.244 1.671,0.967 3.158,2.258 4.291,3.807 1.12,1.566 1.824,3.383 2.185,5.25 0.741,3.746 0.355,7.639 -0.582,11.305 -0.624,2.295 -1.542,4.467 -2.558,6.59 1.2,-1.395 2.516,-2.705 4.125,-3.66 4.29,-2.453 9.26,-3.371 14.082,-2.502 2.387,0.391 4.835,1.211 6.842,2.998 0.991,0.889 1.854,2.068 2.234,3.471 0.373,1.395 0.251,2.932 -0.361,4.223 -0.593,1.297 -1.597,2.436 -3.017,3.023 -1.334,0.477 -2.754,0.557 -4.094,0.158 -1.34,-0.402 -2.479,-1.412 -2.999,-2.643 -0.514,-1.242 -0.453,-2.57 -0.098,-3.709 l 0.227,0.037 c -0.116,2.367 1.279,4.492 3.274,4.662 0.955,0.166 1.971,-0.061 2.821,-0.439 0.729,-0.41 1.359,-1.182 1.695,-2.033 0.686,-1.73 0.239,-3.689 -1.211,-5.146 -1.444,-1.469 -3.531,-2.416 -5.667,-3.225 -2.148,-0.814 -4.467,-1.213 -6.732,-0.668 -2.264,0.496 -4.223,1.83 -5.93,3.281 -2.772,2.264 -5.232,4.932 -7.625,7.76 12.381,9.211 25.9,16.885 40.484,22.668 -14.603,-5.776 -28.122,-13.45 -40.503,-22.655 z m 52.43,36.586 c 0,0 0,-0.086 0,-0.172 6.12,1.641 9.4,3.018 12.167,4.053 -3.14,-1.036 -6.237,-2.235 -12.167,-3.881 z m 0,-0.35 c 0,0 0.147,-0.023 0.3,-0.049 0.171,-0.023 0.404,-0.396 0.649,-0.434 0.447,0.158 0.955,0.135 1.371,0.135 0.006,0 0.013,0 0.019,0 0.011,0 -2.339,0.348 -2.339,0.348 z m 53.03,10.84 c -0.227,0 -0.447,-0.014 -0.673,-0.014 0.649,-0.006 1.31,-0.023 1.971,-0.035 -0.448,0.006 -0.839,0.049 -1.298,0.049 z m 2.05,-5.037 c 0.905,0.086 1.884,0.562 3.255,-0.533 -0.006,-0.904 0.575,-2.031 2.289,-4.412 0.703,-0.74 1.48,-1.621 2.325,-2.613 0.013,0 0.024,0 0.031,0 -0.968,1.305 -1.72,2.369 -2.356,3.316 0,0 0,0 -0.006,0.008 -1.708,2.387 -2.296,3.156 -2.289,4.062 -1.365,1.084 -2.344,0.258 -3.249,0.172 z m 3.255,1.217 c 0,-0.049 0.012,-0.084 0.019,-0.133 0.006,0.066 0.019,0.152 0.036,0.207 -0.03,0.049 -0.055,0.103 -0.055,-0.074 z m 8.024,1.812 c -0.202,0 -0.349,-0.012 -0.515,-0.037 -1.126,-0.135 -1.493,-0.715 -1.615,-1.188 -0.037,-0.146 -0.055,-0.293 -0.055,-0.445 0,0 0,0 0.006,0 0,-0.008 0,-0.008 0,-0.014 0,0.16 0.024,0.312 0.067,0.465 0.122,0.473 0.508,1.053 1.634,1.188 0.159,0.02 0.33,0.037 0.514,0.037 -0.012,-0.012 -0.025,-0.006 -0.036,-0.006 z m 4.468,0.76 c -1.09,-0.209 -1.139,-0.863 -1.193,-1.244 -0.013,-0.084 0.055,-0.17 0.073,-0.25 0.049,-0.018 0.079,-0.025 0.128,-0.043 0.007,0.098 0.019,0.195 0.031,0.293 0.055,0.367 0.349,0.961 1.347,1.193 -0.124,0.02 -0.259,0.031 -0.386,0.051 z m 45.96,-30.694 c -0.092,0.092 -5.991,5.869 -14.333,11.984 -2.252,0.691 -4.504,1.352 -6.763,1.951 5.967,-3.873 11.175,-8.09 14.694,-11.15 -7.662,3.281 -20.833,9.186 -29.376,14.383 -0.367,0.061 -0.734,0.152 -1.102,0.213 -1.444,0.246 -2.883,0.416 -4.327,0.625 -0.043,0.006 -0.079,0.012 -0.122,0.018 7.448,-5.354 12.833,-12.551 15.483,-17.172 -6.549,3.996 -20.337,13.781 -24.891,19.902 -0.018,0 -0.03,0 -0.049,0 -0.354,0 -0.703,-0.123 -1.059,-0.221 -1.021,1.377 -1.848,2.533 -2.448,3.422 -1.707,1.799 -3.054,2.992 -4.124,3.842 0.049,-0.238 0.177,-0.471 0.373,-0.746 1.469,-1.248 3.396,-3.299 6.102,-6.543 -0.557,-0.164 -1.107,-0.293 -1.665,-0.305 -0.073,0.098 -0.146,0.551 -0.22,0.551 h -0.007 c -0.141,0 -0.275,-0.686 -0.416,-0.674 0.453,-0.6 0.942,-1.604 1.487,-2.318 0.373,-0.527 0.912,-1.09 1.433,-1.635 -0.19,0.264 -0.361,0.533 -0.551,0.789 1.358,-1.658 3.127,-3.42 5.275,-5.232 -1.543,1.303 -2.858,2.412 -4.033,3.5 3.384,-5.734 4.075,-13.102 4.217,-16.945 -0.007,0.006 -0.013,-0.012 -0.019,-0.006 -4.174,4.02 -13.728,14.369 -14.89,20.74 -0.11,0.459 -0.184,1.781 -0.275,1.781 -0.012,0 -0.019,0 -0.031,0 -0.03,0 -0.067,0 -0.098,0 -0.704,0 -1.414,-0.508 -2.118,-0.502 0.08,-0.465 0.166,-1.248 0.257,-1.561 2.111,-6.291 -2.185,-16.586 -4.235,-20.717 -2.038,4.137 -7.454,13.818 -5.361,20.062 0.122,0.439 -0.759,0.973 -0.759,1.475 v 0.654 c 0,-0.031 0.765,0.588 0.043,0.588 -0.03,0 -0.055,0 -0.085,0 -0.037,0 -0.074,0 -0.11,0 -0.073,0 -0.128,-1.273 -0.208,-1.629 -1.163,-6.395 -10.698,-16.486 -14.896,-20.539 -0.019,-0.018 -0.043,-0.213 -0.062,-0.232 0.159,4.279 1.047,12.811 5.551,18.703 l 0.006,-0.037 c 0.263,0.324 0.63,1.66 0.851,1.971 0.208,0.289 0.386,1.764 0.588,1.764 -0.006,0 -0.019,0 -0.025,0 -0.012,0 -0.024,0 -0.03,0 -0.985,0 -1.995,-1.17 -2.975,-1.279 -0.049,-0.006 -0.098,-0.514 -0.141,-0.52 -5.006,-6.17 -18.036,-14.824 -24.364,-18.691 2.491,4.326 7.442,11.488 14.174,16.799 -0.128,-0.023 -0.263,-0.098 -0.392,-0.121 -1.457,-0.264 -2.882,-0.619 -4.327,-0.918 -0.802,-0.166 -1.604,-0.361 -2.405,-0.539 -8.421,-4.736 -19.664,-9.762 -26.487,-12.688 2.693,2.344 6.371,5.361 10.625,8.391 -2.344,-0.764 -4.664,-1.572 -6.958,-2.43 -6.016,-4.768 -9.994,-8.672 -10.074,-8.744 l -3.978,-3.979 5.214,2.105 c 0.93,0.379 17.705,7.184 30.374,13.996 -6.108,-7.068 -9.553,-14.309 -9.749,-14.736 l -1.506,-3.275 3.122,1.807 c 0.734,0.422 14.241,8.262 23.133,15.764 -2.821,-7.668 -2.484,-15.746 -2.46,-16.205 l 0.122,-2.393 1.781,1.604 c 0.508,0.459 9.988,9.07 14.841,17.068 0.838,-8.061 5.667,-16.77 5.937,-17.24 l 0.991,-1.77 0.998,1.764 c 0.263,0.471 5.086,9.168 5.924,17.24 4.841,-7.98 14.345,-16.615 14.854,-17.076 l 1.787,-1.602 0.122,2.393 c 0.024,0.459 0.361,8.531 -2.467,16.199 8.881,-7.49 22.399,-15.344 23.134,-15.766 l 3.121,-1.805 -1.505,3.273 c -0.196,0.43 -3.636,7.668 -9.75,14.738 12.663,-6.812 29.45,-13.623 30.38,-13.998 l 5.215,-2.105 z m 3.354,-226.335 c -1.059,1.035 -2.882,1.801 -3.672,2.57 -0.526,0.783 -0.538,2.088 -1.064,2.602 -3.415,3.623 -9.915,1.738 -9.449,8.262 0.244,1.561 -0.753,20.031 -0.551,28.691 0.208,8.66 1.939,15.508 1.628,21.506 -0.282,2.857 0.568,12.723 -8.984,18.316 -6.365,3.721 1.75,8.617 4.577,13.066 8.501,13.096 -12.099,12.938 -19.651,13.133 -0.306,4.951 -13.837,2.76 -17.49,2.73 0,0.264 0.52,0.264 0.52,0.777 -4.981,3.354 -17.221,1.426 -23.206,1.383 -8.084,-0.068 -16.42,-0.398 -24.762,-0.723 -11.457,-0.623 -15.863,-2.178 -27.191,-5.178 -0.979,-0.262 -2.02,-0.574 -3.079,-0.912 -2.319,1.01 -5.771,1.512 -9.033,-0.232 -2.98,-1.59 -3.69,-3.947 -3.721,-5.746 -1.432,-1.004 -2.644,-2.074 -3.5,-3.164 -4.468,-5.723 -2.968,-8.262 -1.965,-14.92 0.71,-4.719 -3.066,-10.932 0.392,-16.371 5.257,-8.262 10.771,-9.566 14.945,-10.049 0.624,-26.721 23.782,-39.988 30.582,-42.498 9.957,-3.684 21.824,-7.639 29.186,-15.404 1.536,-1.615 2.668,-26.175 2.503,-28.678 -0.239,-3.66 -3.556,-7.772 -5.392,-9.951 -4.645,-5.771 -9.033,-11.285 -13.678,-16.793 -8.011,-8.666 -14.945,-20.967 -14.584,-33.219 0.306,-5.985 1.389,-10.673 7.65,-11.665 3.127,-0.489 4.174,-0.483 6.01,-2.032 1.573,-1.291 2.369,-3.109 4.982,-3.874 10.453,-3.825 22.644,3.574 28.831,11.708 3.868,4.982 7.742,9.97 11.077,15.208 3.091,4.976 5.648,10.991 9.26,15.196 3.617,3.935 19.425,0.447 31.175,12.246 5.092,5.104 11.543,11.34 13.685,16.016 2.301,5.012 2.772,11.23 3.256,16.708 0.478,5.478 -3.733,10.135 -5.073,14.553 -0.805,3.121 -1.858,4.933 -4.214,6.738 z m 46.316,195.552 c -1.31,2.533 -3.323,4.951 -6.102,6.139 -2.754,1.236 -6.028,0.918 -8.513,-0.52 -2.504,-1.426 -4.364,-3.648 -5.68,-6.061 l 0.189,-0.121 c 1.598,2.197 3.568,4.168 5.967,5.238 2.356,1.133 5.123,1.156 7.332,-0.031 2.24,-1.131 3.904,-3.213 4.981,-5.562 1.034,-2.191 0.985,-4.865 0.441,-7.326 -1.139,-4.957 -4.774,-9.32 -9.683,-10.709 -4.926,-1.432 -10.386,-0.135 -15.257,1.982 -4.816,2.229 -9.963,4.822 -12.65,9.572 -1.353,2.312 -1.872,5.055 -1.628,7.699 0.258,2.662 1.151,5.213 2.326,7.6 3.421,6.586 8.194,12.4 13.434,17.84 -0.429,0.246 -0.851,0.496 -1.279,0.734 -1.5,-1.309 -2.956,-2.674 -4.333,-4.131 -3.764,-4.033 -7.313,-8.488 -9.352,-13.77 -2.117,-5.152 -2.601,-11.359 0.202,-16.334 1.34,-2.473 3.348,-4.51 5.526,-6.248 2.228,-1.695 4.56,-3.158 7.044,-4.469 4.921,-2.49 10.777,-4.211 16.579,-2.68 5.826,1.432 10.275,6.664 11.365,12.404 0.603,2.868 0.53,6 -0.909,8.754 z m 24.382,-259.775 c -1.01,-0.771 -1.952,-1.616 -2.772,-2.564 -0.826,-0.949 -1.585,-1.952 -2.147,-3.078 1.866,1.665 3.659,3.298 5.6,4.725 1.934,1.438 3.972,2.674 6.371,3.384 -1.261,0.11 -2.534,-0.165 -3.728,-0.612 -1.2,-0.447 -2.295,-1.115 -3.324,-1.855 z m 0.405,17.895 c 0.403,1.199 -0.062,2.441 -1.034,2.766 -0.974,0.324 -2.087,-0.379 -2.497,-1.585 -0.404,-1.2 0.055,-2.442 1.034,-2.772 0.972,-0.325 2.092,0.385 2.497,1.591 z m -3.887,-5.851 c -0.446,-0.851 -0.961,-1.658 -1.395,-2.503 -0.459,-0.833 -0.857,-1.701 -1.249,-2.564 -0.74,-1.75 -1.42,-3.531 -1.806,-5.447 1.193,1.548 2.068,3.244 2.853,4.988 0.373,0.875 0.734,1.763 1.003,2.681 0.275,0.917 0.594,1.841 0.594,2.845 z m 6.309,-22.558 c 0,0 -10.159,0.324 -12.833,-4.633 0,0 3.513,10.508 1.188,13.58 0,0 -6.12,-0.808 -10.288,-7.631 1.615,5.098 -5.214,14.743 -10.435,14.174 0,0 5.937,-6.536 4.284,-10 0,0 -11.084,-21.414 0.165,-26.243 11.248,-4.829 18.685,8.188 21.536,14.051 1.83,3.764 5.888,5.422 8.152,5.961 2.253,0.545 -1.769,0.741 -1.769,0.741 z m -18.151,10.183 c 0.521,1.01 0.82,2.111 1.004,3.231 0.195,1.126 0.208,2.283 0.043,3.439 -0.184,1.145 -0.576,2.301 -1.298,3.256 -0.704,0.955 -1.707,1.677 -2.809,1.952 1.817,-1.377 2.68,-3.305 2.974,-5.386 0.331,-2.085 0.215,-4.252 0.086,-6.492 z m -5.729,17.118 c -0.912,1.132 -2.441,1.408 -3.421,0.618 -0.974,-0.79 -1.028,-2.338 -0.11,-3.47 0.912,-1.132 2.442,-1.414 3.415,-0.618 0.974,0.783 1.034,2.338 0.116,3.47 z m -1.554,54.297 c 12.02,2.318 10.857,17.264 9.927,23.721 -0.605,4.143 1.824,7.791 3.391,9.51 1.566,1.721 -1.866,-0.373 -1.866,-0.373 0,0 -8.587,-5.439 -8.018,-11.047 0,0 -2.992,10.668 -6.646,11.904 0,0 -4.608,-4.107 -4.229,-12.094 -1.524,5.129 -12.589,9.266 -16.598,5.863 0,0 8.586,-2.068 9.155,-5.863 0.007,-0.006 2.87,-23.947 14.884,-21.621 z m 11.494,51.701 c -0.71,0.338 -1.659,-0.189 -2.118,-1.182 -0.459,-0.984 -0.263,-2.055 0.453,-2.387 0.71,-0.336 1.665,0.197 2.13,1.182 0.453,0.987 0.251,2.057 -0.465,2.387 z m -3.838,-5.746 c -1.102,-0.619 -2.001,-1.561 -2.741,-2.602 -0.741,-1.041 -1.279,-2.209 -1.708,-3.396 -0.403,-1.199 -0.703,-2.424 -0.845,-3.678 -0.152,-1.242 -0.214,-2.504 -0.055,-3.758 0.612,2.43 1.181,4.779 1.982,7.057 0.791,2.275 1.782,4.443 3.367,6.377 z m -17.748,8.029 c 0.349,-1.219 1.426,-1.982 2.411,-1.707 0.992,0.275 1.512,1.492 1.169,2.711 -0.343,1.225 -1.42,1.988 -2.405,1.713 -0.991,-0.281 -1.518,-1.492 -1.175,-2.717 z m -0.171,-19.67 c -0.472,1.041 -1.114,2.008 -1.903,2.865 -0.79,0.844 -1.769,1.578 -2.901,1.963 -1.12,0.393 -2.355,0.424 -3.421,0.037 2.276,-0.115 4.076,-1.23 5.483,-2.785 1.45,-1.541 2.564,-3.396 3.722,-5.324 -0.135,1.139 -0.502,2.211 -0.98,3.244 z m 3.825,13.649 c 0.104,-0.955 0.134,-1.91 0.25,-2.854 0.092,-0.953 0.251,-1.885 0.417,-2.82 0.367,-1.867 0.802,-3.715 1.566,-5.52 0.116,1.951 -0.11,3.85 -0.44,5.727 -0.189,0.938 -0.38,1.873 -0.674,2.785 -0.299,0.912 -0.556,1.856 -1.119,2.682 z m -15.349,-8.881 c 0.367,1.199 -0.465,2.516 -1.854,2.938 -1.389,0.422 -2.809,-0.207 -3.176,-1.408 -0.361,-1.205 0.459,-2.514 1.854,-2.938 1.389,-0.422 2.814,0.203 3.176,1.408 z m 89.793,45.031 c -0.734,2.129 -1.903,3.641 -3.36,5.049 -1.456,1.309 -3.341,2.424 -5.452,2.393 -2.118,-0.049 -3.85,-1.377 -4.934,-2.889 l 0.172,-0.152 c 1.34,1.266 3.048,2.178 4.725,1.965 1.683,-0.154 3.164,-1.225 4.309,-2.51 1.145,-1.242 2.16,-2.889 2.54,-4.32 0.085,-0.496 -0.135,-1.383 -0.441,-2.117 -0.306,-0.766 -0.71,-1.512 -1.199,-2.191 -1.934,-2.768 -5.141,-4.4 -8.359,-3.396 -3.214,0.947 -5.998,3.506 -8.446,6.168 -1.218,1.359 -2.417,2.791 -3.365,4.334 -0.949,1.555 -1.653,3.268 -1.995,5.055 -0.717,3.629 0.654,7.283 2.814,10.066 4.314,5.631 10.545,9.713 16.989,13.281 -0.036,0.08 -0.067,0.158 -0.104,0.232 -3.58,-0.998 -6.978,-2.576 -10.153,-4.559 -3.17,-2.062 -6.236,-4.578 -8.22,-7.975 -2.037,-3.348 -2.771,-7.443 -2.02,-11.182 0.667,-3.77 2.693,-7.172 4.884,-10.215 2.24,-3.018 5,-5.998 8.966,-7.361 1.952,-0.662 4.284,-0.699 6.268,0.17 1.995,0.834 3.58,2.32 4.7,4.033 0.557,0.857 1.034,1.77 1.37,2.762 0.292,1.015 0.598,2.006 0.311,3.359 z m 12.729,-37.099 c -0.605,4.969 -1.304,9.615 -2.173,15.734 -0.006,0 -0.019,0 -0.024,0 -0.03,0 -0.049,-0.734 -0.079,-0.582 -1.787,1.004 -3.941,0.98 -6.133,0.648 -2.436,-0.33 -4.718,-2.238 -5.973,-4.393 -1.267,-2.174 -1.592,-4.762 -1.573,-7.062 -0.019,-2.326 0.478,-4.627 1.139,-6.781 0.654,-2.131 1.383,-4.271 2.123,-6.365 0.735,-2.094 1.476,-4.277 2.772,-6.225 1.298,-1.914 3.195,-3.525 5.386,-4.424 1.935,-0.809 4.089,-0.998 6.065,-0.496 -0.007,0.172 -0.031,0.344 -0.037,0.514 -4.082,0.381 -7.411,2.57 -9.902,5.557 -1.396,1.549 -2.705,3.324 -3.586,5.326 -0.882,1.994 -1.328,4.154 -1.585,6.328 -0.215,2.152 -0.331,4.307 -0.215,6.395 0.129,2.074 0.612,4.094 1.536,5.771 0.9,1.682 2.375,2.98 4.272,3.586 1.763,0.611 3.788,0.545 5.795,0.117 0.955,-5.295 1.757,-10.68 2.394,-16.17 -0.061,0.484 -0.147,2.025 -0.202,2.522 z m 1.518,-19.536 c 0.006,-0.172 0.031,-0.293 0.037,-0.465 0.006,0 0.012,0.006 0.019,0.006 -0.007,0.141 -0.019,0.281 -0.024,0.422 -0.014,0.02 -0.026,0.037 -0.032,0.037 z m -1.01,12.907 c 0.215,-2.123 0.429,-4.209 0.612,-6.303 -0.251,3.299 -0.545,6.537 -0.899,9.609 0.134,-1.23 0.177,-2.076 0.287,-3.306 z m 1.163,-14.401 c 0,-0.006 0,-0.006 0,0 0.012,-0.305 0.03,-1.082 0.049,-1.369 -0.03,0.611 -0.025,1.303 -0.049,1.369 z m -9.884,-80.3 c 0.532,-7.228 1.664,-14.529 0.869,-21.652 0.808,3.427 3.176,6.916 3.176,10.398 0,-0.037 0,-0.074 0,-0.104 6.12,25 7.111,51.487 7.111,79.156 0,3.654 -0.6,7.24 -0.74,10.82 -0.019,0.27 -0.263,0.557 -0.281,0.838 0.165,-3.85 0.178,-7.723 0.178,-11.658 0,-27.633 -2.938,-54.089 -8.079,-79.059 -0.189,3.813 -0.562,7.613 -1.089,11.377 -0.942,6.616 -2.148,13.17 -3.403,19.718 -1.278,6.542 -2.558,13.097 -4.241,19.56 -3.022,11.292 -6.805,22.374 -11.396,33.128 -2.754,9.314 -6.407,18.379 -10.611,27.111 -7.84,16.078 -17.613,31.127 -28.238,45.447 -10.697,14.277 -22.24,27.938 -34.938,40.447 l -0.165,-0.166 c 6.132,-6.443 11.805,-13.311 17.447,-20.178 5.631,-6.879 10.992,-13.971 16.23,-21.145 5.215,-7.191 10.202,-14.547 14.872,-22.086 2.539,-4.096 4.993,-8.238 7.362,-12.43 3.5,-9.4 6.089,-19.082 7.264,-28.961 0.747,-5.875 0.985,-11.896 -0.024,-17.791 -1.016,-5.869 -3.298,-11.535 -6.67,-16.4 -3.422,-4.885 -7.246,-9.512 -11.879,-13.055 -4.566,-3.537 -10.337,-5.618 -15.852,-4.4 -2.741,0.544 -5.318,1.854 -7.546,3.604 -1.096,0.869 -2.154,1.903 -2.925,2.987 -0.777,1.07 -1.169,2.374 -1.268,3.732 -0.171,2.73 0.753,5.637 2.54,7.852 0.906,1.09 2.008,2.057 3.336,2.59 1.315,0.562 2.827,0.588 4.241,0.158 l 0.085,0.215 c -1.383,0.643 -3.054,0.809 -4.571,0.33 -1.53,-0.439 -2.883,-1.377 -3.966,-2.521 -2.13,-2.318 -3.501,-5.41 -3.464,-8.695 0.03,-1.629 0.459,-3.342 1.383,-4.756 0.912,-1.408 1.989,-2.528 3.188,-3.586 2.387,-2.081 5.307,-3.58 8.446,-4.296 3.146,-0.679 6.486,-0.477 9.51,0.526 3.036,0.985 5.759,2.638 8.177,4.565 4.847,3.887 8.513,8.893 11.604,14.064 3.146,5.238 5.189,11.021 6.358,16.951 1.193,5.926 1.628,12.039 1.193,18.109 -0.435,6.078 -1.879,12.02 -3.69,17.791 -0.3,0.912 -0.697,1.793 -1.027,2.699 0.422,-0.814 0.893,-1.604 1.303,-2.43 7.987,-15.766 14.591,-32.59 16.273,-50.33 1.922,-17.669 0.557,-35.644 -3.445,-52.908 -4.009,-17.258 -10.674,-33.972 -20.429,-48.678 -4.908,-7.313 -10.68,-14.076 -17.473,-19.608 -6.732,-5.551 -14.621,-9.829 -23.152,-11.506 -4.241,-0.833 -8.678,-1.004 -13.029,-0.887 -4.339,0.165 -8.709,0.74 -12.699,2.319 -3.978,1.542 -7.552,4.21 -9.584,7.932 -2.068,3.684 -2.563,8.17 -1.812,12.399 0.76,4.205 2.613,8.403 5.753,11.273 1.518,1.432 3.642,2.087 5.717,2.797 2.08,0.649 4.234,1.059 6.407,1.163 4.314,0.214 8.844,-0.839 12.191,-3.666 1.646,-1.401 2.968,-3.256 3.476,-5.374 0.532,-2.117 0.073,-4.425 -1.163,-6.242 l 0.184,-0.128 c 1.328,1.817 1.897,4.223 1.408,6.469 -0.459,2.246 -1.793,4.247 -3.471,5.771 -3.414,3.079 -8.139,4.37 -12.662,4.235 -2.276,-0.067 -4.534,-0.453 -6.713,-1.09 -1.084,-0.318 -2.167,-0.704 -3.207,-1.132 -1.071,-0.398 -2.136,-1.059 -3.018,-1.812 -3.525,-3.115 -5.521,-7.497 -6.426,-11.971 -0.888,-4.492 -0.472,-9.388 1.75,-13.55 2.186,-4.198 6.139,-7.24 10.392,-8.972 4.284,-1.775 8.868,-2.491 13.391,-2.699 4.541,-0.135 9.058,0.019 13.568,0.881 9.003,1.738 17.252,6.206 24.241,11.922 6.989,5.771 12.821,12.778 17.767,20.275 9.884,15.055 16.163,32.161 19.902,49.609 3.653,17.497 4.657,35.514 2.9,53.281 -0.386,4.156 -1.021,8.268 -1.848,12.344 2.271,-7.326 4.498,-14.658 6.628,-22.02 1.86,-6.371 3.807,-12.736 5.257,-19.223 1.507,-6.489 2.571,-13.068 3.116,-19.678 z m -39.841,-13.727 c 0.397,-0.679 1.486,-0.777 2.417,-0.214 0.937,0.557 1.371,1.554 0.967,2.233 -0.397,0.68 -1.487,0.771 -2.424,0.214 -0.935,-0.562 -1.364,-1.559 -0.96,-2.233 z m 30.411,-36.995 c 0.587,0.196 0.991,0.483 1.358,0.777 0.067,0.202 0.135,0.404 0.202,0.606 -0.013,-0.012 -0.019,-0.184 -0.031,-0.189 -0.043,-0.129 -0.092,-0.263 -0.128,-0.392 0.036,0.03 0.098,0.049 0.128,0.073 -0.691,-2.148 -1.493,-4.205 -2.215,-6.322 -0.147,-0.422 -0.282,-0.851 -0.429,-1.279 0.888,2.552 1.842,5.037 2.675,7.632 -0.013,-0.012 -0.019,-0.025 -0.031,-0.037 1.133,3.525 2.186,7.118 3.226,10.722 -1.163,-2.907 -2.332,-5.924 -4.063,-8.28 -0.423,-0.581 -0.985,-1.12 -1.31,-1.218 -0.142,-0.037 -0.142,-0.043 -0.294,0.024 -0.135,0.08 -0.355,0.306 -0.521,0.575 -0.679,1.182 -1.077,2.828 -1.315,4.395 -0.423,3.188 -0.691,6.53 -0.27,9.718 0.27,1.542 0.605,3.158 1.279,4.608 0.686,1.408 2.975,2.907 2.975,3.238 v 0.232 c 0,-0.196 -2.736,-1.695 -3.642,-3.097 -0.906,-1.481 -1.23,-3.029 -1.641,-4.743 -0.686,-3.378 -0.802,-6.763 -0.465,-10.178 0.214,-1.713 0.422,-3.415 1.315,-5.189 0.245,-0.441 0.551,-0.906 1.096,-1.31 0.54,-0.409 1.445,-0.58 2.101,-0.366 z" /><path
         style="stroke-width:2.46392632"
         inkscape:connector-curvature="0"
         id="path1016"
         d="m 299.675,541.045 c 0.031,-0.012 0.074,-0.031 0.104,-0.043 0,0 -0.006,0 -0.013,0 -0.024,0.012 -0.06,0.031 -0.091,0.043 z" /><path
         style="stroke-width:2.46392632"
         inkscape:connector-curvature="0"
         id="path1018"
         d="m 281.187,532.146 c 0.067,-0.006 0.129,0.031 0.196,0.037 0,0 0,-0.012 0.006,-0.012 -0.074,0.099 -0.135,-0.116 -0.202,-0.025 z" /><path
         style="stroke-width:2.46392632"
         inkscape:connector-curvature="0"
         id="path1020"
         d="m 284.234,531.062 c -0.013,0 -0.03,0 -0.043,0.006 -0.073,0.092 -0.122,0.203 -0.202,0.289 -0.343,0.422 -0.624,0.746 -0.948,1.131 0.03,0.014 0.067,0.014 0.098,0.02 0.312,-0.416 0.557,-0.766 0.918,-1.242 0.048,-0.063 0.129,-0.135 0.177,-0.204 z" /></g></g><g
     id="g878"
     transform="matrix(0,0.40585627,-0.40585627,0,236.50744,333.69258)"
     style="fill:none;fill-opacity:1;stroke:#fa0000;stroke-width:2.46392632;stroke-opacity:1"><g
       id="g876"
       style="fill:none;fill-opacity:1;stroke:#fa0000;stroke-width:2.46392632;stroke-opacity:1"><path
         sodipodi:type="inkscape:offset"
         inkscape:radius="25.029676"
         inkscape:original="M 265.42188 0.66992188 C 261.6321 0.81128151 257.8213 1.1254547 253.99219 1.6230469 C 194.36642 9.311254 147.67745 53.846203 118.55859 103.92969 C 71.399628 185.84655 48.561646 286.05509 73.011719 378.90234 C 93.405985 458.65297 159.31169 527.656 241.91016 541.50977 C 321.99608 555.66414 404.7069 510.21806 444.11523 440.63477 C 498.55726 351.63255 489.54456 236.65271 445.98828 145.19727 C 435.61858 121.96286 422.94005 99.686686 407.47656 79.451172 C 374.22873 35.442081 322.26857 -1.4504727 265.42188 0.66992188 z "
         xlink:href="#path1017"
         style="fill:none;fill-opacity:1;stroke:#fa0000;stroke-width:2.46392632;stroke-opacity:1"
         id="path1776"
         d="m 264.48828,-24.341797 c -4.54565,0.169554 -9.12223,0.546961 -13.7207,1.144531 -70.1289,9.052505 -122.12965,59.992945 -153.847658,114.546875 a 25.032179,25.032179 0 0 0 -0.05273,0.0918 C 47.062344,177.95426 22.267568,284.36567 48.787109,385.1875 71.54478,474.04839 143.91483,550.39728 237.6582,566.17188 329.51087,582.35565 421.09403,531.67969 465.66406,453.3418 525.46836,355.24205 515.02323,232.12464 468.69336,134.67969 457.6863,110.07307 444.13832,86.21447 427.38477,64.285156 390.62877,15.669489 332.67232,-26.885077 264.48828,-24.341797 Z" /></g></g></svg>