<?xml version="1.0" encoding="UTF-8" standalone="no"?>
<!-- Created with Inkscape (http://www.inkscape.org/) -->

<svg
   xmlns:dc="http://purl.org/dc/elements/1.1/"
   xmlns:cc="http://creativecommons.org/ns#"
   xmlns:rdf="http://www.w3.org/1999/02/22-rdf-syntax-ns#"
   xmlns:svg="http://www.w3.org/2000/svg"
   xmlns="http://www.w3.org/2000/svg"
   xmlns:sodipodi="http://sodipodi.sourceforge.net/DTD/sodipodi-0.dtd"
   xmlns:inkscape="http://www.inkscape.org/namespaces/inkscape"
   width="130mm"
   height="130mm"
   viewBox="0 0 130 130"
   version="1.1"
   id="svg6460"
   sodipodi:docname="Furubeistet.svg"
   inkscape:version="0.92.2 5c3e80d, 2017-08-06">
  <defs
     id="defs6454">
    <inkscape:path-effect
       effect="bspline"
       id="path-effect7120"
       is_visible="true"
       weight="33.333333"
       steps="2"
       helper_size="0"
       apply_no_weight="true"
       apply_with_weight="true"
       only_selected="false" />
  </defs>
  <sodipodi:namedview
     id="base"
     pagecolor="#ffffff"
     bordercolor="#666666"
     borderopacity="1.0"
     inkscape:pageopacity="0.0"
     inkscape:pageshadow="2"
     inkscape:zoom="2"
     inkscape:cx="190.09374"
     inkscape:cy="88.124475"
     inkscape:document-units="mm"
     inkscape:current-layer="layer1"
     showgrid="false"
     inkscape:window-width="1299"
     inkscape:window-height="735"
     inkscape:window-x="77"
     inkscape:window-y="44"
     inkscape:window-maximized="0" />
  <metadata
     id="metadata6457">
    <rdf:RDF>
      <cc:Work
         rdf:about="">
        <dc:format>image/svg+xml</dc:format>
        <dc:type
           rdf:resource="http://purl.org/dc/dcmitype/StillImage" />
        <dc:title></dc:title>
      </cc:Work>
    </rdf:RDF>
  </metadata>
  <g
     inkscape:label="Layer 1"
     inkscape:groupmode="layer"
     id="layer1"
     transform="translate(0,-167)">
    <path
       style="fill:#000000;stroke-width:1"
       d="m 50.108919,283.49692 c -6.346285,-0.1386 -13.389111,-1.03819 -17.55612,-2.24249 -0.284719,-0.0823 -0.828277,-0.21325 -1.207907,-0.29102 -0.37963,-0.0777 -1.063569,-0.26026 -1.519863,-0.40554 -0.735014,-0.23402 -0.853159,-0.2575 -1.035976,-0.20591 -0.180102,0.0508 -0.197804,0.0481 -0.139166,-0.0209 0.0507,-0.0597 0.02645,-0.0721 -0.09892,-0.0503 -0.119202,0.0207 -0.149343,0.01 -0.106742,-0.0411 0.03316,-0.039 0.0038,-0.0699 -0.06669,-0.0699 -0.06934,0 -0.171532,-0.0468 -0.227107,-0.10407 -0.05558,-0.0573 -0.202462,-0.11056 -0.326414,-0.1185 -0.1319,-0.008 -0.378926,-0.11105 -0.595629,-0.24734 -0.203644,-0.12806 -0.397515,-0.22053 -0.430821,-0.20548 -0.03331,0.015 -0.122408,-0.0125 -0.198013,-0.0614 -0.0756,-0.0487 -0.310052,-0.11321 -0.521004,-0.14312 -0.210953,-0.03 -0.508985,-0.11995 -0.662298,-0.2001 -0.170771,-0.0892 -0.279814,-0.11923 -0.281501,-0.0775 -0.0019,0.0469 -0.05019,0.0375 -0.155533,-0.0304 -0.105277,-0.0679 -0.220701,-0.0905 -0.371222,-0.0728 -0.141542,0.0167 -0.251711,-10e-4 -0.312947,-0.0505 -0.05198,-0.042 -0.161312,-0.0763 -0.242966,-0.0763 -0.08165,0 -0.14846,-0.0416 -0.14846,-0.0925 0,-0.11394 -0.172445,-0.12236 -0.23653,-0.012 -0.0288,0.0498 -0.05138,0.032 -0.05869,-0.0462 -0.0075,-0.0799 -0.06904,-0.12718 -0.165421,-0.12718 -0.08445,0 -0.153547,-0.0159 -0.153547,-0.0353 0,-0.0194 -0.10365,-0.0558 -0.230321,-0.081 -0.126675,-0.0251 -0.244184,-0.0895 -0.261129,-0.14316 -0.01694,-0.0537 -0.155137,-0.12643 -0.307093,-0.16179 -0.151956,-0.0354 -0.307254,-0.0837 -0.345106,-0.10756 -0.03786,-0.0238 -0.137738,0.0283 -0.22197,0.1155 l -0.153148,0.15878 -0.0084,-0.21968 c -0.01014,-0.26803 -0.166147,-0.28517 -0.315442,-0.0346 -0.153547,0.25763 -0.223361,0.23079 -0.150393,-0.0577 0.05705,-0.22564 0.05007,-0.23646 -0.09884,-0.15302 -0.08812,0.0493 -0.160227,0.12394 -0.160227,0.16571 0,0.0418 -0.03455,0.0913 -0.07678,0.11009 -0.04223,0.0188 -0.134791,0.10033 -0.205701,0.18112 -0.128072,0.14602 -0.128591,0.14561 -0.07797,-0.0611 0.105553,-0.43099 0.184524,-1.20244 0.123097,-1.20244 -0.03514,0 -0.107118,0.0676 -0.159954,0.15031 -0.09595,0.15012 -0.09607,0.15015 -0.10529,0.0204 -0.0054,-0.076 -0.05268,-0.11778 -0.114006,-0.1007 -0.06909,0.0192 -0.08121,-0.0373 -0.03559,-0.16622 0.0503,-0.14214 0.037,-0.18649 -0.04876,-0.16255 -0.06488,0.0182 -0.11795,0.0523 -0.11795,0.076 0,0.0646 -0.637599,0.69623 -0.682385,0.676 -0.02129,-0.01 0.06314,-0.15531 0.187624,-0.32376 0.231696,-0.31351 0.210567,-0.41285 -0.06577,-0.30924 -0.20255,0.0759 -0.198642,0.0271 0.0093,-0.11634 0.202916,-0.13992 0.11537,-0.14474 -0.285698,-0.0158 l -0.305527,0.0983 0.264135,-0.23549 c 0.285922,-0.25493 0.31768,-0.30524 0.165934,-0.26287 -0.05401,0.015 -0.191052,10e-4 -0.304538,-0.0308 -0.162821,-0.046 -0.232783,-0.0463 -0.33173,-0.001 -0.210865,0.0953 -0.333393,0.0629 -0.135626,-0.0359 0.272167,-0.13588 0.06386,-0.11743 -1.0491,0.0926 -0.539325,0.10179 -0.998324,0.1771 -1.019999,0.16731 -0.02168,-0.01 0.340458,-0.11057 0.804737,-0.22407 0.876649,-0.2142 1.201925,-0.35512 0.601411,-0.26054 -0.477005,0.0751 -0.473275,0.0232 0.01077,-0.15002 0.421283,-0.15074 0.425881,-0.15532 0.183859,-0.1831 -0.136529,-0.0156 -0.236717,-0.0527 -0.222642,-0.0822 0.01445,-0.0303 -0.09426,-0.0537 -0.249886,-0.0537 -0.264197,0 -0.26734,-0.002 -0.07677,-0.0679 0.177394,-0.0606 0.179759,-0.0681 0.02204,-0.0694 -0.09716,-8e-4 -0.321661,-0.0413 -0.498881,-0.09 -0.316716,-0.087 -0.318068,-0.0889 -0.07924,-0.10972 l 0.24297,-0.0212 -0.255912,-0.0393 c -0.247561,-0.0381 -0.244221,-0.0403 0.10236,-0.0662 l 0.358275,-0.0267 -0.383866,-0.0761 c -0.416697,-0.0827 -0.488079,-0.18591 -0.233576,-0.33793 0.146531,-0.0876 0.150372,-0.0872 0.153546,0.0143 0.0018,0.0573 0.06083,0.10442 0.131212,0.10479 0.08542,4.8e-4 0.0772,0.0152 -0.02473,0.0443 -0.224521,0.0641 -0.03525,0.12201 0.592778,0.18127 0.673702,0.0635 0.766506,0.0639 0.681936,0.002 -0.03699,-0.0271 0.0075,-0.0865 0.09879,-0.13207 0.09237,-0.0461 0.137377,-0.11658 0.101446,-0.15895 -0.08128,-0.0956 -6.65e-4,-0.096 0.319178,-0.001 0.218118,0.0646 0.25231,0.0653 0.25231,0.006 0,-0.038 -0.0691,-0.0949 -0.153547,-0.1266 -0.259304,-0.0972 -0.169965,-0.15424 0.111251,-0.071 0.366607,0.10852 0.438852,0.0498 0.126617,-0.10287 -0.510326,-0.24961 -0.446875,-0.35492 0.08403,-0.13946 0.120743,0.049 0.246327,0.0695 0.279089,0.0456 0.03276,-0.024 -0.03147,-0.0807 -0.142748,-0.12627 -0.212246,-0.0867 -0.262385,-0.18489 -0.115458,-0.22592 0.04777,-0.0134 0.189012,0.0188 0.313861,0.0712 0.373807,0.15734 0.364894,0.0597 -0.01619,-0.17751 -0.621251,-0.38658 -0.622763,-0.46355 -0.0031,-0.15874 0.648828,0.31917 0.891064,0.35021 1.128283,0.1446 0.128844,-0.11164 0.109635,-0.63906 -0.03872,-1.06304 l -0.05655,-0.16161 -0.25095,0.13181 c -0.163388,0.0858 -0.317759,0.1239 -0.442424,0.10924 -0.116748,-0.0138 -0.336654,0.0314 -0.563494,0.11598 -0.347734,0.1295 -0.384116,0.1336 -0.557312,0.0628 -0.172972,-0.0707 -0.240897,-0.0645 -1.02147,0.0944 -0.751411,0.153 -0.848876,0.16275 -0.961442,0.0961 -0.113442,-0.0671 -0.212248,-0.0612 -1.046546,0.0616 -1.041583,0.15347 -1.589852,0.18068 -1.384167,0.0687 0.06885,-0.0375 0.293295,-0.0804 0.498763,-0.0954 0.20547,-0.015 0.562883,-0.0676 0.794252,-0.11682 0.231368,-0.0493 0.555082,-0.0896 0.719366,-0.0896 0.312541,0 0.693713,-0.0977 0.964723,-0.24721 0.13972,-0.0771 0.187594,-0.0804 0.380409,-0.026 0.197797,0.0558 0.251651,0.0487 0.521518,-0.068 0.205112,-0.0888 0.363841,-0.12124 0.498464,-0.1019 0.135503,0.0194 0.296091,-0.0142 0.511457,-0.1072 0.290428,-0.12538 0.345834,-0.1323 0.739923,-0.0923 0.511991,0.052 0.618095,0.0288 0.616036,-0.13471 -0.0021,-0.16732 -0.137573,-0.25348 -0.425064,-0.27035 -0.131305,-0.007 -0.370155,-0.0248 -0.530775,-0.0379 -0.230971,-0.0189 -0.351934,0.005 -0.578483,0.11466 -0.213837,0.10346 -0.378296,0.13853 -0.648792,0.13853 -0.199291,0 -0.390816,0.0208 -0.425613,0.0462 -0.0348,0.0254 -0.111977,0.0462 -0.171525,0.0462 -0.10097,0 -0.0911,-0.0325 0.08779,-0.28904 0.07626,-0.10937 -0.116973,-0.10215 -0.476111,0.0178 -0.184005,0.0615 -0.37848,0.0889 -0.515017,0.0728 -0.151753,-0.0179 -0.284975,0.008 -0.432188,0.0847 -0.216955,0.11273 -0.444199,0.10936 -0.34696,-0.005 0.147765,-0.17396 -0.235111,-0.0913 -0.846062,0.18255 -0.679651,0.30471 -0.933866,0.3692 -0.933866,0.23689 0,-0.0861 -0.178214,-0.0861 -0.511822,0 -0.302427,0.0781 -0.954811,0.0893 -1.236511,0.0212 -0.152952,-0.0369 -0.425919,-0.0154 -1.171686,0.0925 -1.027554,0.14872 -1.733075,0.18387 -1.663745,0.0829 0.0602,-0.0877 0.677061,-0.21069 1.468315,-0.2928 1.265711,-0.13137 1.426435,-0.16766 1.426435,-0.32212 0,-0.11838 0.04105,-0.13817 0.307094,-0.14834 1.236861,-0.0472 1.328773,-0.0591 1.49845,-0.19262 0.128894,-0.10142 0.38964,-0.17018 1.152346,-0.3037 1.24447,-0.21784 1.638604,-0.33515 1.681116,-0.50034 0.01793,-0.0697 0.133094,-0.15596 0.255911,-0.19171 0.209027,-0.0609 1.831263,-0.29056 2.808007,-0.39759 l 0.435049,-0.0476 v -0.41445 c 0,-0.22795 -0.03759,-0.41444 -0.08353,-0.41444 -0.04595,0 -0.187283,0.11309 -0.314094,0.25131 -0.2655,0.28941 -0.606697,0.46207 -0.488158,0.24702 0.03821,-0.0693 0.09948,-0.25661 0.136157,-0.41623 0.06313,-0.27468 0.05693,-0.28658 -0.115796,-0.2222 -0.100369,0.0374 -0.408756,0.21951 -0.6853,0.40467 -0.525989,0.35216 -0.701299,0.40934 -0.701299,0.22873 0,-0.17139 -0.106992,-0.17732 -0.48612,-0.0269 -0.418744,0.1661 -0.512051,0.15116 -0.286533,-0.0458 0.09005,-0.0787 0.126,-0.14304 0.07989,-0.14304 -0.04611,0 -0.356229,0.10407 -0.689158,0.23124 -0.33293,0.12718 -0.69655,0.23123 -0.808046,0.23123 -0.183427,0 -0.175744,-0.0128 0.08073,-0.13366 0.182646,-0.0861 0.243354,-0.14487 0.170697,-0.16515 -0.204467,-0.0572 -0.780272,0.0659 -1.185144,0.25329 -0.309746,0.14331 -0.475475,0.18428 -0.745647,0.18428 -0.257821,0 -0.463915,0.0463 -0.79935,0.17973 -0.582114,0.2315 -0.859006,0.26906 -0.859006,0.11658 0,-0.11225 -0.235262,-0.15497 -0.358276,-0.0651 -0.0348,0.0254 -0.193097,0.0462 -0.351782,0.0462 -0.158685,0 -0.35174,0.0344 -0.429009,0.0765 -0.121469,0.0662 -0.694082,0.20095 -0.853752,0.20095 -0.173489,0 -0.0086,-0.13104 0.252623,-0.20076 0.171633,-0.0458 0.307094,-0.12113 0.307094,-0.17077 0,-0.138 0.376826,-0.21872 1.606024,-0.34409 1.387108,-0.14147 1.442481,-0.15079 1.516055,-0.25553 0.06372,-0.0907 0.604146,-0.20456 1.217875,-0.25657 0.269514,-0.0228 0.41053,-0.0645 0.474168,-0.14014 0.109698,-0.13036 0.396383,-0.19894 1.532473,-0.36655 1.000026,-0.14755 1.842559,-0.32761 1.842559,-0.39377 0,-0.0636 -0.274846,-0.0559 -0.860775,0.0244 -0.722056,0.0989 -0.782622,0.093 -0.710519,-0.0699 0.06001,-0.13554 0.05204,-0.13874 -0.345559,-0.13874 -0.624608,0 -0.966821,0.0789 -1.366662,0.31538 -0.556188,0.32884 -1.214304,0.45009 -0.933915,0.17206 0.161355,-0.16 -0.03419,-0.20007 -0.340936,-0.0699 -0.188362,0.08 -0.316447,0.097 -0.562481,0.0747 -0.457012,-0.0413 -1.201613,0.0463 -1.75385,0.20624 -0.361065,0.10455 -0.578121,0.13546 -0.893516,0.12705 -0.310838,-0.008 -0.477292,0.0147 -0.655686,0.0904 -0.131499,0.0558 -0.305218,0.10058 -0.38604,0.0996 -0.292642,-0.004 0.543364,-0.266 1.393511,-0.43715 0.721664,-0.14527 0.865105,-0.19173 0.865105,-0.28021 0,-0.1271 0.158442,-0.15395 1.893741,-0.32099 1.579289,-0.15203 1.586649,-0.1532 1.586649,-0.2525 0,-0.12199 0.292179,-0.19268 1.986736,-0.48079 2.048993,-0.34835 2.005477,-0.33318 2.005477,-0.69907 0,-0.42615 -0.237657,-0.45292 -0.812178,-0.0914 -0.179604,0.11297 -0.391603,0.20544 -0.471109,0.20544 -0.07951,0 -0.216019,0.0624 -0.303362,0.13874 -0.193241,0.16883 -0.284302,0.17269 -0.544716,0.0231 -0.110712,-0.0636 -0.250393,-0.11562 -0.310397,-0.11562 -0.06001,0 -0.279577,0.0832 -0.487941,0.18499 -0.442681,0.21616 -0.524322,0.22542 -0.611017,0.0694 -0.06046,-0.10876 -0.349129,-0.16751 -0.349129,-0.071 0,0.0735 -0.624259,0.37159 -0.778337,0.37159 -0.09058,0 -0.142943,-0.0508 -0.142943,-0.13874 0,-0.1863 -0.13106,-0.17474 -0.52413,0.0462 -0.395855,0.22255 -0.555161,0.23272 -0.640098,0.0409 -0.05759,-0.13011 -0.09125,-0.1411 -0.34548,-0.11285 -0.753296,0.0838 -0.854519,0.0836 -0.993344,-0.002 -0.133472,-0.0824 -0.157632,-0.0817 -0.709624,0.0217 -0.693252,0.12981 -1.024914,0.10226 -0.359266,-0.0298 0.259299,-0.0515 0.502317,-0.1299 0.540039,-0.17432 0.06141,-0.0723 0.175773,-0.0776 1.093623,-0.0504 0.996147,0.0295 1.022009,0.0278 0.917675,-0.0603 -0.200144,-0.16897 -0.06733,-0.20488 3.935121,-1.06413 1.495991,-0.32117 1.998978,-0.46816 1.998978,-0.58418 0,-0.0948 -0.611102,-0.29666 -0.898041,-0.29666 -0.147481,0 -0.448375,0.0564 -0.668655,0.1254 -0.386671,0.12107 -0.405372,0.12239 -0.541287,0.0384 -0.134896,-0.0834 -0.149152,-0.0836 -0.341131,-0.005 -0.160456,0.0656 -0.299412,0.0758 -0.697788,0.051 -0.457218,-0.0284 -0.542249,-0.0173 -1.051786,0.13763 -0.52707,0.16024 -0.584752,0.16717 -1.171993,0.14067 -0.339701,-0.0153 -0.909915,-0.0261 -1.267142,-0.0241 -0.857802,0.005 -0.740093,-0.0706 0.214817,-0.13822 1.151707,-0.0814 1.189401,-0.0878 1.3473,-0.22573 0.171592,-0.14992 0.520009,-0.20644 1.770127,-0.28715 0.930807,-0.06 1.290457,-0.1385 1.079152,-0.23529 -0.303891,-0.1392 -0.04752,-0.21897 1.356329,-0.42206 0.580696,-0.084 0.722765,-0.12342 0.749322,-0.20792 0.02165,-0.0689 -0.03043,-0.11321 -0.153547,-0.13056 -0.102472,-0.0144 -0.346273,-0.0579 -0.541773,-0.0965 -0.342485,-0.0676 -0.363028,-0.066 -0.563004,0.0436 -0.140984,0.0772 -0.350002,0.12182 -0.651716,0.13905 -0.263308,0.015 -0.778052,0.11297 -1.26414,0.24062 -0.716621,0.18812 -0.869359,0.21148 -1.211802,0.18534 -0.338336,-0.0259 -0.466031,-0.007 -0.93533,0.13546 -0.298925,0.0909 -0.601693,0.16536 -0.67282,0.16536 -0.232987,0 -0.135631,-0.0887 0.177769,-0.16186 0.332217,-0.0776 0.369468,-0.11514 0.193176,-0.19484 -0.181973,-0.0822 -0.03555,-0.13386 0.612354,-0.216 0.806464,-0.10226 0.935734,-0.17461 0.578757,-0.32409 -0.271848,-0.11381 -0.27194,-0.11405 -0.05541,-0.16646 0.434543,-0.10503 1.102216,-0.19354 2.293548,-0.30393 0.669273,-0.062 1.235531,-0.11273 1.258349,-0.11273 0.11507,0 1.094091,-0.45377 1.224125,-0.56738 0.313569,-0.27396 -0.117862,-0.44078 -0.600099,-0.23204 l -0.29664,0.1284 -0.187626,-0.11237 c -0.181176,-0.10852 -0.196675,-0.10973 -0.450825,-0.0344 -0.144758,0.0428 -0.369703,0.078 -0.499875,0.078 -0.130171,0 -0.481898,0.0833 -0.781613,0.18499 -0.299714,0.10178 -0.632439,0.18499 -0.739387,0.18499 -0.352247,0 -0.20292,-0.13268 0.291781,-0.25925 0.267427,-0.0685 0.854743,-0.23346 1.305146,-0.36675 0.450404,-0.1333 1.072268,-0.29901 1.38192,-0.36826 0.812069,-0.18158 1.023645,-0.28306 1.023645,-0.49099 0,-0.0958 -0.04522,-0.18683 -0.100482,-0.20227 -0.121005,-0.0338 -0.985755,0.0853 -1.690895,0.23278 -0.679939,0.14225 -0.852615,0.16375 -0.919919,0.11453 -0.08965,-0.0656 0.550556,-0.26053 1.540965,-0.46934 0.995522,-0.20988 1.131713,-0.26259 0.922661,-0.35707 -0.104814,-0.0474 -0.188272,-0.0502 -0.347843,-0.012 -0.115471,0.0279 -0.293582,0.0499 -0.39581,0.0489 -0.139914,-0.001 -0.08271,-0.0443 0.231388,-0.17344 0.882528,-0.3628 0.98963,-0.60044 0.246411,-0.54675 -0.224266,0.0162 -0.407755,0.0201 -0.407755,0.008 0,-0.0108 0.179616,-0.0663 0.399147,-0.12207 0.514182,-0.13056 0.602481,-0.21869 0.66887,-0.66764 0.111063,-0.75107 0.213179,-1.04058 0.367036,-1.04058 0.06155,0 0.100418,0.29229 0.100418,0.75503 0,0.74556 0.0033,0.75638 0.255912,0.86364 0.321353,0.13639 0.321353,0.1758 0,0.21225 -0.285628,0.0324 -0.331687,0.11802 -0.108508,0.20167 0.08107,0.0304 0.161682,0.0984 0.179138,0.15124 0.03499,0.10588 0.162622,0.14471 0.697104,0.21245 l 0.358276,0.0453 -0.517849,0.005 c -0.795071,0.007 -0.891185,0.061 -0.945475,0.52824 -0.0652,0.56127 -0.01852,0.59356 0.528596,0.36572 0.573343,-0.23877 0.713729,-0.27097 2.060736,-0.4727 0.659805,-0.0988 1.115413,-0.19123 1.100419,-0.22322 -0.01408,-0.0301 -0.03711,-0.0792 -0.05118,-0.10936 -0.04488,-0.096 0.532435,-0.18511 1.365877,-0.21092 0.949848,-0.0295 1.08536,-0.0748 0.916027,-0.30658 -0.126446,-0.17309 -0.26678,-0.21399 -0.734302,-0.21399 -0.167093,0 -0.440537,-0.032 -0.607655,-0.071 -0.347245,-0.0811 -0.41734,-0.0463 -0.375984,0.18661 0.01786,0.10058 -0.01757,0.13623 -0.128915,0.1296 -0.4033,-0.0239 -1.059877,-0.11502 -1.262945,-0.17518 -0.200036,-0.0592 -0.298983,-0.0567 -0.862881,0.0226 -0.610665,0.0859 -0.945107,0.0838 -0.945107,-0.006 0,-0.0739 0.620097,-0.21556 1.525362,-0.34843 0.484112,-0.0711 1.432971,-0.23795 2.108575,-0.37089 1.192511,-0.23465 1.229154,-0.24617 1.25509,-0.39429 0.04392,-0.25083 -0.07197,-0.28928 -0.664817,-0.22064 -0.385596,0.0446 -0.587739,0.0463 -0.837823,0.007 -0.282442,-0.0445 -0.460649,-0.0322 -1.245334,0.0855 -0.97542,0.1464 -1.571448,0.17796 -1.504651,0.0796 0.062,-0.0913 0.862678,-0.24538 1.953901,-0.3761 0.579333,-0.0694 1.146021,-0.16927 1.340399,-0.23626 0.185212,-0.0638 0.381949,-0.1161 0.437198,-0.1161 0.154919,0 0.545594,-0.20525 0.545594,-0.28664 0,-0.0992 -0.283167,-0.12445 -0.879611,-0.0781 -1.134753,0.0882 -1.474772,0.1 -1.474772,0.051 0,-0.0269 0.172741,-0.0743 0.383866,-0.10515 0.211127,-0.0308 0.683284,-0.1241 1.049236,-0.20734 0.365953,-0.0833 0.757498,-0.16409 0.870098,-0.17966 0.17228,-0.0238 0.563004,-0.30961 0.563004,-0.41178 0,-0.0171 -0.187284,-0.031 -0.416187,-0.031 -0.426939,0 -0.812185,-0.0645 -0.812185,-0.13599 0,-0.0221 0.195771,-0.0682 0.435048,-0.10238 0.584552,-0.0836 0.648456,-0.236 0.172515,-0.4115 l -0.333263,-0.12288 0.451446,-0.0645 c 0.486354,-0.0695 0.611582,-0.19299 0.221125,-0.21805 -0.327811,-0.0211 -0.290707,-0.0697 0.230319,-0.3017 0.341831,-0.15225 0.460641,-0.24081 0.460641,-0.34334 0,-0.15496 0.196148,-0.25532 0.392065,-0.20062 0.103287,0.0289 0.09572,0.1315 -0.03765,0.51052 -0.09182,0.26093 -0.141548,0.52014 -0.110512,0.57601 0.03953,0.0712 0.279688,0.14845 0.801957,0.25809 0.678541,0.14242 0.717929,0.1579 0.438425,0.1721 -0.823588,0.0419 -0.985148,0.0661 -0.952608,0.14235 0.01795,0.0421 0.400841,0.19268 0.85089,0.33465 0.450048,0.14195 0.804628,0.27803 0.787957,0.30237 -0.05129,0.075 -0.554479,0.0241 -1.190869,-0.12042 -0.451118,-0.10238 -0.635129,-0.12418 -0.716551,-0.0848 -0.0786,0.038 -0.06925,0.0596 0.03313,0.0764 0.07848,0.0129 0.529745,0.15685 1.00281,0.31992 1.011358,0.34863 1.194178,0.38507 1.932094,0.38507 0.522532,0 0.771829,0.067 0.377203,0.1013 -0.352516,0.0307 -2.033337,-0.0528 -2.472806,-0.1229 -0.324543,-0.0517 -0.484491,-0.0576 -0.580889,-0.0215 -0.481072,0.18038 1.227543,0.76352 2.695734,0.92003 0.295752,0.0315 0.561525,0.0747 0.59061,0.096 0.09612,0.0703 -1.831508,-0.012 -2.356711,-0.10034 -0.649426,-0.10948 -0.731169,-0.10828 -0.800822,0.012 -0.05625,0.0972 -0.125962,0.10082 -0.681033,0.0351 -0.09371,-0.0108 -0.164336,0.0212 -0.185914,0.0849 -0.04913,0.14523 0.399611,0.25785 1.821316,0.45709 1.488174,0.20854 2.766337,0.48302 3.110916,0.66803 0.488047,0.26205 0.261462,0.31736 -0.333393,0.0814 -0.336447,-0.13346 -0.374998,-0.13894 -0.407318,-0.0577 -0.05906,0.14824 -0.181046,0.17057 -0.510801,0.0935 -0.172573,-0.0403 -0.393701,-0.0733 -0.491395,-0.0733 -0.09769,0 -0.283754,-0.045 -0.413469,-0.1001 -0.230769,-0.0979 -0.240389,-0.0983 -0.446929,-0.0138 -0.207564,0.0848 -0.215132,0.084 -0.453828,-0.0502 -0.211982,-0.11923 -0.251619,-0.12625 -0.312763,-0.0556 -0.110036,0.12719 -0.302082,0.0954 -0.488139,-0.081 -0.21836,-0.20688 -0.534589,-0.22454 -0.446221,-0.0249 0.07317,0.16528 -0.08371,0.22308 -0.331047,0.12195 -0.364697,-0.14911 -0.454716,-0.096 -0.38762,0.22859 0.03439,0.16637 0.08896,0.32183 0.121269,0.34544 0.03231,0.0236 0.529059,0.10732 1.103879,0.18593 1.908102,0.26102 2.895373,0.41548 3.12964,0.4896 0.213369,0.0675 0.218826,0.0798 0.06905,0.1545 -0.148667,0.0742 -0.148371,0.0865 0.0034,0.14346 0.152007,0.057 0.150061,0.0651 -0.023,0.0959 -0.289644,0.0515 -0.800512,0.046 -0.924383,-0.01 -0.07962,-0.036 -0.173298,-0.0198 -0.332148,0.0572 -0.187399,0.0908 -0.235969,0.0967 -0.317464,0.0385 -0.05292,-0.0378 -0.09692,-0.10515 -0.09779,-0.14968 -0.0016,-0.0871 -0.155673,-0.10912 -0.255062,-0.0365 -0.03346,0.0244 -0.319473,0.0381 -0.635568,0.0304 -0.541631,-0.0132 -0.584203,-0.0231 -0.739477,-0.17166 -0.253808,-0.24285 -0.477134,-0.20832 -0.437888,0.0677 l 0.03205,0.22537 -0.364728,-0.0309 -0.364726,-0.0309 v 0.34177 c 0,0.40305 0.139235,0.49032 0.836561,0.52429 0.95439,0.0464 1.085316,0.0645 1.138682,0.15672 0.04429,0.0765 0.141658,0.0914 0.599876,0.0918 0.300847,2.4e-4 0.792118,0.0137 1.091711,0.03 0.500223,0.0272 0.540019,0.038 0.48722,0.13305 -0.03347,0.0603 0.0014,0.12559 0.08354,0.15638 0.07757,0.0291 0.871725,0.13644 1.764796,0.23857 1.756002,0.20081 2.186771,0.26449 2.186771,0.32323 0,0.0908 -0.240626,0.0846 -0.928419,-0.0241 -0.743858,-0.11743 -0.974163,-0.11622 -0.871663,0.005 0.09006,0.10599 -0.234449,0.12907 -0.626921,0.0445 l -0.361105,-0.0778 0.06649,0.11971 0.06649,0.11971 -0.404527,-0.10515 c -0.386736,-0.10058 -0.413241,-0.10166 -0.602684,-0.0242 -0.223256,0.0913 -0.285156,0.0711 -0.575626,-0.18723 -0.213591,-0.19 -0.346525,-0.19122 -0.387545,-0.004 -0.03778,0.17281 -0.19758,0.21123 -0.434143,0.10431 -0.156523,-0.0707 -0.184322,-0.0709 -0.352626,-0.002 -0.271012,0.11081 -0.406282,0.0924 -0.640792,-0.0872 -0.268371,-0.2055 -0.395893,-0.2055 -0.395893,0 0,0.13064 -0.03921,0.16186 -0.203256,0.16186 -0.146186,0 -0.292097,-0.0795 -0.519669,-0.28318 -0.392171,-0.35101 -0.621743,-0.31602 -0.305438,0.0466 0.115196,0.13204 0.209447,0.26011 0.209447,0.2846 0,0.0245 -0.184256,0.0445 -0.409458,0.0445 -0.225202,0 -0.409458,0.0183 -0.409458,0.0407 0,0.0556 0.382964,0.12232 1.586649,0.27652 0.563004,0.0722 1.023645,0.15341 1.023645,0.18063 0,0.0876 0.109811,0.10647 1.396233,0.24025 0.695882,0.0724 1.551688,0.17527 1.90179,0.22863 0.792953,0.12087 0.805844,0.12075 1.474777,-0.0129 1.705901,-0.34077 5.399953,-0.82839 7.91811,-1.04521 5.360546,-0.46154 11.947553,-0.46152 17.30415,1e-4 3.923228,0.33808 7.799161,0.9352 10.999857,1.69462 6.667023,1.58185 10.981867,3.83907 12.294609,6.43165 0.270363,0.53396 0.367488,1.63099 0.201501,2.2759 -0.455233,1.76872 -2.459936,3.45601 -5.849686,4.92353 -5.627449,2.43628 -14.388645,3.94815 -24.013326,4.14385 -2.341192,0.0476 -2.630051,0.0474 -4.946505,-0.004 z m 7.933244,-0.43297 c 8.577031,-0.48617 16.041003,-2.00297 20.696035,-4.20575 2.458809,-1.16352 3.897379,-2.29554 4.688493,-3.68945 0.530419,-0.93456 0.466917,-2.40634 -0.145287,-3.3674 -2.110819,-3.31362 -9.586563,-6.03991 -19.711561,-7.18848 -3.851213,-0.43688 -6.15426,-0.55724 -10.697085,-0.55901 -4.596702,-0.002 -6.799967,0.10876 -10.616046,0.53242 -2.396503,0.26609 -5.45517,0.73283 -5.45517,0.83243 0,0.0202 0.310932,0.0827 0.690959,0.13876 1.001593,0.14783 1.663423,0.28022 1.663423,0.33273 0,0.0478 -0.184025,0.038 -1.132564,-0.06 -0.536059,-0.0555 -0.587632,-0.0528 -0.87682,0.0438 -0.305016,0.1019 -0.312819,0.10202 -1.068272,0.0255 -1.377524,-0.13959 -1.347144,-0.14061 -2.216778,0.0745 -1.289024,0.31891 -2.792357,0.77595 -2.792357,0.84889 0,0.0924 0.177983,0.11249 2.072619,0.23458 1.531021,0.0987 1.663186,0.1149 1.844125,0.22712 0.189593,0.11755 0.225384,0.12089 1.312381,0.12089 1.104031,0 1.11747,10e-4 1.11747,0.1084 0,0.16449 0.306176,0.25678 1.099862,0.33155 0.396082,0.0373 1.013123,0.13045 1.371202,0.20698 0.358078,0.0765 0.780755,0.13917 0.939282,0.13919 0.326103,4e-5 0.684232,0.0735 0.684232,0.14041 0,0.0736 -0.460411,0.0505 -0.935694,-0.0468 -0.541104,-0.11093 -0.795543,-0.1167 -0.949465,-0.0217 -0.155936,0.0964 -0.454429,0.0402 -0.532387,-0.10009 -0.07996,-0.14394 -0.319614,-0.14132 -0.467284,0.005 -0.06413,0.0636 -0.144083,0.11562 -0.177669,0.11562 -0.03359,0 -0.313767,-0.0937 -0.622622,-0.20813 -0.457154,-0.16942 -0.637809,-0.20819 -0.971736,-0.20855 -0.225601,-2.5e-4 -0.656593,-0.0523 -0.957761,-0.11562 -0.721312,-0.15171 -0.872946,-0.15001 -0.805637,0.01 0.02891,0.0683 0.02935,0.15159 10e-4,0.185 -0.07651,0.0901 -0.47765,0.0736 -0.77417,-0.0318 -0.192417,-0.0683 -0.416186,-0.0926 -0.858312,-0.0929 -0.963423,-6.1e-4 -2.383836,-0.0861 -3.176924,-0.19136 -0.781016,-0.10359 -1.092098,-0.0912 -1.035628,0.0413 0.02156,0.0505 0.264957,0.12059 0.647343,0.18616 0.958426,0.16435 1.283079,0.25068 1.431935,0.38072 0.205069,0.17916 0.582698,0.23418 1.923164,0.28015 1.285868,0.0442 1.403447,0.0575 1.403447,0.16011 0,0.0979 0.262747,0.1447 1.702516,0.30293 0.839051,0.0922 1.614112,0.21238 2.135031,0.33103 0.449787,0.10239 1.255907,0.25774 1.791377,0.34511 1.401812,0.22871 1.498262,0.29837 0.205849,0.14866 -0.197052,-0.0229 -0.547187,-0.0416 -0.778079,-0.0418 -0.25386,-1.3e-4 -0.616359,-0.0475 -0.917057,-0.11971 -0.336136,-0.0807 -0.598126,-0.11237 -0.808571,-0.0976 -0.184207,0.013 -0.511659,-0.0165 -0.802,-0.0721 l -0.490685,-0.094 -0.206377,0.1001 c -0.217952,0.10575 -0.258973,0.1019 -0.776607,-0.0709 -0.311812,-0.10407 -0.332566,-0.10527 -0.46064,-0.025 -0.23829,0.14923 -0.377275,0.15497 -0.832637,0.0344 -0.631831,-0.16729 -0.708956,-0.15715 -0.629336,0.0828 0.05132,0.15464 0.02745,0.21838 -0.104038,0.27779 -0.234603,0.10599 -0.428455,0.047 -0.812002,-0.24701 -0.1943,-0.14894 -0.464238,-0.2796 -0.703722,-0.3406 l -0.388512,-0.099 -0.246356,0.12718 c -0.252304,0.13026 -0.501995,0.16314 -0.61445,0.081 -0.117099,-0.0856 -0.255912,-0.0472 -0.255912,0.0709 0,0.25068 -0.701505,0.17981 -1.659892,-0.16769 -0.344166,-0.12477 -0.663174,-0.22687 -0.708949,-0.22687 -0.04577,0 -0.150015,0.0468 -0.231644,0.10407 -0.325177,0.228 0.145287,0.53647 0.97146,0.63698 0.224949,0.0273 0.810171,0.0698 1.300493,0.0943 1.114319,0.0557 1.413972,0.10924 1.542605,0.27601 0.121056,0.15689 0.505007,0.25511 1.174578,0.30047 0.393141,0.0266 0.511458,0.0562 0.587625,0.14668 0.09433,0.11213 0.105202,0.11297 1.004423,0.0812 l 0.909054,-0.0321 -0.05037,0.11899 c -0.05997,0.14171 0.02169,0.15456 1.302435,0.20479 0.839718,0.033 0.870098,0.0381 0.870098,0.14973 0,0.10131 0.07597,0.12582 0.614187,0.19809 1.438257,0.19315 1.433101,0.19212 1.433101,0.28631 0,0.0722 0.110011,0.10238 0.524868,0.14407 0.618077,0.0622 0.754688,0.0948 0.754688,0.18032 0,0.037 0.235611,0.0943 0.567855,0.13795 0.523132,0.0687 0.781562,0.17019 0.619657,0.24333 -0.03638,0.0165 -0.293475,-0.007 -0.571314,-0.0522 -0.277838,-0.0451 -0.547602,-0.0703 -0.599476,-0.0557 -0.05187,0.0144 -0.396757,-0.0462 -0.766407,-0.13481 -0.388002,-0.093 -0.819433,-0.16113 -1.020671,-0.16113 -0.352032,0 -0.9424,-0.15979 -1.342034,-0.36322 -0.247123,-0.12579 -0.470365,-0.12756 -0.470365,-0.004 0,0.11839 -0.177659,0.27445 -0.312351,0.27445 -0.05523,0 -0.177986,-0.0735 -0.27279,-0.16331 -0.176358,-0.16708 -0.433725,-0.22641 -0.863141,-0.19894 -0.160572,0.0108 -0.251897,0.051 -0.274262,0.12228 -0.04365,0.13915 -0.284525,0.17825 -0.515757,0.0837 -0.252501,-0.10323 -0.52554,-0.0955 -0.52554,0.0148 0,0.11309 -0.149379,0.15488 -0.664026,0.18609 -0.416506,0.0253 -0.54609,0.10431 -0.371677,0.22668 0.04953,0.0348 0.33737,0.0888 0.63965,0.12007 0.502867,0.0521 0.547198,0.067 0.52134,0.17613 -0.01554,0.0656 0.01252,0.13065 0.06235,0.14457 0.04984,0.014 0.684416,0.0579 1.41018,0.0977 1.590415,0.0872 1.677847,0.0981 1.677847,0.20698 0,0.0928 0.255577,0.14482 1.710518,0.34843 0.773206,0.10816 1.048551,0.17857 0.922172,0.23567 -0.02711,0.0123 -0.384272,-0.0307 -0.793695,-0.0953 -0.618275,-0.0976 -0.858824,-0.11297 -1.419657,-0.0906 -0.626846,0.0249 -0.73354,0.0146 -1.488426,-0.14462 -0.704963,-0.14869 -0.883063,-0.16825 -1.338328,-0.14703 -0.294585,0.0137 -0.791473,-0.004 -1.131747,-0.0399 -0.333628,-0.0355 -1.059515,-0.0648 -1.613084,-0.0652 -0.892607,-6.5e-4 -1.085651,-0.0164 -1.70617,-0.13946 -0.384826,-0.0763 -0.799864,-0.13876 -0.922306,-0.13876 -0.20651,0 -0.220085,0.019 -0.187571,0.26199 0.02168,0.16207 -0.0076,0.26846 -0.07703,0.27895 -0.06165,0.01 -0.338029,-0.0567 -0.614187,-0.1466 -0.691956,-0.22542 -1.120418,-0.31989 -1.305345,-0.28783 -0.261529,0.0454 -0.377982,0.34316 -0.444942,1.13789 -0.04675,0.55485 -0.03311,0.7502 0.05074,0.72678 0.06308,-0.0176 0.148261,-0.10936 0.189309,-0.20383 l 0.07464,-0.1718 0.08184,0.20811 c 0.129507,0.32936 0.169101,0.3554 0.356514,0.23452 0.118313,-0.0763 0.184637,-0.0894 0.241601,-0.0478 0.0548,0.0401 0.12969,0.0171 0.247902,-0.0763 l 0.169383,-0.13361 -0.04209,0.12718 c -0.05238,0.1583 0.05618,0.16388 0.235944,0.0122 0.09554,-0.0806 0.172388,-0.10154 0.257035,-0.0698 0.06642,0.0249 0.154901,0.0298 0.196637,0.0108 0.04174,-0.0189 0.06659,-0.0135 0.05524,0.012 -0.04589,0.10274 0.01266,0.12385 0.182731,0.0657 0.152396,-0.0521 0.160038,-0.0516 0.05118,0.004 -0.263117,0.1333 -0.141895,0.19585 0.179315,0.0925 0.356066,-0.11454 0.749576,-0.10696 0.801242,0.0154 0.03107,0.0736 0.0065,0.0777 -0.186494,0.031 -0.235009,-0.0568 -0.54034,0.0154 -1.280295,0.30289 l -0.307092,0.11934 0.294448,-0.0285 c 0.23843,-0.0231 0.28286,-0.0149 0.233534,0.0432 -0.101133,0.11911 0.04094,0.21045 0.327475,0.21063 l 0.270551,1.9e-4 -0.332684,0.0917 c -0.361563,0.0996 -0.435037,0.18548 -0.158665,0.18548 0.135348,0 0.146722,0.0124 0.05118,0.0555 -0.228592,0.10323 -0.124587,0.13528 0.337802,0.10395 0.503966,-0.0342 0.608349,0.002 0.204729,0.0718 -0.442259,0.076 -0.308932,0.15284 0.204729,0.11802 0.364194,-0.0247 0.460639,-0.0173 0.460639,0.0353 0,0.0368 -0.136928,0.0788 -0.307092,0.0942 -0.168902,0.0153 -0.307094,0.0521 -0.307094,0.0819 0,0.0392 0.24865,0.0475 0.895689,0.0302 0.861212,-0.0231 0.871489,-0.0223 0.267024,0.022 l -0.628665,0.0461 -0.04493,0.3064 c -0.02471,0.16853 -0.0066,0.31335 0.04007,0.32183 0.04675,0.008 0.085,0.0762 0.085,0.1503 0,0.10407 0.0468,0.1349 0.204729,0.1349 0.112603,0 0.204729,0.0191 0.204729,0.0426 0,0.0235 0.138192,0.0563 0.307093,0.073 0.168902,0.0167 0.307094,0.0521 0.307094,0.0784 0,0.0263 0.09744,0.0365 0.216524,0.0224 0.11909,-0.0141 0.291827,-0.007 0.383866,0.0143 0.09204,0.022 0.247954,0.0512 0.346481,0.065 0.09853,0.0137 0.179137,0.0673 0.179137,0.11898 0,0.0527 0.06745,0.094 0.153547,0.094 0.08445,0 0.153546,0.0208 0.153546,0.0462 0,0.0254 0.133834,0.0462 0.297409,0.0462 0.191081,0 0.453785,0.0591 0.73481,0.16511 0.269419,0.10166 0.509016,0.15664 0.623872,0.14307 0.107894,-0.0127 0.18647,0.002 0.18647,0.0366 0,0.0373 0.213603,0.0685 0.588595,0.0858 0.436129,0.0202 0.624975,0.0519 0.729036,0.12209 0.171986,0.11622 0.4784,0.12307 0.619094,0.014 0.09205,-0.0713 0.104701,-0.068 0.107444,0.0288 0.0026,0.0923 0.02759,0.10058 0.15666,0.0521 0.126508,-0.0474 0.153547,-0.0433 0.153547,0.0231 0,0.0638 0.02993,0.0694 0.142771,0.0272 0.113217,-0.0425 0.139704,-0.0368 0.127956,0.0274 -0.0096,0.0527 0.163831,0.12553 0.497006,0.20866 0.281501,0.0703 0.452788,0.12819 0.380636,0.12878 -0.227224,0.002 -1.380991,-0.18626 -1.967285,-0.32079 -0.309652,-0.0711 -0.701197,-0.15088 -0.870098,-0.1774 -0.909064,-0.14271 -2.348273,-0.43491 -2.950735,-0.59907 -0.446834,-0.12175 -0.904978,-0.20436 -1.314066,-0.23691 -0.345432,-0.0275 -0.901971,-0.11442 -1.236755,-0.1931 -0.334785,-0.0787 -0.623485,-0.13644 -0.641555,-0.12829 -0.06171,0.0279 0.725596,0.73027 0.884261,0.78888 0.08703,0.0321 0.215331,0.14932 0.285106,0.26043 0.06977,0.11105 0.22768,0.24636 0.3509,0.30061 0.123222,0.0543 0.285398,0.15301 0.360401,0.2195 0.075,0.0665 0.247097,0.17484 0.382436,0.24078 0.135338,0.0659 0.246069,0.14161 0.246069,0.16817 0,0.0266 0.0691,0.0482 0.153547,0.0482 0.08445,0 0.153547,0.0302 0.153547,0.067 0,0.0369 0.06237,0.0837 0.138603,0.10407 0.07622,0.0203 0.195639,0.086 0.26535,0.14596 0.102811,0.0884 0.182796,0.10395 0.423566,0.0822 0.272645,-0.0247 0.286783,-0.0196 0.173575,0.0623 -0.153874,0.11129 -0.03667,0.17315 0.176625,0.0931 0.133101,-0.0499 0.200243,-0.0421 0.411931,0.0478 0.1391,0.0591 0.25291,0.13221 0.25291,0.16261 0,0.0304 0.287899,0.11165 0.639777,0.18046 0.690477,0.13512 1.025591,0.24557 0.938417,0.3093 -0.09353,0.0683 -0.239873,0.0448 -0.4731,-0.0765 -0.230723,-0.11983 -1.032021,-0.25345 -1.520598,-0.25345 -0.374685,0 -0.546407,0.10479 -0.466732,0.28477 0.09262,0.20921 0.245079,0.27902 0.483527,0.22137 0.165387,-0.04 0.19398,-0.0306 0.19398,0.0642 0,0.11634 0.130004,0.1363 1.266098,0.19404 0.251001,0.0127 0.483472,0.0628 0.63489,0.13657 0.140763,0.0686 0.351564,0.11646 0.513197,0.11646 0.150869,0 0.430611,0.0437 0.621651,0.097 0.210642,0.0588 0.598117,0.10672 0.984544,0.12177 0.350461,0.0136 0.692478,0.0445 0.760036,0.0686 0.06756,0.0241 0.290651,0.0373 0.49576,0.0294 0.262756,-0.0108 0.411244,0.01 0.502638,0.0657 0.173619,0.10732 0.305671,0.10094 0.500105,-0.0239 0.159654,-0.10251 0.161148,-0.1019 0.102059,0.0462 -0.08706,0.21817 0.09689,0.18699 0.477443,-0.081 0.180639,-0.12718 0.347283,-0.23124 0.370321,-0.23124 0.04105,0 -0.109222,0.17167 -0.377357,0.43111 -0.112039,0.1084 -0.111663,0.13697 0.0021,0.16876 0.07539,0.0211 0.109322,0.071 0.07542,0.1108 -0.130695,0.15388 0.115007,0.11033 0.298762,-0.053 0.106517,-0.0947 0.204897,-0.18064 0.218615,-0.19108 0.04859,-0.0369 0.435698,0.19603 0.435698,0.26224 0,0.0408 0.06045,0.0568 0.153547,0.0407 0.08445,-0.0147 0.153547,-0.007 0.153547,0.0167 0,0.0238 0.06315,0.0324 0.140346,0.019 0.07719,-0.0134 0.203868,0.002 0.281503,0.0361 0.07764,0.0332 0.322065,0.0645 0.543178,0.0693 0.241245,0.005 0.437735,0.0377 0.491318,0.081 0.04911,0.0397 0.156101,0.0721 0.237753,0.0721 0.08166,0 0.148461,0.0202 0.148461,0.0448 0,0.0247 0.06879,0.0328 0.152865,0.0183 0.08408,-0.0146 0.348945,0.02 0.588597,0.0766 0.253626,0.06 0.702706,0.11297 1.074539,0.12675 0.355403,0.0131 0.690215,0.0516 0.754677,0.0866 0.145199,0.079 0.499721,0.0828 0.501823,0.005 0.0012,-0.0432 0.02342,-0.0422 0.08822,0.004 0.04766,0.0339 0.120192,0.057 0.1612,0.0513 0.13908,-0.0196 0.945168,0.23772 1.164749,0.3719 0.139704,0.0854 0.339002,0.14139 0.55295,0.1554 0.758902,0.0498 7.527348,-0.0136 8.7284,-0.0816 z m -9.735487,-0.0189 c 0.101621,-0.0742 -1.401451,-0.34958 -2.087606,-0.38236 -0.681509,-0.0326 -1.291375,-0.0896 -2.209833,-0.20667 -0.867363,-0.11056 -2.191839,-0.0647 -2.191839,0.0759 0,0.0667 3.046046,0.35022 5.118223,0.47643 1.367345,0.0833 1.309418,0.0817 1.371055,0.0367 z m -7.615286,-0.76273 c 0,-0.13741 -0.515101,-0.59446 -0.716551,-0.63581 -0.08445,-0.0173 -0.344075,-0.0758 -0.576941,-0.12979 -0.257918,-0.0599 -0.614869,-0.0983 -0.913304,-0.0983 -0.269449,0 -0.877644,-0.0328 -1.351542,-0.0729 -0.4739,-0.0401 -0.892065,-0.0581 -0.929257,-0.0399 -0.03719,0.0182 0.0015,0.0429 0.08593,0.0552 0.08445,0.0122 0.445054,0.1578 0.801341,0.32361 0.628996,0.29273 0.685435,0.30734 1.944924,0.50335 1.509063,0.23483 1.655406,0.2432 1.655406,0.0946 z m 1.362695,-0.22038 c 0.02819,-0.0487 0.01325,-0.0885 -0.0332,-0.0885 -0.09064,0 -0.510587,0.28689 -0.510587,0.34881 0,0.0662 0.490799,-0.16876 0.543779,-0.26029 z m -5.363438,-0.33389 c -0.02346,-0.007 -0.570944,-0.14823 -1.216633,-0.31217 -0.768008,-0.19498 -1.425279,-0.40526 -1.900678,-0.60809 -0.553589,-0.23619 -0.834774,-0.3213 -1.180401,-0.3573 -0.61807,-0.0644 -0.607413,-0.0657 -0.605984,0.0777 0.0014,0.14352 0.127453,0.18713 1.654117,0.57231 1.038553,0.26203 3.169102,0.69732 3.245067,0.663 0.02593,-0.012 0.02798,-0.0277 0.0045,-0.0354 z m -0.855542,-0.79374 c 0.158855,-0.0543 0.166703,-0.0682 0.03913,-0.0694 -0.08777,-8.1e-4 -0.24899,0.0291 -0.358276,0.0664 -0.158855,0.0543 -0.166702,0.0682 -0.03913,0.0694 0.08776,8.1e-4 0.248989,-0.0291 0.358276,-0.0664 z m -9.835815,-7.5952 c 0.198593,-0.46288 0.361078,-0.91719 0.361078,-1.00957 0,-0.16258 -0.0099,-0.16699 -0.307093,-0.1375 -0.356463,0.0354 -0.353686,0.0386 -0.15446,-0.17687 0.08395,-0.0907 0.11373,-0.17591 0.06618,-0.18918 -0.12663,-0.0354 -0.732409,0.0691 -1.107674,0.19087 -0.298455,0.097 -0.544243,0.13561 -0.544243,0.0857 0,-0.0108 0.04492,-0.0735 0.09983,-0.13875 0.137822,-0.16377 0.0038,-0.14843 -0.412434,0.0472 -0.436164,0.205 -0.830474,0.30282 -1.01412,0.25153 -0.111338,-0.031 -0.09692,-0.0735 0.0759,-0.22329 0.117336,-0.10166 0.191376,-0.19481 0.164548,-0.20694 -0.09108,-0.0412 -1.113842,0.11441 -1.244028,0.18927 -0.09671,0.0556 -0.114957,0.23279 -0.07212,0.70053 0.08325,0.90886 0.122884,1.01762 0.386984,1.06176 0.350125,0.0585 0.500149,-0.0699 0.315231,-0.26987 -0.141951,-0.15349 -0.140523,-0.15622 0.04258,-0.0813 0.284539,0.11634 0.343259,0.0952 0.266848,-0.096 l -0.06931,-0.17342 0.225653,0.12718 c 0.337906,0.19045 0.453464,0.16233 0.380127,-0.0925 l -0.06323,-0.21967 0.18986,0.18498 c 0.183193,0.1785 0.192213,0.18094 0.256828,0.0694 0.03683,-0.0635 0.10673,-0.20926 0.155324,-0.32373 0.08777,-0.20673 0.08844,-0.20604 0.09957,0.10407 0.0124,0.34536 0.140882,0.40526 0.297562,0.13874 l 0.101959,-0.17342 0.01052,0.17069 c 0.01396,0.22533 0.19157,0.26731 0.483075,0.11418 0.12883,-0.0676 0.254861,-0.12303 0.28007,-0.12303 0.02521,0 -0.06757,0.14733 -0.206174,0.32738 -0.288595,0.37494 -0.258658,0.52512 0.148221,0.74358 0.342582,0.18394 0.3259,0.20243 0.786869,-0.87197 z m -2.497124,0.24859 c -0.132177,-0.0597 -0.146062,0.0247 -0.03288,0.19989 l 0.07468,0.11561 0.03429,-0.13282 c 0.01886,-0.073 -0.01538,-0.15525 -0.07607,-0.18268 z m 0.96446,0.0149 c 0.101909,-0.0509 0.133695,-0.0925 0.07065,-0.0925 -0.06305,0 -0.163934,0.0416 -0.224195,0.0925 -0.06026,0.0509 -0.09205,0.0925 -0.07065,0.0925 0.0214,0 0.122296,-0.0416 0.224195,-0.0925 z m 8.752159,-1.71724 c 0,-0.11682 -0.863551,-0.52422 -1.019052,-0.4808 -0.05883,0.0164 -0.106956,0.089 -0.106956,0.1614 0,0.096 0.103775,0.16983 0.383866,0.2732 0.458138,0.16909 0.742142,0.18677 0.742142,0.0462 z m -9.235843,-1.44023 c 0.35328,-0.12562 0.994482,-0.29403 1.424895,-0.37424 0.430414,-0.0802 0.799295,-0.16852 0.819736,-0.19622 0.03943,-0.0534 -1.057199,-0.2956 -1.338698,-0.2956 -0.09149,0 -0.265106,0.0446 -0.385822,0.0991 -0.201943,0.0912 -0.239622,0.0936 -0.471423,0.0301 -0.233759,-0.0641 -0.269576,-0.0611 -0.496381,0.0414 -0.271739,0.12277 -0.426136,0.106 -0.996623,-0.10839 -0.367566,-0.13814 -0.478232,-0.10624 -0.474944,0.13709 0.0019,0.14065 0.100181,0.26301 0.358276,0.44604 0.195611,0.13871 0.355656,0.28857 0.355656,0.333 0,0.0911 0.299065,0.18445 0.458453,0.14319 0.0575,-0.0149 0.393597,-0.12983 0.746875,-0.25545 z m 2.68452,-1.30332 v -0.29852 l -0.383867,-0.0276 c -0.211127,-0.0152 -0.913133,-0.0799 -1.560016,-0.14375 l -1.176151,-0.1161 -0.180179,0.10058 c -0.401987,0.22428 -0.217512,0.29703 0.843467,0.33262 0.321915,0.0108 0.355071,0.0244 0.326702,0.13456 -0.03051,0.11839 -0.0061,0.12449 0.716551,0.17939 0.411467,0.0313 0.840252,0.0736 0.952852,0.0942 0.421593,0.077 0.460641,0.0553 0.460641,-0.25529 z m 0.10544,-0.97498 c 0.210628,-0.11465 0.252669,-0.71926 0.05777,-0.83077 -0.15898,-0.091 -0.166332,-0.09 -0.443936,0.0582 -0.155252,0.0829 -0.316693,0.15054 -0.358757,0.15031 -0.04206,-2.4e-4 -0.137211,-0.0676 -0.211438,-0.14985 l -0.134959,-0.14943 -0.581885,0.24863 c -0.585275,0.25009 -0.686621,0.33926 -0.458081,0.40307 0.137755,0.0385 1.835303,0.33542 1.936541,0.33875 0.03533,10e-4 0.122971,-0.0298 0.19475,-0.0689 z m -0.614686,-1.55343 c 0.664246,-0.0899 0.938415,-0.22307 0.993602,-0.48255 0.05723,-0.26907 -0.03474,-0.31882 -0.887399,-0.48008 l -0.556587,-0.10528 -0.2768,0.15323 -0.2768,0.15323 -0.424417,-0.1269 c -0.864784,-0.25855 -1.235653,-0.25257 -1.235653,0.02 0,0.0997 -0.07479,0.14936 -0.307094,0.20363 -0.409964,0.0958 -0.387047,0.15159 0.07678,0.18694 0.663251,0.0505 0.742142,0.0695 0.742142,0.179 0,0.27376 1.153856,0.43399 2.152233,0.29885 z m 5.280169,-0.46405 c 0.866618,-0.23298 1.57567,-0.43905 1.57567,-0.45794 0,-0.0392 -0.567525,-0.13589 -0.797315,-0.13589 -0.08391,0 -0.210191,0.0356 -0.280605,0.079 -0.109861,0.0679 -0.167805,0.0709 -0.408424,0.0214 -0.2343,-0.0482 -0.308991,-0.0461 -0.454323,0.0134 -0.09566,0.0391 -0.337397,0.0711 -0.537198,0.0711 -0.398655,0 -0.53048,0.0507 -0.632086,0.24281 -0.05644,0.10672 -0.121256,0.12718 -0.403099,0.12718 -0.557509,0 -0.773098,0.19768 -0.412116,0.3779 0.318716,0.15911 0.70265,0.1037 2.349496,-0.33904 z m -2.436361,-0.38277 c 0.298753,-0.036 0.609685,-0.0902 0.690959,-0.12073 0.202423,-0.0759 0.185466,-0.24404 -0.03713,-0.36824 l -0.184909,-0.10322 -0.175726,0.12117 c -0.184274,0.12706 -0.55348,0.16111 -0.755803,0.0697 -0.06265,-0.0283 -0.163995,-0.0375 -0.225202,-0.0204 -0.187682,0.0524 -0.117086,0.48918 0.0788,0.48754 0.0362,-3.2e-4 0.310256,-0.0299 0.609008,-0.0659 z m -3.791755,-0.97119 c 0.538428,-0.22377 0.391857,-0.26784 -0.970119,-0.29167 -0.672596,-0.012 -1.236632,-0.0463 -1.442875,-0.0884 -0.42627,-0.087 -0.633852,-0.0237 -0.633852,0.19312 v 0.15151 l 0.690962,0.0322 c 0.380027,0.0178 0.852183,0.0591 1.049234,0.0917 0.618767,0.10262 0.89137,0.0841 1.30665,-0.0885 z m 1.707925,-0.57847 c 0.09905,-0.0494 0.275328,-0.0962 0.391714,-0.10406 0.295075,-0.0197 0.311285,-0.0821 0.06825,-0.26212 l -0.209777,-0.15548 -0.302772,0.2157 c -0.295291,0.21037 -0.505236,0.2424 -0.505236,0.0771 0,-0.11947 -0.08315,-0.13976 -0.402415,-0.0984 -0.454266,0.0588 -0.816257,0.005 -0.99119,-0.14804 -0.125709,-0.10985 -0.202147,-0.13124 -0.379936,-0.10636 -0.122408,0.0171 -0.360758,0.046 -0.529659,0.064 -0.416587,0.0446 -0.461495,0.19638 -0.0906,0.30618 0.22224,0.0658 2.180029,0.28542 2.659434,0.29835 0.06165,0.001 0.193135,-0.0374 0.292192,-0.0869 z m -1.837383,-0.85094 c 1.093628,-0.19493 1.077344,-0.25633 -0.10236,-0.3859 -0.506704,-0.0557 -1.096799,-0.12704 -1.311322,-0.15863 -0.335203,-0.0493 -0.431471,-0.0464 -0.684697,0.0212 -0.16206,0.0433 -0.350976,0.073 -0.419811,0.0662 -0.06884,-0.007 -0.159191,0.0395 -0.200788,0.10311 -0.102185,0.15621 -0.114181,0.48509 -0.01926,0.52809 0.04223,0.0191 0.49135,0.0207 0.998053,0.004 0.671377,-0.0229 1.143416,-0.071 1.740196,-0.17738 z m 2.324015,-0.64174 c 0.566883,-0.27713 0.694366,-0.44012 0.695165,-0.88874 l 6.13e-4,-0.32083 -0.296972,0.12854 c -0.364228,0.15766 -0.66307,0.14469 -0.70788,-0.0307 -0.04467,-0.17485 -0.176097,-0.1589 -0.479432,0.0582 -0.298412,0.21356 -0.563004,0.24436 -0.563004,0.0656 0,-0.165 -0.212503,-0.12315 -0.44348,0.0873 -0.215083,0.19599 -0.324055,0.20885 -0.638551,0.0753 l -0.225129,-0.0955 -0.223488,0.14181 c -0.189157,0.11995 -0.290158,0.1418 -0.656728,0.1418 -0.49475,0 -0.73836,0.0737 -0.561538,0.17001 0.06186,0.0337 0.149375,0.0612 0.194489,0.0612 0.04512,0 0.788013,0.14552 1.650888,0.32336 0.862875,0.17785 1.612145,0.32354 1.665043,0.32374 0.05289,1.8e-4 0.3184,-0.10828 0.590004,-0.24104 z"
       id="path7070"
       inkscape:connector-curvature="0" />
    <g
       aria-label="Furubeistet"
       style="font-style:normal;font-variant:normal;font-weight:normal;font-stretch:normal;font-size:10.58333302px;line-height:1.25;font-family:Telenor;-inkscape-font-specification:Telenor;letter-spacing:0px;word-spacing:0px;fill:#000000;fill-opacity:1;stroke:none;stroke-width:0.17798838"
       id="text7093"
       transform="matrix(1.4057186,0,0,1.571966,-5.4470071,-160.49733)">
      <g
         aria-label="Furubeistet"
         style="font-style:normal;font-variant:normal;font-weight:normal;font-stretch:normal;font-size:10.58333302px;line-height:1.25;font-family:Telenor;-inkscape-font-specification:Telenor;letter-spacing:0px;word-spacing:0px;fill:#000000;fill-opacity:1;stroke:none;stroke-width:0.04709275"
         id="text7144">
        <path
           d="m 12.972771,277.88773 q 0.04028,0.013 -0.02967,0.22954 -0.06996,0.21652 -0.115273,0.20188 l -1.359553,-0.43925 -0.390446,1.20849 1.233669,0.39858 q 0.04532,0.0146 -0.02464,0.23116 -0.07484,0.23163 -0.120153,0.21699 l -1.233669,-0.39858 -0.510833,1.58111 q -0.01302,0.0403 -0.264784,-0.0411 -0.2467337,-0.0797 -0.2337188,-0.12 l 1.1859778,-3.67079 z"
           style="font-size:5.29166651px;stroke-width:0.04709275"
           id="path7152"
           inkscape:connector-curvature="0" />
        <path
           d="m 13.157007,279.03284 q 0.01223,-0.0405 0.255396,0.0329 0.248227,0.0749 0.235993,0.11547 l -0.555132,1.83891 q -0.07341,0.24316 -0.0032,0.41358 0.07675,0.16689 0.279388,0.22806 0.243161,0.0734 0.524173,-0.0518 0.286077,-0.12369 0.390165,-0.23045 l 0.555132,-1.83891 q 0.01223,-0.0405 0.255396,0.0329 0.243161,0.0734 0.230927,0.11393 l -0.81664,2.70517 q -0.01223,0.0405 -0.255396,-0.0329 -0.23303,-0.0703 -0.220796,-0.11087 l 0.114697,-0.37994 q -0.160386,0.12846 -0.456022,0.21057 -0.290569,0.0836 -0.614785,-0.0142 -0.353081,-0.11211 -0.490434,-0.40784 -0.132288,-0.29421 -0.01912,-0.66908 z"
           style="font-size:5.29166651px;stroke-width:0.04709275"
           id="path7154"
           inkscape:connector-curvature="0" />
        <path
           d="m 17.278824,280.73032 -0.214379,-0.0586 q -0.163336,-0.0447 -0.355546,0.0564 -0.18571,0.0973 -0.473627,0.34776 l -0.456421,1.66909 q -0.01117,0.0408 -0.261275,-0.0276 -0.239901,-0.0656 -0.228735,-0.10643 l 0.745348,-2.72568 q 0.01117,-0.0408 0.245962,0.0234 0.234797,0.0642 0.22363,0.10504 l -0.163306,0.5972 q 0.336688,-0.3084 0.519606,-0.39553 0.189419,-0.0908 0.414006,-0.0294 l 0.148024,0.0405 q 0.04083,0.0112 -0.02895,0.26638 -0.06839,0.25011 -0.114332,0.23755 z"
           style="font-size:5.29166651px;stroke-width:0.04709275"
           id="path7156"
           inkscape:connector-curvature="0" />
        <path
           d="m 17.826713,280.37233 q 0.01017,-0.0411 0.256733,0.0199 0.251704,0.0623 0.241537,0.10336 l -0.461294,1.86466 q -0.061,0.24657 0.0177,0.41322 0.08511,0.16279 0.290578,0.21362 0.246567,0.061 0.520877,-0.0783 0.279446,-0.13801 0.377994,-0.24991 l 0.461295,-1.86466 q 0.01017,-0.0411 0.256734,0.0199 0.246567,0.061 0.2364,0.10209 l -0.678599,2.74306 q -0.01017,0.0411 -0.256733,-0.0199 -0.236293,-0.0585 -0.226127,-0.0996 l 0.09531,-0.38526 q -0.153675,0.13642 -0.444773,0.2334 -0.285962,0.0982 -0.614718,0.0169 -0.358306,-0.0941 -0.510459,-0.38249 -0.147016,-0.28712 -0.05298,-0.66725 z"
           style="font-size:5.29166651px;stroke-width:0.04709275"
           id="path7158"
           inkscape:connector-curvature="0" />
        <path
           d="m 22.874759,282.54962 -0.188945,0.85786 q -0.111545,0.50644 -0.497442,0.70863 -0.379592,0.19816 -0.917043,0.0798 -0.552955,-0.12179 -0.803836,-0.45881 -0.249742,-0.34218 -0.138197,-0.84863 l 0.629435,-2.85779 q 0.0091,-0.0414 0.257161,0.0133 0.253222,0.0558 0.244116,0.0971 l -0.302766,1.37464 q 0.148361,-0.15697 0.395618,-0.22172 0.248394,-0.0699 0.558463,-0.002 0.418592,0.0922 0.643633,0.42352 0.23021,0.33247 0.119803,0.83374 z m -0.682254,0.71128 0.163904,-0.74417 q 0.07626,-0.34624 -0.05785,-0.54917 -0.128947,-0.20179 -0.40284,-0.26212 -0.335908,-0.074 -0.591563,0.1027 -0.24935,0.17266 -0.321058,0.49823 l -0.144554,0.65631 q -0.144553,0.65631 0.527261,0.80428 0.68215,0.15025 0.826704,-0.50606 z"
           style="font-size:5.29166651px;stroke-width:0.04709275"
           id="path7160"
           inkscape:connector-curvature="0" />
        <path
           d="m 25.591095,283.74923 -1.754604,-0.34698 -0.04414,0.22322 q -0.06159,0.31147 0.07064,0.51563 0.138457,0.19999 0.47069,0.26569 0.404909,0.0801 0.896515,-0.06 0.02801,-0.005 0.06766,0.0943 0.04068,0.0943 0.05751,0.20017 0.02305,0.10165 -0.006,0.11209 -0.525775,0.17652 -1.117564,0.0595 -0.529496,-0.10471 -0.779312,-0.45079 -0.243598,-0.35025 -0.145047,-0.8486 l 0.153985,-0.77867 q 0.10163,-0.51392 0.46123,-0.75027 0.365818,-0.24052 0.864167,-0.14197 0.54507,0.10779 0.781423,0.46739 0.236354,0.3596 0.127538,0.90986 z m -0.409889,-0.46404 0.04517,-0.22841 q 0.06467,-0.32704 -0.08211,-0.53947 -0.141595,-0.2114 -0.432299,-0.26889 -0.285512,-0.0565 -0.491723,0.0862 -0.206211,0.14263 -0.269858,0.46448 l -0.0462,0.2336 z"
           style="font-size:5.29166651px;stroke-width:0.04709275"
           id="path7162"
           inkscape:connector-curvature="0" />
        <path
           d="m 26.575365,285.15486 q -0.0076,0.0416 -0.25747,-0.004 -0.249843,-0.0458 -0.242215,-0.0874 l 0.508226,-2.77429 q 0.0076,-0.0416 0.25747,0.004 0.249843,0.0458 0.242214,0.0874 z m 0.594996,-3.24795 q -0.0076,0.0416 -0.257471,-0.004 -0.249842,-0.0458 -0.242214,-0.0874 l 0.107747,-0.58817 q 0.0076,-0.0416 0.257471,0.004 0.249842,0.0458 0.242214,0.0874 z"
           style="font-size:5.29166651px;stroke-width:0.04709275"
           id="path7164"
           inkscape:connector-curvature="0" />
        <path
           d="m 28.129375,285.52423 q -0.266099,-0.045 -0.518086,-0.17345 -0.251986,-0.12847 -0.387421,-0.24796 -0.02344,-0.0201 0.02984,-0.11303 0.05938,-0.0973 0.131771,-0.17629 0.07327,-0.0842 0.09671,-0.0641 0.356848,0.30183 0.695994,0.35916 0.250446,0.0423 0.401175,-0.0556 0.156827,-0.10229 0.186817,-0.27969 0.02999,-0.1774 -0.0906,-0.32122 -0.119707,-0.14903 -0.309964,-0.2617 -0.189375,-0.11788 -0.376985,-0.2462 -0.186729,-0.13353 -0.297615,-0.33475 -0.110887,-0.20121 -0.06767,-0.45688 0.05292,-0.31306 0.329099,-0.48641 0.277057,-0.17856 0.736209,-0.10094 0.453934,0.0767 0.780508,0.30368 0.03299,0.027 -0.06225,0.20951 -0.09436,0.17725 -0.134342,0.15976 -0.345755,-0.20872 -0.664031,-0.26252 -0.213923,-0.0362 -0.349805,0.0375 -0.130665,0.0745 -0.153599,0.21018 -0.02293,0.13565 0.100302,0.26382 0.129335,0.12383 0.31871,0.24172 0.190257,0.11266 0.376103,0.25141 0.185847,0.13876 0.293205,0.36084 0.113458,0.21775 0.06671,0.49429 -0.06086,0.36001 -0.3693,0.56548 -0.307556,0.20024 -0.76149,0.1235 z"
           style="font-size:5.29166651px;stroke-width:0.04709275"
           id="path7166"
           inkscape:connector-curvature="0" />
        <path
           d="m 30.937636,285.89013 -0.355934,-0.0528 q -0.345465,-0.0513 -0.487325,-0.24887 -0.141082,-0.20283 -0.09369,-0.52212 l 0.249393,-1.68022 -0.38734,-0.0575 q -0.04711,-0.007 -0.01681,-0.21113 0.0303,-0.20414 0.07741,-0.19715 l 0.38734,0.0575 0.100223,-0.67522 q 0.0062,-0.0419 0.257463,-0.005 0.235544,0.035 0.229329,0.0768 l -0.100223,0.67523 0.586244,0.087 q 0.04187,0.006 0.01157,0.21036 -0.0303,0.20414 -0.07217,0.19792 l -0.586244,-0.087 -0.245508,1.65405 q -0.02175,0.14656 0.03173,0.2187 0.05872,0.0729 0.215753,0.0962 l 0.261716,0.0388 q 0.05234,0.008 0.06261,0.0467 0.01104,0.0337 -0.0099,0.17507 -0.02098,0.14132 -0.04212,0.17563 -0.02114,0.0343 -0.07348,0.0265 z"
           style="font-size:5.29166651px;stroke-width:0.04709275"
           id="path7168"
           inkscape:connector-curvature="0" />
        <path
           d="m 33.94708,285.02848 -1.776113,-0.21084 -0.02682,0.22596 q -0.03743,0.31528 0.110141,0.50865 0.153447,0.18874 0.489753,0.22866 0.409872,0.0487 0.889228,-0.12891 0.02752,-0.007 0.07472,0.0888 0.04782,0.0909 0.07275,0.19515 0.03081,0.0996 0.0027,0.11222 -0.510621,0.21648 -1.109665,0.14537 -0.535987,-0.0636 -0.811711,-0.38944 -0.269845,-0.33044 -0.209963,-0.8349 l 0.09357,-0.78822 q 0.06175,-0.52022 0.402085,-0.78356 0.346211,-0.26798 0.850669,-0.2081 0.551751,0.0655 0.815095,0.40583 0.263343,0.34033 0.197222,0.89734 z m -0.444405,-0.4311 0.02745,-0.23121 q 0.0393,-0.33105 -0.123411,-0.53155 -0.157454,-0.19987 -0.451721,-0.2348 -0.289013,-0.0343 -0.483629,0.12377 -0.194616,0.15808 -0.23329,0.48387 L 32.21,284.44393 Z"
           style="font-size:5.29166651px;stroke-width:0.04709275"
           id="path7170"
           inkscape:connector-curvature="0" />
        <path
           d="m 35.681134,286.40908 -0.358548,-0.0304 q -0.348002,-0.0295 -0.50198,-0.21781 -0.153532,-0.19357 -0.126268,-0.51521 L 34.83781,283.9531 34.447626,283.92 q -0.04745,-0.004 -0.03002,-0.20966 0.01743,-0.20564 0.06489,-0.20162 l 0.390184,0.0331 0.05766,-0.68019 q 0.0036,-0.0422 0.256668,-0.0207 0.237274,0.0201 0.233699,0.0623 l -0.05766,0.68018 0.590548,0.0501 q 0.04218,0.004 0.02475,0.20922 -0.01743,0.20563 -0.05961,0.20206 l -0.590549,-0.0501 -0.141237,1.66619 q -0.01252,0.14764 0.04539,0.21627 0.06318,0.0691 0.221365,0.0825 l 0.263638,0.0223 q 0.05273,0.004 0.06542,0.0427 0.01314,0.033 0.0011,0.17535 -0.01207,0.14236 -0.03101,0.17793 -0.01895,0.0356 -0.07167,0.0311 z"
           style="font-size:5.29166651px;stroke-width:0.04709275"
           id="path7172"
           inkscape:connector-curvature="0" />
      </g>
    </g>
    <path
       style="fill:none;stroke:none;stroke-width:0.26458332px;stroke-linecap:butt;stroke-linejoin:miter;stroke-opacity:1"
       d="m 9.4860424,280.83419 c 1.7835486,0.58249 3.6126916,1.17987 5.6639916,1.75795 2.0513,0.57807 4.348052,1.14443 6.8251,1.67532 2.477047,0.53089 5.135069,1.02646 7.354332,1.37889 2.219262,0.35244 4.051062,0.56781 5.715335,0.70878 1.664274,0.14098 3.238457,0.21296 4.786388,0.28373"
       id="path7118"
       inkscape:connector-curvature="0" />
    <ellipse
       style="opacity:0.95;fill:none;fill-opacity:1;stroke:#0000f6;stroke-width:1;stroke-miterlimit:4;stroke-dasharray:none;stroke-opacity:1"
       id="path7194"
       cx="47.5"
       cy="273"
       rx="47"
       ry="18.5" />
    <circle
       style="opacity:0.95;fill:none;fill-opacity:1;stroke:#ef1110;stroke-width:1;stroke-miterlimit:4;stroke-dasharray:none;stroke-opacity:1"
       id="path7226"
       cx="6.5270834"
       cy="273"
       r="1.5" />
    <g
       aria-label="Ishavsskjulet"
       style="font-style:normal;font-variant:normal;font-weight:normal;font-stretch:normal;font-size:10.58333302px;line-height:1.25;font-family:Telenor;-inkscape-font-specification:Telenor;letter-spacing:0px;word-spacing:0px;fill:#000000;fill-opacity:1;stroke:none;stroke-width:0.26458332"
       id="text7935">
      <path
         d="m 42.740791,275.80512 q 0,0.0564 -0.352777,0.0564 -0.352778,0 -0.352778,-0.0564 v -5.11528 q 0,-0.0564 0.352778,-0.0564 0.352777,0 0.352777,0.0564 z"
         style="font-style:normal;font-variant:normal;font-weight:normal;font-stretch:normal;font-size:7.05555534px;font-family:Telenor;-inkscape-font-specification:'Telenor, Normal';font-variant-ligatures:normal;font-variant-caps:normal;font-variant-numeric:normal;font-feature-settings:normal;text-align:start;writing-mode:lr-tb;text-anchor:start;stroke-width:0.26458332"
         id="path7937"
         inkscape:connector-curvature="0" />
      <path
         d="m 44.909934,275.93212 q -0.359834,0 -0.719667,-0.11289 -0.359833,-0.11289 -0.564444,-0.23989 -0.03528,-0.0212 0.01411,-0.15522 0.05644,-0.14111 0.134055,-0.26105 0.07761,-0.127 0.112889,-0.10584 0.536222,0.3175 0.994833,0.3175 0.338667,0 0.515056,-0.16228 0.183444,-0.16933 0.183444,-0.40922 0,-0.23989 -0.1905,-0.40216 -0.1905,-0.16934 -0.465666,-0.27517 -0.275167,-0.11289 -0.550333,-0.23989 -0.275167,-0.13406 -0.465667,-0.37394 -0.1905,-0.23989 -0.1905,-0.58562 0,-0.42333 0.324555,-0.71261 0.324556,-0.29633 0.945445,-0.29633 0.613833,0 1.093611,0.22578 0.04939,0.0282 -0.03528,0.28928 -0.08467,0.254 -0.141111,0.23988 -0.500944,-0.19755 -0.931333,-0.19755 -0.289278,0 -0.451556,0.127 -0.155222,0.127 -0.155222,0.31044 0,0.18345 0.1905,0.32456 0.197555,0.13405 0.472722,0.24694 0.275167,0.10584 0.550333,0.24695 0.275167,0.14111 0.465667,0.40922 0.197556,0.26106 0.197556,0.635 0,0.48683 -0.359834,0.8255 -0.359833,0.33161 -0.973666,0.33161 z"
         style="font-style:normal;font-variant:normal;font-weight:normal;font-stretch:normal;font-size:7.05555534px;font-family:Telenor;-inkscape-font-specification:'Telenor, Normal';font-variant-ligatures:normal;font-variant-caps:normal;font-variant-numeric:normal;font-feature-settings:normal;text-align:start;writing-mode:lr-tb;text-anchor:start;stroke-width:0.26458332"
         id="path7939"
         inkscape:connector-curvature="0" />
      <path
         d="m 50.12454,275.80512 q 0,0.0564 -0.345722,0.0564 -0.338667,0 -0.338667,-0.0564 v -2.55411 q 0,-0.33867 -0.162277,-0.52211 -0.155223,-0.1905 -0.437445,-0.1905 -0.345722,0 -0.663222,0.27517 -0.310444,0.26811 -0.395111,0.4445 v 2.54705 q 0,0.0564 -0.338667,0.0564 -0.338666,0 -0.338666,-0.0564 v -5.19994 q 0,-0.0565 0.338666,-0.0565 0.338667,0 0.338667,0.0565 v 1.97555 q 0.162278,-0.23283 0.493889,-0.45155 0.331611,-0.21873 0.783166,-0.21873 0.486834,0.007 0.776112,0.33162 0.289277,0.32455 0.289277,0.84666 z"
         style="font-style:normal;font-variant:normal;font-weight:normal;font-stretch:normal;font-size:7.05555534px;font-family:Telenor;-inkscape-font-specification:'Telenor, Normal';font-variant-ligatures:normal;font-variant-caps:normal;font-variant-numeric:normal;font-feature-settings:normal;text-align:start;writing-mode:lr-tb;text-anchor:start;stroke-width:0.26458332"
         id="path7941"
         inkscape:connector-curvature="0" />
      <path
         d="m 53.977755,275.80512 q 0,0.0564 -0.310444,0.0564 -0.324556,0 -0.324556,-0.0564 v -0.36689 q -0.543277,0.47978 -1.178277,0.47978 -0.557389,0 -0.881945,-0.31044 -0.324555,-0.3175 -0.324555,-0.84667 v -0.17639 q 0,-0.635 0.5715,-0.91722 0.578555,-0.28928 1.806222,-0.11289 v -0.24695 q 0,-0.42333 -0.1905,-0.59972 -0.183445,-0.17639 -0.613833,-0.17639 -0.613834,0 -1.0795,0.23284 -0.03528,0.0212 -0.09172,-0.0917 -0.134055,-0.254 -0.119944,-0.43038 0.0071,-0.0423 0.02822,-0.0565 0.564445,-0.24694 1.291167,-0.24694 1.418166,0 1.418166,1.37583 z M 53.3357,274.92318 v -0.889 q -1.735667,-0.26811 -1.735667,0.52916 v 0.16934 q 0,0.29633 0.197556,0.45861 0.197555,0.15522 0.529166,0.15522 0.550334,0 1.008945,-0.42333 z"
         style="font-style:normal;font-variant:normal;font-weight:normal;font-stretch:normal;font-size:7.05555534px;font-family:Telenor;-inkscape-font-specification:'Telenor, Normal';font-variant-ligatures:normal;font-variant-caps:normal;font-variant-numeric:normal;font-feature-settings:normal;text-align:start;writing-mode:lr-tb;text-anchor:start;stroke-width:0.26458332"
         id="path7943"
         inkscape:connector-curvature="0" />
      <path
         d="m 57.836263,272.04451 -1.248834,3.75356 q -0.02117,0.0635 -0.381,0.0635 -0.352777,0 -0.366889,-0.0564 l -1.262944,-3.76061 q -0.0071,-0.0212 0.02822,-0.0282 0.03528,-0.0141 0.09878,-0.0212 0.07056,-0.007 0.112889,-0.007 0.04939,0 0.127,0 0.352778,0 0.366889,0.0564 l 0.500944,1.63689 q 0.282222,0.93839 0.416278,1.60867 h 0.01411 q 0.134056,-0.71262 0.409222,-1.60867 l 0.500945,-1.63689 q 0.01411,-0.0564 0.345722,-0.0564 0.07761,0 0.119944,0 0.04233,0 0.105834,0.007 0.0635,0.007 0.09172,0.0212 0.02822,0.007 0.02117,0.0282 z"
         style="font-style:normal;font-variant:normal;font-weight:normal;font-stretch:normal;font-size:7.05555534px;font-family:Telenor;-inkscape-font-specification:'Telenor, Normal';font-variant-ligatures:normal;font-variant-caps:normal;font-variant-numeric:normal;font-feature-settings:normal;text-align:start;writing-mode:lr-tb;text-anchor:start;stroke-width:0.26458332"
         id="path7945"
         inkscape:connector-curvature="0" />
      <path
         d="m 59.503357,275.93212 q -0.359834,0 -0.719667,-0.11289 -0.359833,-0.11289 -0.564444,-0.23989 -0.03528,-0.0212 0.01411,-0.15522 0.05644,-0.14111 0.134055,-0.26105 0.07761,-0.127 0.112889,-0.10584 0.536222,0.3175 0.994834,0.3175 0.338666,0 0.515055,-0.16228 0.183444,-0.16933 0.183444,-0.40922 0,-0.23989 -0.1905,-0.40216 -0.1905,-0.16934 -0.465666,-0.27517 -0.275167,-0.11289 -0.550333,-0.23989 -0.275167,-0.13406 -0.465667,-0.37394 -0.1905,-0.23989 -0.1905,-0.58562 0,-0.42333 0.324555,-0.71261 0.324556,-0.29633 0.945445,-0.29633 0.613833,0 1.093611,0.22578 0.04939,0.0282 -0.03528,0.28928 -0.08467,0.254 -0.141111,0.23988 -0.500944,-0.19755 -0.931333,-0.19755 -0.289278,0 -0.451556,0.127 -0.155222,0.127 -0.155222,0.31044 0,0.18345 0.1905,0.32456 0.197556,0.13405 0.472722,0.24694 0.275167,0.10584 0.550333,0.24695 0.275167,0.14111 0.465667,0.40922 0.197556,0.26106 0.197556,0.635 0,0.48683 -0.359834,0.8255 -0.359833,0.33161 -0.973666,0.33161 z"
         style="font-style:normal;font-variant:normal;font-weight:normal;font-stretch:normal;font-size:7.05555534px;font-family:Telenor;-inkscape-font-specification:'Telenor, Normal';font-variant-ligatures:normal;font-variant-caps:normal;font-variant-numeric:normal;font-feature-settings:normal;text-align:start;writing-mode:lr-tb;text-anchor:start;stroke-width:0.26458332"
         id="path7947"
         inkscape:connector-curvature="0" />
      <path
         d="m 62.714186,275.93212 q -0.359834,0 -0.719667,-0.11289 -0.359833,-0.11289 -0.564445,-0.23989 -0.03528,-0.0212 0.01411,-0.15522 0.05644,-0.14111 0.134055,-0.26105 0.07761,-0.127 0.112889,-0.10584 0.536222,0.3175 0.994833,0.3175 0.338667,0 0.515056,-0.16228 0.183444,-0.16933 0.183444,-0.40922 0,-0.23989 -0.1905,-0.40216 -0.1905,-0.16934 -0.465666,-0.27517 -0.275167,-0.11289 -0.550334,-0.23989 -0.275166,-0.13406 -0.465666,-0.37394 -0.1905,-0.23989 -0.1905,-0.58562 0,-0.42333 0.324555,-0.71261 0.324556,-0.29633 0.945445,-0.29633 0.613833,0 1.093611,0.22578 0.04939,0.0282 -0.03528,0.28928 -0.08467,0.254 -0.141111,0.23988 -0.500945,-0.19755 -0.931333,-0.19755 -0.289278,0 -0.451556,0.127 -0.155222,0.127 -0.155222,0.31044 0,0.18345 0.1905,0.32456 0.197555,0.13405 0.472722,0.24694 0.275167,0.10584 0.550333,0.24695 0.275167,0.14111 0.465667,0.40922 0.197555,0.26106 0.197555,0.635 0,0.48683 -0.359833,0.8255 -0.359833,0.33161 -0.973666,0.33161 z"
         style="font-style:normal;font-variant:normal;font-weight:normal;font-stretch:normal;font-size:7.05555534px;font-family:Telenor;-inkscape-font-specification:'Telenor, Normal';font-variant-ligatures:normal;font-variant-caps:normal;font-variant-numeric:normal;font-feature-settings:normal;text-align:start;writing-mode:lr-tb;text-anchor:start;stroke-width:0.26458332"
         id="path7949"
         inkscape:connector-curvature="0" />
      <path
         d="m 67.830014,272.04451 -1.4605,1.65806 1.545167,2.10255 q 0.01411,0.0212 -0.02117,0.0282 -0.02822,0.0141 -0.112889,0.0212 -0.07761,0.007 -0.134055,0.007 -0.05644,0 -0.148167,0 -0.373944,0 -0.423333,-0.0564 l -1.213556,-1.65805 -0.275166,0.28927 v 1.36878 q 0,0.0564 -0.345723,0.0564 -0.331611,0 -0.331611,-0.0564 v -5.19994 q 0,-0.0565 0.338667,-0.0565 0.338667,0 0.338667,0.0565 v 3.00566 l 1.382888,-1.56633 q 0.05645,-0.0564 0.458612,-0.0564 0.09878,0 0.148166,0 0.05644,0 0.134056,0.007 0.07761,0.007 0.105833,0.0212 0.02822,0.007 0.01411,0.0282 z"
         style="font-style:normal;font-variant:normal;font-weight:normal;font-stretch:normal;font-size:7.05555534px;font-family:Telenor;-inkscape-font-specification:'Telenor, Normal';font-variant-ligatures:normal;font-variant-caps:normal;font-variant-numeric:normal;font-feature-settings:normal;text-align:start;writing-mode:lr-tb;text-anchor:start;stroke-width:0.26458332"
         id="path7951"
         inkscape:connector-curvature="0" />
      <path
         d="m 68.428083,277.25857 h -0.627945 q -0.05644,0 -0.05644,-0.28928 0,-0.28222 0.05644,-0.28222 h 0.373945 q 0.359833,0 0.359833,-0.35984 v -4.28272 q 0,-0.0564 0.338667,-0.0564 0.338667,0 0.338667,0.0564 v 4.38856 q 0,0.39511 -0.204612,0.60677 -0.197555,0.21873 -0.578555,0.21873 z m 0.783167,-5.85612 q 0,0.0565 -0.338667,0.0565 -0.338667,0 -0.338667,-0.0565 v -0.79727 q 0,-0.0565 0.338667,-0.0565 0.338667,0 0.338667,0.0565 z"
         style="font-style:normal;font-variant:normal;font-weight:normal;font-stretch:normal;font-size:7.05555534px;font-family:Telenor;-inkscape-font-specification:'Telenor, Normal';font-variant-ligatures:normal;font-variant-caps:normal;font-variant-numeric:normal;font-feature-settings:normal;text-align:start;writing-mode:lr-tb;text-anchor:start;stroke-width:0.26458332"
         id="path7953"
         inkscape:connector-curvature="0" />
      <path
         d="m 70.275317,272.03745 q 0,-0.0564 0.338666,-0.0564 0.345723,0 0.345723,0.0564 v 2.56117 q 0,0.33867 0.155222,0.52917 0.162278,0.18344 0.4445,0.18344 0.338667,0 0.649111,-0.26811 0.3175,-0.26811 0.409222,-0.4445 v -2.56117 q 0,-0.0564 0.338667,-0.0564 0.338666,0 0.338666,0.0564 v 3.76767 q 0,0.0564 -0.338666,0.0564 -0.324556,0 -0.324556,-0.0564 v -0.52917 q -0.155222,0.22578 -0.500944,0.4445 -0.338667,0.21873 -0.790222,0.21873 -0.493889,-0.007 -0.783167,-0.33161 -0.282222,-0.32456 -0.282222,-0.84667 z"
         style="font-style:normal;font-variant:normal;font-weight:normal;font-stretch:normal;font-size:7.05555534px;font-family:Telenor;-inkscape-font-specification:'Telenor, Normal';font-variant-ligatures:normal;font-variant-caps:normal;font-variant-numeric:normal;font-feature-settings:normal;text-align:start;writing-mode:lr-tb;text-anchor:start;stroke-width:0.26458332"
         id="path7955"
         inkscape:connector-curvature="0" />
      <path
         d="m 75.62431,275.83334 h -0.324556 q -0.458611,0 -0.691444,-0.23989 -0.232834,-0.23988 -0.232834,-0.66322 v -4.32505 q 0,-0.0565 0.338667,-0.0565 0.338667,0 0.338667,0.0565 v 4.26861 q 0,0.1905 0.09172,0.28222 0.09878,0.0847 0.3175,0.0847 h 0.162278 q 0.0635,0 0.08467,0.0564 0.02117,0.0494 0.02117,0.23283 0,0.19756 -0.02117,0.254 -0.02117,0.0494 -0.08467,0.0494 z"
         style="font-style:normal;font-variant:normal;font-weight:normal;font-stretch:normal;font-size:7.05555534px;font-family:Telenor;-inkscape-font-specification:'Telenor, Normal';font-variant-ligatures:normal;font-variant-caps:normal;font-variant-numeric:normal;font-feature-settings:normal;text-align:start;writing-mode:lr-tb;text-anchor:start;stroke-width:0.26458332"
         id="path7957"
         inkscape:connector-curvature="0" />
      <path
         d="m 79.433097,274.19645 h -2.384778 v 0.30339 q 0,0.42334 0.225778,0.65617 0.232833,0.22578 0.684389,0.22578 0.550333,0 1.157111,-0.31045 0.03528,-0.0141 0.112889,0.10584 0.07761,0.11289 0.127,0.24694 0.05644,0.127 0.02117,0.14817 -0.642055,0.36689 -1.446388,0.36689 -0.719667,0 -1.135945,-0.38806 -0.409222,-0.39511 -0.409222,-1.07244 v -1.05834 q 0,-0.6985 0.409222,-1.10066 0.416278,-0.40923 1.093611,-0.40923 0.740834,0 1.143,0.40923 0.402167,0.40922 0.402167,1.15711 z m -0.656167,-0.50094 v -0.31044 q 0,-0.4445 -0.246944,-0.68439 -0.239889,-0.23989 -0.635,-0.23989 -0.388056,0 -0.620889,0.23989 -0.232833,0.23989 -0.232833,0.67733 v 0.3175 z"
         style="font-style:normal;font-variant:normal;font-weight:normal;font-stretch:normal;font-size:7.05555534px;font-family:Telenor;-inkscape-font-specification:'Telenor, Normal';font-variant-ligatures:normal;font-variant-caps:normal;font-variant-numeric:normal;font-feature-settings:normal;text-align:start;writing-mode:lr-tb;text-anchor:start;stroke-width:0.26458332"
         id="path7959"
         inkscape:connector-curvature="0" />
      <path
         d="m 81.951047,275.83334 h -0.479778 q -0.465667,0 -0.691445,-0.23283 -0.225777,-0.23989 -0.225777,-0.67028 v -2.26483 h -0.522111 q -0.0635,0 -0.0635,-0.27517 0,-0.27516 0.0635,-0.27516 h 0.522111 v -0.91017 q 0,-0.0564 0.338666,-0.0564 0.3175,0 0.3175,0.0564 v 0.91017 h 0.790223 q 0.05644,0 0.05644,0.27516 0,0.27517 -0.05644,0.27517 h -0.790223 v 2.22955 q 0,0.19756 0.08467,0.28223 0.09172,0.0847 0.303389,0.0847 h 0.352778 q 0.07055,0 0.09172,0.0494 0.02117,0.0423 0.02117,0.23284 0,0.1905 -0.02117,0.23988 -0.02117,0.0494 -0.09172,0.0494 z"
         style="font-style:normal;font-variant:normal;font-weight:normal;font-stretch:normal;font-size:7.05555534px;font-family:Telenor;-inkscape-font-specification:'Telenor, Normal';font-variant-ligatures:normal;font-variant-caps:normal;font-variant-numeric:normal;font-feature-settings:normal;text-align:start;writing-mode:lr-tb;text-anchor:start;stroke-width:0.26458332"
         id="path7961"
         inkscape:connector-curvature="0" />
    </g>
  </g>
</svg>
