<?xml version="1.0" encoding="UTF-8" standalone="no"?>
<!-- Generator: Adobe Illustrator 16.0.0, SVG Export Plug-In . SVG Version: 6.00 Build 0)  -->

<svg
   xmlns:dc="http://purl.org/dc/elements/1.1/"
   xmlns:cc="http://creativecommons.org/ns#"
   xmlns:rdf="http://www.w3.org/1999/02/22-rdf-syntax-ns#"
   xmlns:svg="http://www.w3.org/2000/svg"
   xmlns="http://www.w3.org/2000/svg"
   xmlns:xlink="http://www.w3.org/1999/xlink"
   xmlns:sodipodi="http://sodipodi.sourceforge.net/DTD/sodipodi-0.dtd"
   xmlns:inkscape="http://www.inkscape.org/namespaces/inkscape"
   version="1.1"
   id="Capa_1"
   x="0px"
   y="0px"
   width="130mm"
   height="130mm"
   viewBox="0 0 491.3386 491.3386"
   xml:space="preserve"
   sodipodi:docname="StripedEgg.svg"
   inkscape:version="0.92.2 5c3e80d, 2017-08-06"><metadata
     id="metadata45"><rdf:RDF><cc:Work
         rdf:about=""><dc:format>image/svg+xml</dc:format><dc:type
           rdf:resource="http://purl.org/dc/dcmitype/StillImage" /><dc:title /></cc:Work></rdf:RDF></metadata><defs
     id="defs43"><inkscape:perspective
       sodipodi:type="inkscape:persp3d"
       inkscape:vp_x="0 : 245.6693 : 1"
       inkscape:vp_y="0 : 1000 : 0"
       inkscape:vp_z="491.3386 : 245.6693 : 1"
       inkscape:persp3d-origin="245.6693 : 163.77953 : 1"
       id="perspective960" /></defs><sodipodi:namedview
     pagecolor="#ffffff"
     bordercolor="#666666"
     borderopacity="1"
     objecttolerance="10"
     gridtolerance="10"
     guidetolerance="10"
     inkscape:pageopacity="0"
     inkscape:pageshadow="2"
     inkscape:window-width="1179"
     inkscape:window-height="810"
     id="namedview41"
     showgrid="false"
     inkscape:zoom="1.7099746"
     inkscape:cx="130.04153"
     inkscape:cy="162.12636"
     inkscape:window-x="0"
     inkscape:window-y="0"
     inkscape:window-maximized="0"
     inkscape:current-layer="Capa_1"
     units="mm"
     inkscape:document-units="mm" /><path
     id="path4"
     style="stroke-width:1"
     d="m 259.17324,368.55315 c 0,-28.70109 -32.88368,-50.26851 -52.48281,-60.56957 -27.849,-14.6352 -62.61107,-24.47 -86.50562,-24.47 -46.230396,0 -82.442827,37.35462 -82.442827,85.03957 0,47.68536 36.212431,85.03917 82.442827,85.03917 23.89455,0 58.65902,-9.83438 86.50562,-24.46921 19.59913,-10.30143 52.48281,-31.86887 52.48281,-60.56996 z m -40.28483,47.79288 c -4.30064,2.78741 -9.10746,5.60411 -14.48305,8.43004 -0.40993,0.21628 -0.83229,0.41771 -1.24463,0.63155 -1.53423,-0.33703 -2.49165,-1.15194 -2.49165,-2.40904 0,-2.63011 4.10208,-6.13936 9.16121,-7.84061 4.70815,-1.58411 8.54229,-1.01676 9.05812,1.18806 z m 11.16391,-87.5389 c -4.97328,0.89598 -9.20051,3.44505 -5.11327,13.74889 5.95038,14.99632 9.9935,16.66629 9.9935,24.7573 0,8.09181 -14.2793,24.27823 -7.3767,35.22765 1.58356,2.1683 3.57665,2.66223 5.54807,2.94671 1.84827,-1.60335 3.52731,-2.5563 5.07636,-5.0115 -0.0172,0 -0.037,0 -0.0541,0 -2.55304,2.4552 -4.59025,1.28438 -6.00172,0.36835 -1.4211,-0.92085 -2.1431,-2.56353 -2.1431,-5.13948 0,-4.03727 1.79935,-9.88897 4.94119,-16.17035 2.62644,-5.25545 3.65046,-8.43769 3.65046,-11.43577 0,-4.04648 -1.88279,-7.95616 -5.29738,-15.08459 l -1.21254,-2.53182 c -1.92689,-4.04931 -2.9064,-7.4085 -2.9064,-9.99409 0,-2.2345 0.71196,-3.90688 2.11382,-4.97496 1.61043,-1.22541 3.65044,-1.30164 5.14736,-1.13673 v 0 c 0.31407,0.29974 0.63816,0.59906 0.94019,0.89637 0.3313,0.32661 0.64057,0.6484 0.95984,0.97221 13.27534,13.45679 15.94628,25.13568 15.94628,32.30824 0,6.74804 -2.35888,17.48121 -13.68526,29.92888 -0.74605,0.81972 -1.53902,1.6495 -2.3665,2.48726 -0.009,0.009 -0.022,0.0222 -0.0317,0.0323 -1.54905,1.56122 -3.22809,3.14493 -5.07397,4.7515 -1.45559,1.2639 -3.01429,2.53903 -4.66644,3.82581 -3.86624,-0.89436 -7.56079,-3.19507 -8.49336,-10.12969 -1.66698,-12.37825 11.18357,-26.66039 11.18357,-32.37203 0,-5.71406 -16.89609,-20.94833 -12.13619,-36.65929 1.47285,-3.55096 3.98617,-4.69529 6.64267,-5.00465 1.55067,1.13951 3.02111,2.2714 4.41536,3.39368 z m -22.84123,48.26434 c -7.16092,0 -12.96851,-3.30221 -12.96851,-7.37921 0,-4.07618 5.80558,-7.37878 12.96851,-7.37878 7.16288,0 12.96847,3.30501 12.96847,7.37878 0.003,4.0766 -5.80559,7.37921 -12.96847,7.37921 z m -2.80573,-64.74164 c 4.04513,2.12657 7.76938,4.24792 11.1984,6.35482 -1.19528,1.39231 -4.37683,1.87138 -8.15203,1.01916 -4.79639,-1.08295 -8.68749,-3.87758 -8.68749,-6.2445 0,-1.26471 1.1315,-2.1338 2.89916,-2.51938 0.91533,0.46424 1.84106,0.91845 2.74196,1.3899 z m -49.44365,-21.0001 c -0.0757,0.0518 -0.1472,0.10549 -0.22342,0.15487 -4.19996,-1.04361 -8.31207,-2.06275 -12.29102,-2.80907 4.05275,0.7118 8.23585,1.59092 12.51444,2.6542 z m -16.52548,-3.19707 c -2.29793,-0.30938 -4.54891,-0.61391 -6.73091,-0.61391 h -0.71677 c 0.24266,0 0.47369,-0.18415 0.71677,-0.15728 2.18,0.2259 4.43781,0.42732 6.73091,0.77119 z m -27.68455,-0.61391 c 3.26739,0 6.59573,-0.84701 9.99829,-0.84701 2.101,0 4.32512,0 6.60579,0.15447 0.0517,0.003 0.10832,0.22109 0.15924,0.2259 0.10833,0.0786 0.21098,0.46664 0.34616,0.46664 -0.19895,0 -0.37062,-0.48872 -0.50821,-0.587 -2.28068,-0.15448 -4.5068,-0.15208 -6.60617,-0.15208 -3.39696,0 -6.72811,0.73908 -9.9951,0.73908 z m -29.523649,24.54867 c 0.316475,-2.70116 4.776745,-6.63973 9.96141,-8.79598 5.184664,-2.15828 9.126709,-1.7165 8.810253,0.98223 -0.316881,2.70116 -4.777149,6.64012 -9.961423,8.79597 -5.184666,2.15587 -9.129512,1.71652 -8.81024,-0.98222 z m -39.243985,67.82276 c -0.478513,-3.70745 -0.743638,-7.48954 -0.743638,-11.33703 0,-3.84788 0.264722,-7.62957 0.743638,-11.33743 0.01718,-0.12764 0.02969,-0.25558 0.04414,-0.38078 0.02251,0.6484 0.04413,1.33091 0.06614,2.00379 -1.168407,3.18746 0.06132,6.42626 0.06132,9.71442 0,3.73475 -1.578738,7.4061 0.571978,11.01122 0.05417,2.00059 0.105848,3.98752 0.152418,5.91508 -0.360987,-1.83928 -0.652998,-3.70505 -0.89607,-5.58927 z m 12.757104,32.1714 c -0.198544,-0.32218 -0.399901,-0.63876 -0.59363,-0.96536 -5.862125,-9.83962 -9.674214,-21.16461 -10.97059,-33.38597 -0.08866,-4.79842 -0.169263,-9.67028 -0.27515,-14.23038 v -1.18848 c 0.763298,-10.61038 3.424217,-20.58761 7.671099,-29.56775 0.356183,-0.17654 0.707158,-0.32661 1.05812,-0.46905 -0.262326,-0.0269 -0.510201,-0.0761 -0.800208,-0.0541 0.238254,-0.49353 0.474113,-0.98707 0.719175,-1.47336 0.371025,0.0172 0.729215,0.0565 1.060921,0.14485 0.461275,0.12282 0.947417,0.34627 1.399058,0.69014 2.825366,-0.46144 4.929161,0.70979 4.833299,4.57011 -0.238254,9.52264 -9.993098,24.75731 -9.993098,36.65649 0,11.90236 12.612303,25.23435 12.612303,33.56289 0,4.06897 -2.563051,6.19113 -6.065489,5.81477 -0.144801,0.0838 -0.284785,0.17493 -0.43961,0.24275 -0.07343,-0.11474 -0.144801,-0.2323 -0.2162,-0.34748 z m 10.238981,13.25979 c 3.94766,-2.16309 6.978796,-4.89393 7.428432,-8.25832 1.428729,-10.7111 -15.229502,-26.1841 -15.229502,-44.27682 0,-18.09231 12.612705,-32.1361 12.850557,-42.60926 0.120689,-5.304 -7.145261,-6.63731 -14.345463,-6.66419 1.772074,-2.73806 3.718622,-5.33609 5.797953,-7.81134 9.529414,2.8115 16.648207,8.10826 15.923812,14.47553 -1.190476,10.47557 -15.467368,25.23116 -15.467368,42.1326 0,16.90222 17.372604,33.08983 16.419991,45.94195 -0.336536,4.54043 -3.463937,8.73941 -7.864838,12.26068 -1.922097,-1.63544 -3.760753,-3.36881 -5.513574,-5.19083 z m 19.443901,-59.6732 c 5.717325,0 10.35208,3.35677 10.35208,7.49716 0,4.14241 -4.634755,7.49677 -10.35208,7.49677 -5.716933,0 -10.351689,-3.35636 -10.351689,-7.49677 0,-4.14039 4.637163,-7.49716 10.351689,-7.49716 z m 5.594594,67.12582 c -4.337537,-1.32127 -7.852811,-4.20139 -7.852811,-6.4387 0,-2.2341 3.515274,-2.97639 7.852811,-1.65511 4.33713,1.32129 7.852404,4.20218 7.852404,6.43629 0,2.23732 -3.517278,2.97881 -7.852404,1.65752 z m 12.011054,13.76132 c 0.71195,-1.15437 2.86266,-2.22486 6.49065,-3.94098 4.00343,-1.89343 9.48772,-4.49106 9.48772,-6.72639 0,-1.31565 -4.4286,-4.81488 -8.70959,-8.19651 -8.57719,-6.77492 -20.320301,-16.0496 -20.320301,-24.65177 0,-7.39646 6.664338,-14.66492 12.543311,-21.07594 4.80644,-5.245 9.34813,-10.19549 9.34813,-14.15412 0,-4.23348 -4.67647,-10.54179 -9.20052,-16.64382 -5.18707,-6.99362 -10.548226,-14.22516 -10.548226,-20.01306 0,-6.25934 5.849694,-13.57956 11.007086,-20.03751 3.83455,-4.79803 7.45531,-9.33123 7.55078,-12.12587 0,0 0,0 0,-0.003 0,-3.56783 -3.51768,-6.61765 -6.65231,-8.62867 0.67025,-0.15208 1.34048,-0.29973 2.01757,-0.43455 3.06843,2.17352 6.1124,5.2354 6.1124,8.88907 l -0.005,0.22832 c -0.11274,3.27813 -3.709,7.77923 -7.87247,12.99013 -5.007366,6.27138 -10.687807,13.37532 -10.687807,19.11907 0,5.30158 5.213957,12.33452 10.258637,19.13633 4.87982,6.58597 9.48971,12.80358 9.48971,17.52295 0,4.5308 -4.72781,9.68714 -9.73519,15.14841 -5.697677,6.21521 -12.156245,13.25737 -12.156245,20.08166 0,7.88757 11.422235,16.90945 19.761165,23.49539 6.09036,4.81008 9.2687,7.41372 9.2687,9.35331 0,3.16779 -5.25043,5.65587 -10.32962,8.05689 -2.16997,1.02879 -4.55813,2.1659 -5.51075,2.98563 -0.53949,-0.11799 -1.07216,-0.24796 -1.60763,-0.37556 z m 4.40652,0.5204 c 1.19047,-2.61727 16.18173,-6.66418 16.18173,-11.18777 0,-4.52356 -29.029884,-19.75704 -29.029884,-32.85068 0,-13.09286 21.891424,-25.94579 21.891424,-35.23008 0,-9.28468 -19.751136,-25.94817 -19.751136,-36.65688 0,-10.71148 18.325226,-25.23355 18.560266,-32.13649 0.13758,-3.98792 -3.84898,-7.32985 -7.24393,-9.45159 -0.92775,-0.5794 -1.80416,-1.06571 -2.54581,-1.44889 0.0834,-0.0172 0.16927,-0.005 0.25272,-0.009 0.68988,0.37556 1.4632,0.86426 2.29309,1.37985 4.26375,-0.72463 8.6482,-1.04122 13.14014,-1.04122 2.34207,0 4.81887,-0.0323 7.35947,0.15971 0.76611,0.0565 1.52941,0.36833 2.31276,0.46421 0.0317,0.0323 0.0638,0.0637 0.0954,0.0984 1.04084,0.10064 2.10137,0.32661 3.16911,0.45701 -1.42152,-1.39993 -2.63406,-2.08243 -2.64889,-2.08243 0.0144,0 1.22737,0.57697 2.64647,1.97689 0.0757,0.009 0.15723,0.022 0.23304,0.0321 1.98347,2.01824 4.25654,5.19606 4.25654,9.23293 0,7.14088 -34.26629,20.94633 -34.26629,32.37203 0,11.42571 32.12317,17.13735 32.12317,37.13354 0,18.09271 -34.50171,27.13626 -34.73957,35.23006 -0.23785,8.09381 41.88042,19.99618 40.21385,31.66023 -1.2029,8.43247 -11.21325,10.39935 -16.3169,12.99937 -0.26513,0.0131 -0.54269,0.037 -0.80541,0.0493 -0.82708,0.0313 -1.6373,-0.14484 -2.44233,-0.13321 -0.35616,0.17496 -0.67747,0.38799 -0.98189,0.60668 -0.0686,0.003 -0.14202,0.005 -0.20897,0.005 -0.5427,0 -1.07777,-0.41769 -1.61486,-0.42773 -4.16105,-0.0832 -8.22864,-0.29933 -12.18794,-1.0063 0.0148,-0.0675 0.0249,-0.12842 0.0546,-0.19503 z m 38.78751,-124.96976 c 7.35906,0 13.32427,3.51647 13.32427,7.85549 0,4.33661 -5.96722,7.85548 -13.32427,7.85548 -7.35983,0 -13.32464,-3.51887 -13.32464,-7.85548 0,-4.33902 5.9652,-7.85549 13.32464,-7.85549 z m -0.4737,77.36306 c 7.09673,0 12.85055,3.25165 12.85055,7.26165 0,4.00999 -5.75382,7.26083 -12.85055,7.26083 -7.09633,0 -12.85057,-3.24844 -12.85057,-7.26083 -3.7e-4,-4.01 5.75103,-7.26165 12.85057,-7.26165 z m -38.48348,49.49294 c -0.0882,-0.33142 -0.10832,-0.49594 -0.0834,-0.86989 0.0118,0.18418 0.0269,0.45703 0.0834,0.67569 2.59956,0.47426 5.25084,0.8402 7.94828,0.8402 -2.69744,-4.1e-4 -5.34832,-0.17253 -7.94828,-0.646 z m 59.5009,-6.12453 c -13.62147,4.12755 -26.82058,6.74526 -38.05348,7.54371 -2.0348,0.14485 -4.01104,-0.15205 -5.90626,-0.12763 0.0172,-0.0493 0.0418,-0.23111 0.0661,-0.3904 1.87557,-0.0273 3.82694,-0.2556 5.83767,-0.2556 10.94291,0 23.75214,-2.88331 36.99539,-6.84593 0.35818,0.024 0.69469,0.0561 1.06051,0.0758 z m 18.3469,-8.71973 c -0.724,0.29009 -1.44839,0.57697 -2.17479,0.85986 -0.62814,0.24515 -1.25906,0.48108 -1.8876,0.71942 -5.39323,2.04993 -10.8354,3.89402 -16.23827,5.50981 -0.14,0.0423 -0.28238,0.0838 -0.42238,0.12516 -0.79778,0.23593 -1.59318,0.46624 -2.38855,0.69736 -0.31408,-0.0393 -0.64819,-0.0668 -0.95503,-0.10837 -0.29964,0.0838 -0.59405,0.15771 -0.89086,0.23835 -6.14692,-0.97501 -10.2855,-3.00088 -10.2879,-7.24679 l 0.005,-0.24076 c 0.11756,-3.32987 7.24393,-7.53326 18.97018,-14.06544 9.46284,-5.2727 21.24566,-11.83336 21.24566,-15.664 0,-2.91301 -7.39113,-7.10717 -15.21465,-11.54649 -11.9866,-6.80462 -26.90403,-15.2736 -26.90403,-25.35154 0,-9.85925 13.85932,-15.92199 26.08899,-21.27495 8.36581,-3.66131 16.26755,-7.11878 16.26755,-10.62039 0,-3.62201 -7.41319,-8.15762 -15.25879,-12.96046 -11.02914,-6.75046 -23.52874,-14.3997 -23.52874,-23.69642 0,-2.53383 0.84673,-4.658 2.41545,-6.39456 0.0249,0.005 0.0464,0.0105 0.0686,0.0173 0.0249,-0.0269 0.0513,-0.0591 0.0761,-0.0884 0.52784,0.12764 1.04808,0.24797 1.57834,0.38077 v 0 c -1.77728,1.58128 -2.66574,3.56542 -2.66574,6.08481 0,8.46936 12.12658,15.89511 22.82681,22.44175 8.56476,5.24259 15.96072,9.77098 15.96072,14.21793 0,4.4642 -7.56804,7.77683 -17.14638,11.97098 -11.81491,5.16918 -25.21017,11.03049 -25.21017,19.92476 0,9.22091 14.50512,17.45394 26.16038,24.0724 8.91574,5.06083 15.95832,9.05838 15.95832,12.82803 0,4.69491 -10.40344,10.65012 -21.71975,16.95078 -8.49339,4.72702 -17.93217,10.08517 -17.93217,12.82563 v 0.18658 c 0,3.61958 3.91277,5.34612 11.21086,6.11408 -4.73301,-1.06568 -7.5953,-2.97076 -7.47497,-6.32794 0.20375,-5.70362 29.42496,-17.5081 37.86938,-25.86672 0.7168,-1.23503 1.13674,-2.54386 1.13674,-4.00318 l -0.0249,-0.33142 c -0.0393,-0.89557 -0.28479,-1.78753 -0.60647,-2.67627 -7.86485,-8.02239 -40.41763,-19.33534 -40.41763,-33.77677 0,-16.42556 42.35696,-22.61347 42.35696,-31.89576 0,-9.28469 -38.78994,-20.94873 -38.78994,-36.65969 0,-2.13138 0.61129,-3.8527 1.64211,-5.25743 6.08274,1.63546 12.26858,3.57544 18.4231,5.79511 0.4713,0.17172 0.945,0.33142 1.4163,0.50595 1.237,0.4542 2.46679,0.9333 3.69938,1.40956 -0.10311,0.91602 -0.0269,1.98172 0.28238,3.25888 1.90524,7.85547 18.79853,19.04285 19.03677,31.18355 0.23827,12.14072 -23.32016,18.8025 -23.32016,33.32497 0,14.52208 21.41532,23.80396 21.89383,34.75339 0.47371,10.94943 -20.70335,14.52006 -16.89609,26.66039 0.3987,1.28918 1.0124,2.24893 1.76608,2.99605 z m 55.34225,-54.16818 c 6.18584,-12.37824 4.2834,-14.75761 -2.85503,-29.75393 -4.24447,-8.91636 -3.09291,-12.84771 -0.57199,-14.33592 -1.36977,-0.11279 -2.82536,0.059 -3.86623,0.85224 -2.3982,1.82443 -1.96139,6.46559 1.22738,13.16668 l 1.21253,2.53422 c 3.51005,7.32023 5.44218,11.35471 5.44218,15.73784 0,3.24884 -1.06774,6.65017 -3.80487,12.12548 -4.67126,9.35089 -6.11,17.80341 -3.31633,19.61299 0.70954,0.45943 1.76246,0.50878 3.04639,0.24276 -2.93567,-2.78421 -0.8391,-11.53084 3.48597,-20.18236 z"
     inkscape:connector-curvature="0" /><g
     id="g10"
     transform="matrix(1.0160661,0,0,1.0160842,-0.44309061,-69.152155)"
     style="stroke-width:0.9841792" /><g
     id="g12"
     transform="matrix(1.0160661,0,0,1.0160842,-0.44309061,-69.152155)"
     style="stroke-width:0.9841792" /><g
     id="g14"
     transform="matrix(1.0160661,0,0,1.0160842,-0.44309061,-69.152155)"
     style="stroke-width:0.9841792" /><g
     id="g16"
     transform="matrix(1.0160661,0,0,1.0160842,-0.44309061,-69.152155)"
     style="stroke-width:0.9841792" /><g
     id="g18"
     transform="matrix(1.0160661,0,0,1.0160842,-0.44309061,-69.152155)"
     style="stroke-width:0.9841792" /><g
     id="g20"
     transform="matrix(1.0160661,0,0,1.0160842,-0.44309061,-69.152155)"
     style="stroke-width:0.9841792" /><g
     id="g22"
     transform="matrix(1.0160661,0,0,1.0160842,-0.44309061,-69.152155)"
     style="stroke-width:0.9841792" /><g
     id="g24"
     transform="matrix(1.0160661,0,0,1.0160842,-0.44309061,-69.152155)"
     style="stroke-width:0.9841792" /><g
     id="g26"
     transform="matrix(1.0160661,0,0,1.0160842,-0.44309061,-69.152155)"
     style="stroke-width:0.9841792" /><g
     id="g28"
     transform="matrix(1.0160661,0,0,1.0160842,-0.44309061,-69.152155)"
     style="stroke-width:0.9841792" /><g
     id="g30"
     transform="matrix(1.0160661,0,0,1.0160842,-0.44309061,-69.152155)"
     style="stroke-width:0.9841792" /><g
     id="g32"
     transform="matrix(1.0160661,0,0,1.0160842,-0.44309061,-69.152155)"
     style="stroke-width:0.9841792" /><g
     id="g34"
     transform="matrix(1.0160661,0,0,1.0160842,-0.44309061,-69.152155)"
     style="stroke-width:0.9841792" /><g
     id="g36"
     transform="matrix(1.0160661,0,0,1.0160842,-0.44309061,-69.152155)"
     style="stroke-width:0.9841792" /><g
     id="g38"
     transform="matrix(1.0160661,0,0,1.0160842,-0.44309061,-69.152155)"
     style="stroke-width:0.9841792" /><path
     sodipodi:type="inkscape:offset"
     inkscape:radius="-24.987812"
     inkscape:original="M 95.458984 305.38672 C 42.305334 305.38672 -0.63085936 350.241 -0.63085938 403.44922 C -0.63085938 456.65761 42.304325 501.51367 95.458984 501.51367 C 122.80107 501.51367 151.165 492.61276 177.14258 478.96484 A 32.771015 32.771015 0 0 0 177.14453 478.96484 C 186.32694 474.14014 198.6555 466.93258 210.41992 455.61719 C 222.18435 444.30179 234.98242 426.98707 234.98242 403.44922 C 234.98242 379.91137 222.18262 362.59622 210.41797 351.28125 C 198.65332 339.96628 186.32446 332.75978 177.14258 327.93555 C 151.16444 314.28816 122.80071 305.38672 95.458984 305.38672 z "
     xlink:href="#path904"
     style="fill:none;fill-opacity:1;stroke:#f60000;stroke-width:0.76531589;stroke-opacity:1"
     id="path1061"
     d="m 95.458984,330.375 c -39.09616,0 -71.101562,33.30855 -71.101562,73.07422 0,39.76619 32.004684,73.07617 71.101562,73.07617 21.919086,0 46.754596,-7.43629 70.062496,-19.68164 8.26396,-4.34212 18.27708,-10.29216 27.57618,-19.23633 9.11107,-8.76332 16.89648,-19.67798 16.89648,-34.1582 0,-14.479 -7.78702,-25.39506 -16.89844,-34.1582 -9.29831,-8.94291 -19.30992,-14.89218 -27.57422,-19.23438 h -0.002 C 142.21089,337.8119 117.37682,330.375 95.458984,330.375 Z"
     transform="matrix(1.3064281,0,0,1.3068719,-4.241944,-158.99829)" /></svg>